<?xml version="1.0" encoding="UTF-8" standalone="no"?>
<!-- Created with Inkscape (http://www.inkscape.org/) -->

<svg
   xmlns:dc="http://purl.org/dc/elements/1.1/"
   xmlns:cc="http://creativecommons.org/ns#"
   xmlns:rdf="http://www.w3.org/1999/02/22-rdf-syntax-ns#"
   xmlns:svg="http://www.w3.org/2000/svg"
   xmlns="http://www.w3.org/2000/svg"
   xmlns:sodipodi="http://sodipodi.sourceforge.net/DTD/sodipodi-0.dtd"
   xmlns:inkscape="http://www.inkscape.org/namespaces/inkscape"
   id="svg2"
   version="1.1"
   inkscape:version="0.91 r"
   xml:space="preserve"
   width="1052.4"
   height="744"
   viewBox="0 0 1052.4 744"
   sodipodi:docname="32C3.svg"><metadata
     id="metadata8"><rdf:RDF><cc:Work
         rdf:about=""><dc:format>image/svg+xml</dc:format><dc:type
           rdf:resource="http://purl.org/dc/dcmitype/StillImage" /><dc:title></dc:title></cc:Work></rdf:RDF></metadata><defs
     id="defs6"><clipPath
       clipPathUnits="userSpaceOnUse"
       id="clipPath16"><path
         d="m 0,595.2 841.92,0 L 841.92,0 0,0 0,595.2 Z"
         id="path18"
         inkscape:connector-curvature="0" /></clipPath></defs><sodipodi:namedview
     pagecolor="#ffffff"
     bordercolor="#666666"
     borderopacity="1"
     objecttolerance="10"
     gridtolerance="10"
     guidetolerance="10"
     inkscape:pageopacity="0"
     inkscape:pageshadow="2"
     inkscape:window-width="1920"
     inkscape:window-height="1025"
     id="namedview4"
     showgrid="false"
     inkscape:zoom="1"
     inkscape:cx="390.57514"
     inkscape:cy="283.8187"
     inkscape:window-x="-2"
     inkscape:window-y="-3"
     inkscape:window-maximized="1"
     inkscape:current-layer="g10" /><g
     id="g10"
     inkscape:groupmode="layer"
     inkscape:label="32C3_knot_vectors"
     transform="matrix(1.25,0,0,-1.25,0,744)"><g
       id="g12"
       style="fill:#ffffff"><g
         id="g14"
         clip-path="url(#clipPath16)"
         style="fill:#ffffff"><g
           id="g20"
           transform="translate(633.4581,290.6935)"
           style="fill:#ffffff"><path
             d="M 0,0 C 1.264,1.248 2.504,2.45 3.719,3.677 6.279,6.261 6.274,6.266 6.39,7.819 5.998,7.538 5.665,7.334 5.374,7.083 3.463,5.435 1.563,3.774 -0.345,2.122 -1.245,1.343 -0.667,0.764 0,0 m 32.367,-36.231 c -1.182,0.141 -2.103,0.382 -3.005,0.322 -1.035,-0.068 -1.849,-1.084 -1.603,-1.951 0.398,-1.404 0.961,-2.762 1.454,-4.14 0.171,10e-4 0.341,10e-4 0.511,10e-4 0.834,1.82 1.668,3.64 2.643,5.768 m -158.575,-102.015 c -1.139,2.532 -3.613,3.503 -5.541,5.229 -1.287,-2.535 -0.286,-3.756 1.581,-5.407 1.208,-1.069 2.087,-0.97 3.96,0.178 m 112.413,79.892 c 1.102,-2.641 2.055,-4.923 3.159,-7.569 1.222,3.102 3.237,5.585 1.877,9.049 -1.666,-0.489 -3.225,-0.948 -5.036,-1.48 m -114.785,-72.358 c 1.725,-1.725 3.375,-3.376 5.086,-5.087 2.841,3.443 1.189,7.067 1.077,10.838 -2.11,-1.968 -4.005,-3.737 -6.163,-5.751 M 36.657,-34.49 c 2.113,-0.192 3.828,-0.425 5.548,-0.479 1.577,-0.049 2.911,0.704 4.071,1.719 0.778,0.682 1.079,1.556 0.702,2.573 -0.367,0.992 -1.205,1.102 -2.121,1.179 -3.675,0.311 -6.171,-1.377 -8.2,-4.992 m -27.879,7.605 c 1.678,2.157 3.005,4.164 4.635,5.886 2.036,2.15 2.952,4.867 4.255,7.393 0.162,0.314 0.125,0.73 0.253,1.579 -3.885,-3.939 -8.439,-6.35 -12.134,-9.931 1.023,-1.685 1.924,-3.17 2.991,-4.927 m -21.737,14.567 c 3.071,2.76 6.005,5.306 8.83,7.967 1.946,1.832 1.879,1.903 0.419,4.404 -3.844,-2.343 -7.689,-4.686 -11.658,-7.105 0.72,-1.573 1.473,-3.22 2.409,-5.266 m -2.755,-36.63 c -1.769,2.553 -3.421,4.938 -5.119,7.389 -3.397,-1.925 -7.176,-2.907 -10.655,-4.829 7.043,-5.81 9.563,-6.055 15.774,-2.56 m -2.571,8.937 c 1.866,-2.655 3.311,-5.292 6.033,-7.027 2.737,1.881 5.353,3.679 8.092,5.561 -1.411,1.129 -2.632,2.005 -3.732,3.014 -1.103,1.011 -2.085,2.153 -3.217,3.34 -2.454,-1.671 -4.736,-3.226 -7.176,-4.888 m -11.302,27.502 c 1.029,-3.543 1.979,-6.816 2.963,-10.204 4.069,2.311 7.749,4.907 10.969,8.218 -0.839,2.183 -1.653,4.298 -2.488,6.47 -4.02,-1.576 -7.718,-3.024 -11.444,-4.484 m 27.863,-26.652 c 1.873,1.799 3.696,3.476 5.428,5.242 1.003,1.021 1.858,2.187 2.785,3.283 0.525,0.622 0.636,1.274 0.153,1.967 -1.08,1.549 -2.165,3.095 -3.339,4.773 -4.027,-3.277 -7.982,-6.195 -11.613,-9.497 1.943,-2.424 3.773,-4.518 6.586,-5.768 m -62.291,5.74 c -1.599,0.445 -3.052,0.872 -4.517,1.252 -3.173,0.821 -5.789,-0.132 -8.031,-2.457 -0.929,-0.963 -1.247,-2.018 -0.982,-3.272 0.813,-3.839 2.984,-6.523 6.84,-7.547 3.994,-1.06 7.68,-0.644 10.588,2.737 -4.276,4.104 -4.553,4.748 -3.898,9.287 m 7.014,-6.876 c 1.058,0.835 2.077,1.592 3.039,2.414 0.663,0.566 1.651,1.145 1.788,1.855 0.343,1.779 1.625,2.224 2.976,2.738 1.417,0.54 2.788,1.297 4.253,1.592 5.715,1.15 10.192,4.777 15.359,7.294 -0.9,3.634 -1.769,7.146 -2.695,10.887 -6.088,-1.915 -11.832,-3.722 -17.87,-5.621 1.019,-3.262 1.911,-6.312 2.934,-9.317 0.661,-1.941 0.457,-2.835 -1.353,-3.677 -0.855,-0.398 -1.799,-0.662 -2.731,-0.83 -1.796,-0.324 -3.609,-0.568 -5.422,-0.786 -1.679,-0.201 -2.962,-1.02 -4.02,-2.234 0.289,-2.321 2.186,-3.056 3.742,-4.315 M -7.42,-158.259 c -4.166,-1.731 -8.125,-3.209 -11.933,-5.005 -3.845,-1.813 -7.962,-2.104 -11.961,-1.857 -4.665,0.288 -9.273,1.519 -13.901,2.363 -1.3,0.237 -2.586,0.55 -4.226,0.903 -0.444,-2.396 -0.851,-4.489 -1.211,-6.591 -0.169,-0.986 0.247,-1.768 1.178,-2.116 1.486,-0.557 2.979,-1.149 4.522,-1.485 3.823,-0.835 7.664,-1.606 11.522,-2.259 2.276,-0.386 4.625,-0.839 6.896,-0.668 5.487,0.414 10.913,1.346 16.303,3.22 0.92,4.415 1.855,8.906 2.811,13.495 m -205.478,101.601 c 3.025,0.459 5.849,0.951 8.692,1.292 1.464,0.176 2.227,0.934 2.818,2.205 3.218,6.925 5.604,14.133 6.709,21.674 0.917,6.254 2.097,12.437 3.508,18.589 0.856,3.734 0.519,7.465 -0.248,11.171 -0.245,1.185 -0.817,1.945 -2.21,2.102 -2.887,0.324 -3.892,-0.357 -4.448,-3.287 -0.342,-1.803 -0.587,-3.646 -1.149,-5.382 -2.551,-7.878 -3.199,-16.12 -4.69,-24.198 -0.68,-3.682 -0.862,-7.453 -1.435,-11.158 -0.444,-2.88 -1.634,-5.511 -3.421,-7.833 -1.302,-1.692 -2.66,-3.341 -4.126,-5.175 M 5.229,44.475 c -0.739,1.586 -1.646,3.04 -2.11,4.624 -1.243,4.243 -3.858,7.672 -6.43,11.095 -2.971,3.953 -6.408,7.536 -8.857,11.909 -0.767,1.368 -2.226,2.638 -3.668,3.28 -3.51,1.561 -7.258,2.431 -11.158,2.334 -0.094,-0.002 -0.182,-0.216 -0.228,-0.273 1.086,-1.975 2.318,-3.854 3.194,-5.887 1.55,-3.592 2.988,-7.241 4.276,-10.934 1.246,-3.569 2.915,-6.899 4.772,-10.178 2.874,-5.075 5.552,-10.257 7.444,-15.804 0.137,-0.4 0.445,-0.743 0.727,-1.2 4.356,3.517 8.754,6.709 12.038,11.034 m -42.263,-91.771 c -0.144,-0.151 -0.287,-0.302 -0.43,-0.453 0.903,-2.003 1.787,-4.015 2.729,-5.999 0.157,-0.333 0.524,-0.62 0.862,-0.803 2.269,-1.234 4.642,-2.193 7.279,-2.118 7.94,0.228 15.466,2.361 22.719,5.388 5.675,2.368 11.15,5.208 16.779,7.692 3.839,1.694 6.532,4.4 8.525,8.054 5.003,9.17 8.062,19.128 11.848,28.79 1.157,2.952 0.054,5.482 -2.011,7.656 -0.658,0.693 -1.423,1.286 -2.141,1.92 -1.224,1.081 -1.914,1.148 -3.068,0.065 -0.562,-0.528 -1.01,-1.24 -1.333,-1.949 -0.828,-1.818 -1.509,-3.701 -2.34,-5.516 -0.584,-1.276 -0.859,-2.551 -0.66,-3.946 0.749,-5.255 -1.856,-9.437 -4.546,-13.501 -2.066,-3.122 -4.531,-5.976 -6.687,-9.041 -1.71,-2.432 -3.492,-4.766 -5.785,-6.684 -3.126,-2.614 -6.125,-5.391 -9.363,-7.854 -4.316,-3.282 -8.69,-6.382 -14.16,-7.801 -4.816,-1.249 -8.785,-0.361 -12.499,2.693 -1.171,0.962 -2.395,1.873 -3.668,2.692 -0.592,0.381 -1.361,0.485 -2.05,0.715 m 58.279,5.002 c 2.324,-3.166 4.728,-6.153 6.819,-9.345 5.041,-7.696 9.808,-15.557 13.36,-24.086 0.369,-0.885 0.73,-1.791 1.244,-2.591 0.457,-0.712 1.01,-1.476 1.712,-1.897 5.065,-3.038 10.123,-6.096 15.844,-7.828 5.966,-1.806 12.02,-2.571 18.227,-1.789 4.441,0.56 8.885,1.109 13.308,1.793 2.116,0.328 4.197,0.915 6.271,1.471 1.43,0.384 2.048,1.46 1.999,2.904 -0.095,2.785 -0.909,5.312 -2.652,7.534 -1.432,1.825 -1.791,2.015 -4.053,1.401 -3.162,-0.859 -6.296,-1.825 -9.47,-2.637 -3.253,-0.833 -6.545,-1.705 -9.938,-1.09 -3.061,0.555 -6.108,1.23 -9.119,2.014 -3.555,0.926 -7.024,2.22 -10.609,2.991 -3.088,0.664 -5.726,1.948 -8.002,4.067 -3.097,2.883 -6.283,5.683 -9.246,8.7 -5.405,5.505 -9.015,12.157 -11.815,19.283 -0.341,0.868 -0.64,1.752 -1.078,2.957 -1.065,-1.465 -1.898,-2.609 -2.802,-3.852 M -8.853,31.493 c -3.32,6.178 -6.55,12.132 -9.721,18.118 -1.306,2.466 -2.626,4.941 -3.694,7.514 -1.744,4.202 -3.184,8.531 -4.941,12.728 -2.273,5.433 -6.054,9.702 -11.407,12.107 -3.827,1.719 -8.002,2.685 -12.056,3.867 -3.182,0.927 -5.463,-0.659 -7.664,-3.097 6.535,-3.666 10.164,-9.776 14.274,-15.456 1.171,-1.618 2.383,-3.206 3.578,-4.808 3.835,-5.141 7.038,-10.658 9.829,-16.426 0.972,-2.01 2.113,-3.938 3.051,-5.963 0.729,-1.575 1.347,-3.214 1.866,-4.871 0.972,-3.106 1.833,-6.246 2.757,-9.367 0.035,-0.117 0.241,-0.183 0.559,-0.409 4.33,2.061 9.07,3.492 13.569,6.063 M -41.22,-144.94 c 1.067,-0.297 1.893,-0.567 2.738,-0.755 2.328,-0.519 3.551,0.214 4.301,2.53 1.501,4.636 2.89,9.311 4.53,13.897 2.238,6.257 4.854,12.361 8.631,17.881 2.664,3.892 5.388,7.744 8.125,11.585 0.974,1.366 2.054,2.656 3.108,3.963 4.134,5.125 7.872,10.498 9.967,16.815 1.407,4.244 2.87,8.496 3.858,12.846 0.754,3.323 0.899,6.799 1.12,10.219 0.093,1.443 0.048,3.01 -1.004,4.394 -3.323,-1.525 -6.566,-3.014 -9.922,-4.553 0.849,-2.615 0.871,-5.103 -0.27,-7.546 -1.791,-3.836 -3.509,-7.705 -5.317,-11.532 -0.955,-2.023 -1.988,-4.012 -3.07,-5.971 -3.859,-6.993 -7.617,-14.047 -11.685,-20.917 -2.56,-4.322 -5.714,-8.274 -7.857,-12.878 -4.017,-8.631 -7.01,-17.509 -7.25,-27.136 -0.023,-0.935 -0.003,-1.871 -0.003,-2.842 m 16.072,169.535 c -1.13,2.604 -2.465,4.838 -3.056,7.253 -0.833,3.401 -2.187,6.472 -4.09,9.363 -0.479,0.728 -0.792,1.567 -1.164,2.363 -2.845,6.104 -6.242,11.875 -10.289,17.265 -1.871,2.492 -3.611,5.083 -5.509,7.553 -2.042,2.658 -4.094,5.323 -6.342,7.802 -1.605,1.769 -3.531,3.263 -5.948,3.879 -3.636,0.927 -7.264,1.89 -10.92,2.736 -5.811,1.346 -7.645,0.324 -11.827,-5.255 0.449,-0.201 0.859,-0.444 1.303,-0.573 5.619,-1.642 10.227,-4.829 14.028,-9.22 1.777,-2.052 3.577,-4.099 5.184,-6.282 4.035,-5.477 8.263,-10.783 12.975,-15.698 3.997,-4.168 7.517,-8.72 10.549,-13.628 0.87,-1.408 1.419,-3.016 2.087,-4.544 0.753,-1.723 1.475,-3.461 2.288,-5.374 3.692,0.812 7.097,1.561 10.731,2.36 M 9.15,47.822 C 10.115,46.039 9.783,44.539 8.841,43.125 8.4,42.464 7.854,41.871 7.335,41.264 3.144,36.363 -2.145,32.694 -7.013,28.557 c -1.13,-0.96 -2.59,-1.574 -3.967,-2.192 -2.479,-1.112 -4.983,-2.176 -7.526,-3.131 -2.387,-0.896 -4.789,-1.851 -7.27,-2.38 -4.918,-1.048 -9.89,-1.843 -14.846,-2.702 -7.582,-1.314 -15.197,-2.076 -22.914,-1.558 -1.899,0.127 -3.832,-0.145 -5.742,-0.307 -1.732,-0.148 -3.401,-0.302 -4.805,-1.706 -0.786,-0.786 -2.125,-1.047 -3.245,-1.464 -1.122,-0.418 -2.303,-0.681 -3.42,-1.11 -2.519,-0.967 -2.733,-1.771 -1.029,-3.788 1.699,-2.012 3.928,-3.277 6.369,-4.108 4.598,-1.564 9.382,-2.119 14.197,-1.83 7.581,0.456 15.123,1.268 22.601,2.735 11.433,2.243 21.773,6.868 31.034,13.86 4.46,3.367 8.692,7.04 12.997,10.61 0.856,0.71 1.714,1.489 2.335,2.398 2.3,3.364 4.525,6.78 6.722,10.213 0.556,0.867 1.015,1.832 1.324,2.814 0.647,2.062 -0.257,4.158 -1.947,4.803 -1.49,0.569 -5.436,0.66 -7.377,0.12 0.345,-0.866 0.682,-1.712 1.038,-2.604 0.646,0.234 1.085,0.393 1.634,0.592 m -62.864,-89.863 c 1.766,-0.454 3.245,-0.761 4.678,-1.214 5.398,-1.708 10.824,-1.233 16.049,0.371 8.75,2.687 16.238,7.824 23.451,13.278 7.328,5.541 14.457,11.347 21.675,17.035 3.063,2.414 5.537,5.259 7,8.951 1.147,2.894 2.51,5.702 3.734,8.566 1.78,4.163 2.621,8.525 2.762,13.048 0.044,1.411 -0.481,2.292 -1.77,2.764 -0.588,0.216 -1.18,0.423 -1.829,0.654 C 21.723,21.054 21.47,20.758 21.21,20.467 19.245,18.271 17.279,16.074 15.311,13.881 15.046,13.585 14.704,13.341 14.5,13.01 12.873,10.371 11.275,7.713 9.654,5.069 9.322,4.527 8.996,3.957 8.557,3.508 4.596,-0.554 0.752,-4.747 -3.411,-8.592 c -3.867,-3.57 -8.012,-6.853 -12.17,-10.089 -2.767,-2.153 -5.722,-4.079 -8.682,-5.967 -4.038,-2.576 -8.103,-5.124 -12.277,-7.47 -1.855,-1.042 -3.991,-1.595 -6.023,-2.304 -1.507,-0.525 -3.063,-0.905 -4.572,-1.425 -0.586,-0.202 -1.203,-0.509 -1.63,-0.942 -1.619,-1.637 -3.166,-3.346 -4.949,-5.252 m -77.025,-86.615 c 0.742,0.679 1.359,1.302 2.036,1.851 4.474,3.624 5.945,8.693 6.142,14.052 0.146,3.96 -0.42,7.98 -1.011,11.922 -0.399,2.663 -1.065,5.388 -2.188,7.819 -2.676,5.796 -7.743,9.393 -12.793,12.932 -0.064,0.045 -0.147,0.062 -0.22,0.094 -1.76,0.761 -3.46,1.749 -5.293,2.235 -3.228,0.855 -6.51,1.729 -9.819,2.013 -6.826,0.586 -12.708,-1.85 -17.666,-6.527 -1.681,-1.587 -3.536,-3.069 -4.883,-4.913 -3.221,-4.411 -4.005,-9.664 -4.533,-14.946 -0.021,-0.217 0.105,-0.449 0.196,-0.799 2.284,-0.091 4.583,-0.126 6.874,-0.288 2.288,-0.162 4.567,-0.451 6.843,-0.684 0.626,1.668 1.072,3.124 1.706,4.493 2.025,4.38 5.114,7.437 10.127,8.23 5.094,0.807 9.847,-0.159 14.431,-2.346 4.502,-2.149 8.7,-9.136 7.956,-14.057 -0.238,-1.579 -0.489,-3.157 -0.767,-4.729 -0.672,-3.797 -2.267,-7.136 -4.952,-9.936 -0.408,-0.426 -0.742,-0.922 -1.152,-1.439 3.038,-1.686 5.89,-3.269 8.966,-4.977 M 9.375,-56.261 C 9.24,-56.303 9.106,-56.345 8.971,-56.387 8.735,-58.824 8.492,-61.26 8.267,-63.697 8.113,-65.36 7.878,-67.025 7.866,-68.69 c -0.03,-4.043 1.177,-7.869 2.137,-11.748 0.785,-3.167 1.648,-6.391 1.808,-9.624 0.478,-9.652 0.649,-19.32 0.883,-28.983 0.036,-1.508 -0.151,-3.033 -0.363,-4.533 -1.127,-7.986 -2.301,-15.966 -3.441,-23.951 -0.114,-0.8 -0.107,-1.617 -0.177,-2.763 2.277,1.151 3.981,2.274 5.471,3.739 6.612,6.5 11.024,14.427 14.768,22.781 0.35,0.783 0.515,1.689 0.583,2.552 0.447,5.655 0.933,11.31 0.352,16.99 -0.768,7.511 -2.116,14.847 -5.644,21.658 -1.613,3.115 -2.97,6.372 -4.298,9.624 -1.525,3.738 -3.52,7.136 -6.216,10.165 -1.262,1.417 -2.205,3.121 -3.272,4.709 -0.392,0.584 -0.723,1.207 -1.082,1.813 m -216.944,17.513 c -3.688,-3.165 -7.67,-4.357 -11.734,-5.158 -4.699,-0.927 -9.478,-1.44 -14.194,-2.286 -10.561,-1.895 -21.237,-2.827 -31.917,-3.411 -10.364,-0.567 -20.767,-0.458 -31.153,-0.575 -5.354,-0.061 -10.711,-0.007 -16.065,0.081 -1.374,0.022 -2.205,-0.444 -2.298,-1.793 -0.131,-1.896 -0.342,-3.83 -0.111,-5.697 0.278,-2.243 1.06,-2.701 3.407,-2.782 0.639,-0.022 1.278,-0.028 1.918,-0.032 13.667,-0.082 27.334,-0.158 41.002,-0.244 14.633,-0.092 29.247,0.109 43.78,2.139 3.401,0.475 6.318,1.752 9.252,3.55 6.022,3.69 6.948,9.616 8.113,16.208 M 15.184,36.181 C 14.54,35.25 13.876,34.359 13.283,33.423 11.211,30.152 8.701,27.277 5.65,24.882 3.325,23.057 0.893,21.352 -1.31,19.39 -9.943,11.696 -19.886,6.325 -30.93,3.177 -41.188,0.253 -51.763,-0.976 -62.427,-1.284 c -1.79,-0.051 -3.346,-0.551 -4.481,-1.896 -1.281,-1.519 -2.386,-3.184 -3.59,-4.768 -1.803,-2.37 -0.913,-4.706 0.124,-6.995 1.009,-2.227 2.935,-2.681 5.192,-2.577 6.59,0.303 13.024,1.487 19.293,3.477 7.154,2.272 14.332,4.449 21.291,7.333 6.072,2.517 12.009,5.139 17.448,8.924 3.593,2.5 7.344,4.691 10.585,7.738 2.417,2.272 5.465,3.874 8.235,5.769 4.58,3.132 7.87,7.22 9.265,12.667 0.873,3.407 -0.565,6.045 -3.818,7.186 -0.593,0.208 -1.199,0.378 -1.933,0.607 m -213.186,-145.328 c -0.083,0.891 -0.124,1.665 -0.232,2.428 -0.928,6.523 -3.855,12.073 -8.106,17.042 -2.065,2.414 -4.43,4.397 -7.227,5.814 -2.989,1.515 -6.077,2.838 -9.131,4.225 -5.95,2.702 -12.171,3.098 -18.525,2.033 -5.565,-0.932 -10.73,-2.859 -15.618,-5.79 -3.637,-2.18 -6.393,-4.992 -8.432,-8.6 -2.639,-4.668 -4.791,-9.525 -6.333,-14.699 -0.721,-2.42 -0.293,-4.142 1.151,-5.937 1.199,-1.491 2.343,-3.028 3.458,-4.582 1.094,-1.527 2.121,-3.101 3.372,-4.94 0.251,1.143 0.434,1.894 0.579,2.651 1.087,5.662 2.687,11.17 4.917,16.492 2.486,5.935 6.926,9.652 13.043,11.417 1.685,0.487 3.434,0.746 5.138,1.174 3.952,0.993 7.647,0.683 11.319,-1.352 4.023,-2.228 7.431,-4.943 9.515,-9.115 1.271,-2.547 2.512,-5.109 3.854,-7.842 5.466,-0.133 11.26,-0.273 17.258,-0.419 m 133.27,147.342 c -1.969,2.157 -3.884,4.314 -6.645,5.115 -2.91,0.845 -5.891,1.474 -8.872,2.037 -8.433,1.593 -17.008,1.731 -25.536,2.305 -5.901,0.397 -11.818,0.555 -17.729,0.795 -9.267,0.376 -18.534,1.019 -27.802,1.032 -16.309,0.023 -32.619,-0.448 -48.929,-0.522 -20.31,-0.091 -40.62,-10e-4 -60.93,0.04 -2.717,0.005 -5.435,0.142 -8.15,0.278 -6.458,0.323 -12.683,1.546 -18.389,4.79 -1.596,0.908 -3.245,1.729 -4.904,2.521 -0.703,0.335 -1.492,0.494 -2.243,0.729 -1.279,0.4 -2.607,0.687 -3.829,1.218 -1.968,0.855 -4.04,1.239 -6.082,0.868 -3.168,-0.575 -5.989,-3.025 -4.313,-7.146 0.422,-1.036 0.795,-2.093 1.248,-3.115 1.59,-3.593 4.086,-6.057 8.181,-6.552 6.231,-0.753 12.43,-0.89 18.583,0.657 3.951,0.994 7.9,2.025 11.891,2.834 5.957,1.207 11.62,0.737 16.506,-3.445 0.472,-0.403 1.308,-0.56 1.963,-0.536 2.636,0.099 5.289,0.156 7.897,0.514 10.16,1.395 20.385,1.925 30.615,2.068 20.467,0.286 40.939,0.483 61.407,0.427 16.471,-0.044 32.939,-0.713 49.409,-0.723 10.749,-0.007 21.138,-1.907 31.466,-4.507 1.759,-0.443 3.459,-1.116 5.187,-1.682 M -154,-137.41 c -0.012,0.006 0.125,-0.09 0.275,-0.116 0.234,-0.04 0.477,-0.057 0.715,-0.045 4.288,0.223 8.151,-1.183 11.967,-2.951 6.134,-2.842 8.693,-7.882 9.176,-14.311 0.251,-3.344 -0.558,-6.443 -1.689,-9.579 -2.31,-6.405 -6.727,-10.097 -13.368,-11.258 -2.927,-0.512 -5.774,-0.279 -8.346,1.263 -2.592,1.555 -5.072,3.295 -7.607,4.946 -1.769,1.153 -3.269,2.52 -4.191,4.494 -0.265,0.566 -0.977,1.286 -1.507,1.305 -3.816,0.136 -7.647,0.322 -11.601,-0.425 0.926,-3.598 1.743,-7.097 4.522,-9.689 1.276,-1.19 2.806,-2.157 3.882,-3.497 1.573,-1.96 3.43,-3.539 5.422,-5.003 0.771,-0.566 1.664,-0.984 2.373,-1.614 2.212,-1.965 4.806,-3.158 7.646,-3.78 1.938,-0.425 3.952,-0.503 5.893,-0.919 2.797,-0.6 5.497,-0.072 7.969,0.988 5.997,2.573 11.36,6.175 15.978,10.836 1.841,1.858 3.113,4.04 3.902,6.518 0.533,1.673 1.104,3.337 1.572,5.028 1.44,5.199 2.607,10.396 0.614,15.757 -1.137,3.058 -2.215,6.122 -4.12,8.947 -2.691,-1.598 -5.275,-2.038 -7.842,0.083 -3.216,2.656 -3.458,5.85 -1.594,9.586 -3.078,1.557 -5.963,3.089 -8.923,4.461 -0.72,0.334 -1.749,0.37 -2.522,0.149 -2.434,-0.697 -4.885,-0.734 -7.369,-0.594 -0.69,0.039 -1.384,0.006 -2.084,0.006 0.289,-3.576 0.569,-7.037 0.857,-10.586 m -119.357,22.71 c -0.203,-3.386 -0.572,-6.168 -0.498,-8.937 0.196,-7.268 0.489,-14.537 0.924,-21.794 0.426,-7.103 1.249,-14.156 3.307,-21.023 0.897,-2.992 2.34,-5.568 4.549,-7.756 2.667,-2.641 5.287,-5.328 7.946,-7.977 1.445,-1.44 3.138,-2.482 5.173,-2.842 5.112,-0.904 10.218,-1.85 15.348,-2.637 3.495,-0.537 7.035,-0.623 10.417,0.648 3.361,1.263 6.688,2.625 9.979,4.059 2.993,1.304 5.398,3.406 7.334,6.019 1.284,1.733 2.752,3.4 3.667,5.32 1.505,3.156 2.707,6.466 3.876,9.768 0.509,1.437 0.17,1.955 -1.052,2.111 -3.634,0.463 -7.28,0.828 -10.905,1.23 -0.91,-1.948 -1.638,-3.724 -2.542,-5.404 -2.541,-4.721 -5.512,-9.139 -10.917,-10.89 -2.784,-0.902 -5.749,-1.278 -8.653,-1.768 -3.288,-0.556 -6.306,0.32 -9.205,1.893 -5.044,2.738 -8.881,6.798 -12.227,11.309 -2.586,3.486 -4.519,7.376 -4.953,11.806 -0.592,6.042 -1.179,12.087 -1.631,18.14 -0.169,2.271 -0.435,4.491 -1.602,6.445 -2.17,3.63 -4.458,7.191 -6.73,10.759 -0.279,0.437 -0.768,0.741 -1.605,1.521 M 8.441,-49.726 c 0.816,-1.137 1.481,-2.093 2.176,-3.027 0.903,-1.212 1.846,-2.395 2.741,-3.612 1.135,-1.542 2.121,-3.21 3.382,-4.637 2.516,-2.851 4.503,-5.994 6.005,-9.48 1.549,-3.598 3.074,-7.214 4.816,-10.719 4.941,-9.941 6.242,-20.573 6.148,-31.474 -0.024,-2.795 -0.175,-5.607 -0.54,-8.375 -0.247,-1.873 -0.782,-3.763 -1.516,-5.507 -2.526,-5.999 -5.931,-11.53 -9.777,-16.748 -3.442,-4.668 -7.467,-8.811 -13.12,-10.85 -1.062,-0.383 -1.277,-1.06 -1.408,-1.961 -0.505,-3.481 -1.025,-6.96 -1.516,-10.443 -0.07,-0.499 -0.01,-1.016 -0.01,-1.836 1.329,0.811 2.402,1.474 3.483,2.124 2.259,1.358 4.501,2.748 6.789,4.057 8.258,4.726 15.063,10.928 18.85,19.797 2.47,5.785 5.04,11.521 6.984,17.565 3.106,9.653 3.045,19.366 2.006,29.182 -0.634,5.985 -2.374,11.673 -5.087,17.142 -3.518,7.093 -6.762,14.312 -11.263,20.871 -1.039,1.514 -1.883,3.163 -2.923,4.677 -1.531,2.232 -3.139,4.412 -4.754,6.585 -0.449,0.603 -1.037,1.103 -1.477,1.562 -3.41,-1.67 -6.545,-3.206 -9.989,-4.893 M 5.756,-74.79 c -0.224,-0.188 -0.376,-0.266 -0.451,-0.39 -0.122,-0.203 -0.218,-0.429 -0.284,-0.656 -1.291,-4.465 -2.812,-8.839 -5.392,-12.75 -0.69,-1.047 -0.586,-2.006 -0.376,-3.16 0.873,-4.789 1.885,-9.577 2.346,-14.413 0.901,-9.433 0.1,-18.832 -1.243,-28.191 -1.998,-13.93 -4.779,-27.714 -7.693,-41.473 -1.876,-8.854 -2.168,-17.756 -0.975,-26.706 1.255,-9.421 4.76,-18.082 9.555,-26.18 2.871,-4.848 7.793,-7.136 13.032,-8.704 0.15,-0.045 0.317,-0.037 0.476,-0.048 3.044,-0.204 5.234,2.307 4.371,5.247 -0.416,1.421 -1.213,2.771 -2.038,4.021 -0.877,1.327 -1.997,2.494 -3.002,3.737 -6.225,7.703 -9.846,16.671 -11.816,26.207 -1.954,9.459 -1.697,19.129 -0.467,28.67 1.349,10.456 3.15,20.856 4.882,31.259 1.512,9.075 2.988,18.134 2.558,27.392 -0.286,6.148 -0.51,12.302 -0.584,18.455 -0.074,6.04 -1.787,11.767 -2.899,17.683 m -351.373,39.611 c 0.914,-0.171 1.543,-0.418 2.153,-0.381 3.583,0.22 7.18,0.368 10.731,0.843 1.342,0.18 2.76,0.95 3.82,1.838 1.954,1.638 3.86,3.408 5.446,5.394 4.638,5.81 9.287,11.626 13.587,17.685 3.52,4.958 7.047,9.849 11.099,14.419 5.768,6.505 12.86,10.967 20.543,14.661 5.848,2.813 11.928,4.999 18.238,6.588 2.367,0.596 4.543,1.8 6.327,3.603 1.657,1.676 2.208,3.671 1.929,5.93 -0.277,2.238 -1.178,2.861 -3.361,2.487 -2.442,-0.418 -4.879,-0.89 -7.335,-1.204 -11.638,-1.49 -22.603,-4.823 -32.672,-11.058 -5.393,-3.338 -10.019,-7.31 -13.794,-12.42 -4.513,-6.109 -9.309,-12.009 -13.949,-18.025 -3.564,-4.619 -7.077,-9.277 -10.614,-13.916 -0.533,-0.7 -1.082,-1.387 -1.612,-2.089 -3.181,-4.205 -6.363,-8.409 -9.529,-12.625 -0.327,-0.435 -0.554,-0.944 -1.007,-1.73 m 289.875,61.525 c -0.441,1.192 -0.694,1.774 -0.872,2.377 -0.942,3.176 -3.062,4.94 -6.179,6.108 -6.186,2.316 -12.545,3.768 -19.049,4.677 -3.875,0.541 -7.761,1.275 -11.654,1.356 -14.31,0.296 -28.624,0.433 -42.937,0.485 -20.952,0.075 -41.905,0.135 -62.856,-0.011 -12.87,-0.09 -25.748,-0.313 -38.562,-1.784 -3.722,-0.427 -7.454,-0.756 -11.319,-1.144 1.144,-3.632 0.771,-7.002 -1.718,-10.211 0.719,0 1.096,-0.037 1.464,0.006 10.405,1.213 20.811,2.4 31.313,2.313 1.117,-0.009 2.239,0.071 3.353,0.172 5.811,0.526 11.611,1.27 17.433,1.568 9.66,0.495 19.335,0.696 29.003,1.042 18.795,0.672 37.563,0.211 56.306,-1.343 0.796,-0.066 1.59,-0.182 2.388,-0.22 2.145,-0.103 4.314,-0.417 6.433,-0.218 9.256,0.867 18.492,1.416 27.733,-0.146 4.253,-0.719 8.536,-1.235 12.61,-2.804 2.133,-0.822 4.37,-1.377 7.11,-2.223 M -436.739,3.252 c -0.113,-0.044 -0.225,-0.088 -0.338,-0.132 0.226,-2.277 0.364,-4.567 0.695,-6.828 1.111,-7.594 2.159,-15.202 3.487,-22.759 1.009,-5.738 2.265,-11.445 4.391,-16.907 0.579,-1.49 1.25,-2.943 1.815,-4.438 1.187,-3.145 2.365,-6.286 4.572,-8.911 0.405,-0.483 0.86,-1.051 0.964,-1.638 0.369,-2.091 1.848,-2.37 3.552,-2.396 3.838,-0.059 7.677,-0.194 11.515,-0.171 28.395,0.171 56.79,0.373 85.185,0.564 0.865,0.006 1.73,10e-4 2.274,10e-4 l 0,10.268 c -0.804,0 -1.514,-0.004 -2.224,10e-4 -14.958,0.106 -29.915,0.243 -44.873,0.309 -11.221,0.049 -22.354,1.218 -33.473,2.524 -5.183,0.609 -9.397,3.077 -12.273,7.518 -2.084,3.218 -4.08,6.494 -6.035,9.792 -3.491,5.888 -6.002,12.176 -7.536,18.854 -0.137,0.593 -0.348,1.267 -0.752,1.684 -1.605,1.657 -3.203,3.345 -4.986,4.799 -2.236,1.824 -3.708,4.152 -5.049,6.622 -0.243,0.448 -0.604,0.831 -0.911,1.244 m 354.268,45.357 c 0.058,0.123 0.116,0.246 0.173,0.369 -1.118,0.85 -2.224,1.716 -3.355,2.548 -7.315,5.382 -15.347,8.497 -24.594,7.716 -1.353,-0.115 -2.697,-0.352 -4.052,-0.432 -15.504,-0.918 -31.011,-1.028 -46.523,-0.16 -4.23,0.237 -8.469,0.51 -12.702,0.478 -9.519,-0.072 -19.039,-0.22 -28.553,-0.526 -20.013,-0.645 -39.964,-0.25 -59.898,2.003 -11.321,1.28 -21.138,5.152 -29.398,13.104 -4.095,3.942 -8.217,7.826 -11.756,12.289 -0.645,0.813 -1.43,1.515 -2.077,2.327 -1.887,2.37 -3.918,4.652 -5.568,7.18 -4.324,6.625 -8.488,13.353 -12.683,20.061 -0.592,0.948 -1.316,1.212 -2.396,1.14 -1.831,-0.123 -3.674,-0.063 -5.511,-0.118 -1.596,-0.049 -3.205,-0.052 -4.782,-0.268 -0.86,-0.118 -1.666,-0.638 -2.585,-1.013 1.293,-2.865 2.519,-5.38 3.575,-7.964 1.594,-3.904 3.979,-7.245 6.676,-10.46 3.543,-4.225 7,-8.54 10.204,-13.024 6.36,-8.901 13.817,-16.583 23.427,-21.971 3.485,-1.954 7.033,-3.819 10.659,-5.491 2.301,-1.06 4.76,-1.843 7.217,-2.48 4.917,-1.276 9.992,-1.278 15.02,-1.335 9.358,-0.106 18.718,-10e-4 28.077,0.009 14.399,0.015 28.805,-0.247 43.196,0.103 18.641,0.452 37.27,0.683 55.903,-0.134 7.831,-0.343 15.667,-0.628 23.488,-1.129 7.34,-0.471 14.667,-1.158 21.993,-1.825 2.286,-0.208 4.551,-0.657 6.825,-0.997 m 28.332,-28.832 c -0.095,2.16 -0.071,2.225 -1.4,2.708 -1.724,0.627 -3.516,1.069 -5.234,1.709 -8.644,3.218 -17.656,4.396 -26.791,4.697 -3.664,0.12 -7.354,-0.214 -11.019,-0.507 -10.917,-0.874 -21.816,-2.015 -32.744,-2.7 -10.451,-0.655 -20.926,-1.035 -31.396,-1.238 -14.392,-0.28 -28.755,-0.544 -43.056,-2.624 -7.737,-1.126 -15.617,-1.234 -23.42,-1.942 -10.143,-0.92 -20.167,-2.484 -29.563,-6.691 -1.878,-0.841 -3.688,-1.924 -5.33,-3.159 -0.966,-0.727 -1.888,-1.871 -2.225,-3.007 -1.244,-4.201 -2.523,-8.428 -3.252,-12.736 -0.957,-5.663 -1.478,-11.404 -2.044,-17.125 -0.282,-2.855 -0.276,-5.74 -0.331,-8.612 -0.013,-0.669 0.254,-1.343 0.417,-2.137 3.677,0.088 7.15,0.003 10.687,0.884 0.105,3.38 0.083,6.556 -0.374,9.723 -0.851,5.898 -0.925,11.78 0.226,17.659 0.465,2.38 1.463,4.483 3.402,5.883 2.387,1.723 4.832,3.511 7.516,4.646 3.663,1.548 7.515,2.774 11.397,3.646 4.351,0.977 8.808,1.577 13.25,2.039 12.011,1.248 24.043,2.199 36.132,2.351 9.995,0.126 19.992,0.311 29.98,0.674 10.227,0.372 20.442,1.056 30.667,1.489 13.74,0.582 27.491,0.947 41.226,1.628 5.411,0.268 10.791,1.156 16.189,1.719 3.65,0.38 7.304,0.745 10.964,0.998 1.981,0.137 3.979,0.025 6.126,0.025 m -219.24,99.73 c -0.212,-2.344 -0.427,-4.246 -0.548,-6.154 -0.346,-5.43 -0.564,-10.864 0.365,-16.264 0.677,-3.929 1.332,-7.865 2.139,-11.768 0.396,-1.919 1.563,-3.462 3.056,-4.764 4.495,-3.922 9.912,-5.828 15.629,-6.806 4.873,-0.834 9.817,-1.36 14.751,-1.709 9.97,-0.705 19.953,-1.253 29.936,-1.763 11.741,-0.601 23.49,-1.057 35.232,-1.643 13.659,-0.682 27.312,-1.476 40.971,-2.147 10.894,-0.535 21.642,-2.072 32.268,-4.479 4.959,-1.123 9.674,-2.926 13.74,-6.032 4.421,-3.378 9.319,-5.876 14.304,-8.242 4.326,-2.052 8.015,-4.978 11.325,-8.37 2.002,-2.052 4.274,-4.066 5.549,-6.547 1.96,-3.812 4.254,-7.623 4.461,-12.13 0.003,-0.064 0.095,-0.124 0.28,-0.35 3.542,0.554 7.19,1.124 10.916,1.707 -0.745,1.453 -1.391,2.712 -2.038,3.971 -0.8,1.556 -1.475,3.194 -2.426,4.652 -3.24,4.969 -7.071,9.468 -11.016,13.897 -3.878,4.353 -7.453,8.975 -11.182,13.462 -2.553,3.072 -5.05,6.197 -7.741,9.144 -2.575,2.82 -5.814,4.701 -9.435,5.965 -4.635,1.618 -9.424,2.462 -14.265,3.11 -8.717,1.167 -17.409,2.599 -26.226,2.774 -21.111,0.42 -42.224,0.787 -63.336,1.164 -1.198,0.021 -2.398,-0.061 -3.598,-0.089 -10.793,-0.255 -21.586,-0.688 -32.38,-0.696 -6.625,-0.006 -13.254,0.586 -19.875,1.011 -4.181,0.268 -7.954,1.804 -11.215,4.409 -1.156,0.922 -2.357,2.099 -2.897,3.421 -1.444,3.539 -2.928,7.142 -3.688,10.863 -1.252,6.122 -1.443,12.378 -0.852,18.627 0.227,2.402 -0.105,2.96 -2.545,2.836 -3.17,-0.161 -6.321,-0.677 -9.659,-1.06 M -427.311,-2.612 c -0.437,5.971 -0.72,11.8 -1.319,17.596 -1.137,11 -1.442,22.033 -1.313,33.068 0.12,10.306 0.48,20.62 1.092,30.909 0.652,10.962 2.517,21.75 6.176,32.158 1.299,3.698 3.086,7.049 6.964,8.72 0.353,0.152 0.596,0.541 0.939,0.734 1.594,0.896 3.113,2.095 4.83,2.572 4.07,1.129 8.219,2.001 12.37,2.801 2.9,0.559 5.86,0.807 8.788,1.229 8.788,1.266 17.576,2.513 26.479,2.648 3.678,0.056 7.356,0.163 11.031,0.313 11.747,0.481 23.497,0.902 35.237,1.521 9.344,0.493 18.67,1.322 28.012,1.856 13.595,0.778 27.19,0.562 40.766,-0.457 8.3,-0.623 16.552,-1.642 24.644,-3.691 4.261,-1.079 7.86,-3.174 10.28,-6.944 3.369,-5.249 6.699,-10.511 8.219,-16.694 0.838,-3.411 1.94,-6.758 2.933,-10.131 0.314,-1.065 0.511,-2.171 1.927,-2.454 2.839,-0.566 5.668,-0.451 8.587,-0.39 -0.297,6.631 -1.24,12.861 -2.344,19.076 -0.293,1.647 -0.383,3.33 -0.561,4.997 -0.212,1.985 -0.382,3.974 -0.636,5.953 -0.513,4.004 -2.597,6.937 -6.433,8.215 -6.363,2.12 -12.715,4.404 -19.238,5.889 -12.137,2.763 -24.555,3.239 -36.964,3.412 -8.318,0.116 -16.639,0.167 -24.959,0.129 -7.517,-0.034 -15.049,0.019 -22.548,-0.414 -10.217,-0.591 -20.409,-1.607 -30.612,-2.443 -16.099,-1.318 -32.201,-2.597 -48.295,-3.97 -14.023,-1.195 -28.037,-2.498 -42.055,-3.749 -2.333,-0.209 -4.544,-0.797 -6.682,-1.785 -1.523,-0.703 -2.386,-1.736 -2.696,-3.381 -0.34,-1.804 -0.869,-3.572 -1.253,-5.368 -1.018,-4.769 -1.938,-9.523 -1.882,-14.465 0.054,-4.708 -0.294,-9.429 -0.655,-14.129 -0.576,-7.493 -1.589,-14.962 -1.902,-22.462 -0.346,-8.303 -0.152,-16.63 -0.122,-24.946 0.03,-8.494 0.853,-16.935 2.051,-25.332 0.435,-3.045 0.757,-6.242 3.179,-8.609 0.159,-0.156 0.201,-0.431 0.302,-0.648 0.874,-1.877 1.679,-3.79 2.642,-5.62 1.195,-2.27 2.658,-4.353 5.021,-5.714 m 299.894,32.092 c 0.013,0.204 0.027,0.408 0.041,0.613 -1.649,0.095 -3.3,0.303 -4.946,0.268 -19.029,-0.403 -38.057,-0.823 -57.084,-1.293 -3.675,-0.09 -7.375,-0.188 -11.012,-0.674 -11.516,-1.541 -23.126,-1.597 -34.69,-2.3 -14.016,-0.852 -27.535,-3.352 -40.467,-9.067 -10.196,-4.506 -18.656,-11.071 -25.522,-19.74 -3.869,-4.885 -7.463,-9.987 -11.264,-14.928 -4.434,-5.764 -8.906,-11.501 -13.49,-17.146 -0.908,-1.118 -2.314,-1.931 -3.637,-2.592 -3.157,-1.575 -6.67,-1.556 -10.08,-1.776 -2.211,-0.142 -4.477,0.069 -6.679,0.393 -3.244,0.479 -4.083,2.327 -2.333,5.061 1.636,2.556 3.384,5.049 5.214,7.47 0.995,1.316 1.412,2.708 1.138,4.253 -0.235,1.324 -0.536,2.692 -1.122,3.886 -2.227,4.539 -5.492,8.04 -10.434,9.674 -1.894,0.626 -3.788,1.319 -5.736,1.707 -3.695,0.736 -7.466,1.343 -11.136,-0.005 -3.668,-1.349 -7.359,-2.709 -10.852,-4.442 -6.969,-3.459 -14.248,-5.643 -22.003,-6.245 -1.927,-0.149 -3.83,-0.163 -5.67,0.584 -3.33,1.351 -6.669,2.681 -10.01,4.008 -0.475,0.189 -0.977,0.312 -1.79,0.566 0.269,-1.073 0.414,-1.837 0.651,-2.572 2.783,-8.605 7.174,-16.375 12.405,-23.695 2.005,-2.805 4.823,-4.464 8.189,-4.975 3.631,-0.552 7.308,-0.797 10.954,-1.26 8.265,-1.05 16.572,-1.402 24.89,-1.476 12.796,-0.115 25.593,-0.138 38.39,-0.202 2.479,-0.013 4.959,10e-4 7.437,-0.065 1.112,-0.03 1.946,0.216 2.685,1.159 2.317,2.955 5.538,4.613 9.061,5.53 7.601,1.978 15.312,2.247 23.076,0.984 4.021,-0.654 8.056,-1.227 12.081,-1.86 5.439,-0.854 10.851,0.167 16.274,0.282 1.782,0.038 3.682,0.386 5.167,1.653 2.898,2.473 3.958,8.043 2.213,11.471 -0.603,1.185 -1.451,1.792 -2.864,1.687 -3.639,-0.273 -6.204,-2.601 -6.676,-6.177 -0.416,-3.157 -1.691,-4.562 -4.899,-4.903 -3.015,-0.321 -6.057,-0.475 -9.09,-0.531 -2.943,-0.055 -4.042,0.943 -4.298,3.954 -0.208,2.462 -0.34,4.967 -0.132,7.422 0.492,5.808 1.272,11.591 1.808,17.395 0.422,4.57 1.804,8.916 2.78,13.359 1.17,5.326 4.423,8.85 9.258,10.846 4.273,1.763 8.66,3.343 13.122,4.535 7.822,2.089 15.864,2.911 23.935,3.453 6.302,0.424 12.657,0.594 18.877,1.576 11.423,1.804 22.917,2.179 34.422,2.55 10.709,0.345 21.425,0.477 32.134,0.8 3.909,0.117 7.809,0.515 11.714,0.785 m 2.732,32.491 c -0.008,0.127 -0.016,0.254 -0.023,0.381 -0.588,0.074 -1.174,0.182 -1.763,0.218 -5.19,0.316 -10.378,0.652 -15.57,0.92 -15.656,0.809 -31.313,1.584 -46.97,2.381 -17.013,0.865 -34.029,1.688 -51.038,2.633 -8.333,0.462 -16.579,1.559 -24.247,5.167 -5.484,2.581 -10.001,6.136 -11.114,12.568 -0.748,4.321 -1.249,8.684 -1.943,13.016 -1.064,6.64 -0.157,13.249 0.271,19.86 0.162,2.509 1.205,3.429 3.775,3.905 1.494,0.276 2.992,0.575 4.502,0.696 2.301,0.184 4.618,0.36 6.919,0.283 2.262,-0.076 4.262,-0.767 4.811,-3.444 0.119,-0.583 0.622,-1.106 1.006,-1.612 2.14,-2.815 3.467,-5.855 3.314,-9.518 -0.091,-2.182 1.254,-3.854 2.683,-5.439 1.33,-1.474 2.915,-1.812 4.758,-1.602 0.633,0.072 1.283,0.009 1.916,0.083 2.894,0.342 5.219,1.656 6.45,4.354 0.651,1.426 1.019,3.016 1.298,4.57 0.506,2.825 1.886,5.039 4.118,6.807 3.596,2.845 7.651,3.848 12.156,3.206 1.055,-0.151 2.114,-0.268 3.441,-0.435 -1.954,2.734 -4.481,4.204 -7.993,5.041 -7.882,1.878 -15.887,2.856 -23.951,3.474 -12.62,0.967 -25.255,1.16 -37.887,0.508 -10.302,-0.532 -20.584,-1.475 -30.886,-2.01 -12.618,-0.657 -25.247,-1.08 -37.872,-1.601 -5.752,-0.237 -11.534,-0.18 -17.25,-0.766 -9.303,-0.952 -18.571,-2.267 -27.838,-3.535 -6.363,-0.871 -12.254,-2.742 -16.816,-7.749 -1.339,-1.469 -2.365,-2.921 -2.991,-4.752 -1.58,-4.62 -2.706,-9.335 -3.649,-14.136 -1.502,-7.64 -2.349,-15.34 -2.761,-23.08 -0.417,-7.822 -0.486,-15.665 -0.598,-23.5 -0.057,-3.994 0.071,-7.994 0.214,-11.988 0.202,-5.674 0.457,-11.347 0.762,-17.017 0.224,-4.151 0.497,-8.303 0.871,-12.444 0.389,-4.294 0.677,-8.604 1.875,-12.795 0.458,-1.605 1.247,-2.613 2.822,-3.213 3.582,-1.364 7.144,-2.792 10.657,-4.326 1.591,-0.695 3.164,-1.005 4.881,-0.9 7.269,0.443 14.178,2.208 20.793,5.281 3.326,1.544 6.821,2.722 10.208,4.142 3.831,1.606 7.824,1.769 11.793,1.055 3.204,-0.576 6.394,-1.464 9.45,-2.593 6.285,-2.322 10.121,-7.039 12.158,-13.32 0.138,-0.425 0.272,-0.851 0.538,-1.688 1.37,1.683 2.549,3.065 3.656,4.503 2.339,3.04 4.524,6.206 6.983,9.144 5.338,6.382 10.719,12.717 15.148,19.799 1.311,2.096 2.877,4.037 4.383,6.006 2.155,2.818 4.716,5.212 7.668,7.191 7.885,5.287 16.181,9.618 25.477,11.988 5.757,1.468 11.599,2.288 17.433,3.24 0.485,0.079 0.948,0.296 1.422,0.449 -1.003,0.814 -2.011,1.419 -3.068,1.52 -2.209,0.213 -4.5,0.499 -6.658,0.145 -3.935,-0.644 -7.835,-1.594 -11.681,-2.663 -6.991,-1.941 -14.051,-1.984 -21.18,-1.206 -4.561,0.497 -7.984,2.772 -10.175,6.738 -1.075,1.944 -1.969,4.041 -2.586,6.173 -0.955,3.305 -0.441,6.252 2.575,8.542 1.828,1.388 3.838,2.101 6.329,2.547 -0.55,0.468 -0.837,0.719 -1.132,0.962 -6.269,5.167 -11.719,11.067 -16.445,17.694 -3.199,4.486 -6.704,8.761 -10.207,13.019 -2.194,2.668 -4.331,5.351 -5.807,8.486 -1.532,3.255 -3.006,6.538 -4.465,9.826 -1.042,2.348 -0.584,3.868 1.491,5.401 1.77,1.307 3.845,1.533 5.925,1.604 2.796,0.095 5.613,-0.122 8.393,0.118 2.814,0.244 4.45,-0.975 5.797,-3.283 2.578,-4.413 5.285,-8.755 8.034,-13.065 3.827,-6.001 7.728,-11.956 12.889,-16.948 0.057,-0.056 0.109,-0.118 0.157,-0.182 3.748,-5.059 8.553,-9.07 13.268,-13.14 5.243,-4.527 11.268,-7.712 18.219,-8.523 9.924,-1.158 19.866,-2.384 29.835,-2.884 10.054,-0.505 20.152,-0.248 30.23,-0.162 11.037,0.094 22.073,0.402 33.111,0.555 3.436,0.048 6.889,0.065 10.312,-0.199 12.542,-0.965 25.098,-0.831 37.656,-0.715 0.579,0.006 1.156,0.153 1.733,0.234 M 34.883,-36.958 c -1.327,-2.858 -2.595,-5.592 -4.037,-8.7 2.945,-4.822 5.585,-10.306 10.484,-14.229 2.114,-1.693 4.069,-3.604 5.962,-5.547 2.227,-2.286 4.623,-4.032 7.903,-4.625 2.816,-0.509 5.522,-1.6 8.299,-2.351 3.466,-0.937 6.924,-1.958 10.447,-2.61 1.834,-0.339 3.87,-0.266 5.693,0.151 4.436,1.015 8.782,2.416 13.205,3.493 1.343,0.327 2.826,0.188 4.233,0.091 0.577,-0.04 1.27,-0.403 1.659,-0.842 3.009,-3.388 5,-7.237 4.746,-11.908 -0.146,-2.692 -1.385,-4.778 -4.113,-5.592 -2.209,-0.659 -4.439,-1.326 -6.707,-1.687 -4.893,-0.777 -9.803,-1.501 -14.732,-1.987 -6.193,-0.609 -12.259,0.253 -18.246,1.969 -5.061,1.45 -9.361,4.396 -14.272,6.887 0.361,-1.681 0.675,-3.117 0.977,-4.556 2.052,-9.801 2.697,-19.695 0.791,-29.544 -1.086,-5.615 -2.523,-11.216 -5.132,-16.42 -1.215,-2.425 -2.12,-5.003 -3.183,-7.505 -4.317,-10.162 -11.855,-17.292 -21.312,-22.609 -1.115,-0.626 -2.264,-1.192 -3.376,-1.824 -2.911,-1.655 -5.809,-3.332 -9.038,-5.187 -0.141,-2.095 -0.326,-4.545 -0.468,-6.998 -0.827,-14.283 1.969,-27.691 9.818,-39.818 1.515,-2.339 3.389,-4.449 5.136,-6.634 1.468,-1.837 2.627,-3.814 3.122,-6.14 1.122,-5.28 -3.16,-10.078 -8.504,-9.336 -1.787,0.248 -3.598,0.859 -5.22,1.664 -3.504,1.74 -6.982,3.589 -9.487,6.76 -0.445,0.563 -0.918,1.119 -1.27,1.739 -5.332,9.409 -9.37,19.287 -10.41,30.158 -0.678,7.099 -0.856,14.215 0.553,21.276 0.203,1.015 0.32,2.048 0.512,3.302 -0.604,-0.033 -1.15,0.055 -1.608,-0.107 -4.271,-1.506 -8.77,-1.845 -13.2,-2.316 -2.568,-0.272 -5.258,0.237 -7.85,0.661 -4.179,0.684 -8.317,1.611 -12.481,2.39 -2.155,0.404 -4.147,1.15 -5.962,2.393 -1.208,0.828 -1.857,1.929 -1.958,3.391 -0.213,3.101 0.409,6.066 1.602,8.89 0.917,2.169 2.586,2.992 4.874,2.338 4.777,-1.366 9.61,-2.419 14.55,-2.923 4.077,-0.417 8.135,-0.37 12.046,1.114 4.182,1.588 8.343,3.234 12.551,4.751 1.366,0.492 2.064,1.238 2.276,2.689 1.397,9.572 3.205,19.1 4.19,28.713 0.971,9.481 0.599,19.017 -1.458,28.403 -0.08,0.367 -0.205,0.724 -0.392,1.378 -1.654,-1.937 -3.259,-3.592 -4.607,-5.435 -4.669,-6.383 -9.769,-12.497 -13.326,-19.617 -3.4,-6.807 -6.117,-13.895 -7.906,-21.318 -0.392,-1.629 -0.915,-3.229 -1.439,-4.823 -0.856,-2.597 -4.311,-4.448 -7.211,-3.888 -0.862,0.166 -1.708,0.423 -2.572,0.581 -2.622,0.478 -4.028,2.056 -3.941,4.824 0.143,4.557 0.449,9.107 1.578,13.555 2.498,9.851 6.33,19.094 12.279,27.412 5.179,7.241 9.259,15.128 13.265,23.052 1.335,2.64 2.69,5.271 4.121,7.859 0.537,0.972 0.646,1.848 0.463,2.952 -0.592,3.56 -2.381,6.57 -4.089,9.774 -2.585,-0.242 -5.136,-0.395 -7.66,-0.737 -4.026,-0.545 -7.617,0.72 -10.967,2.673 -1.084,0.632 -1.894,1.926 -2.535,3.08 -0.889,1.6 -1.494,3.356 -2.23,5.041 -0.363,0.832 -0.791,1.6 -1.891,1.532 -4.507,-0.279 -8.602,1.637 -12.898,2.479 -1.197,0.234 -2.131,0.381 -3.041,-0.551 -0.442,-0.453 -1.006,-0.789 -1.524,-1.165 -6.822,-4.952 -17.221,-1.868 -20.223,6.013 -0.311,0.817 -0.539,1.679 -0.689,2.541 -0.462,2.656 0.336,4.794 2.418,6.619 3.198,2.804 6.743,3.848 10.882,2.808 1.162,-0.293 2.327,-0.576 3.498,-0.833 2.36,-0.518 4.687,-0.801 7.095,-0.011 1.26,0.414 2.677,0.351 4.024,0.497 0.6,0.064 1.201,0.112 2.069,0.192 -0.933,3.268 -1.797,6.291 -2.703,9.464 -1.89,-0.287 -3.605,-0.644 -5.337,-0.79 -2.626,-0.221 -5.262,-0.334 -7.896,-0.422 -2.435,-0.082 -4.314,1.059 -5.749,2.94 -1.875,2.458 -2.554,5.331 -2.466,8.344 0.029,0.967 0.571,1.988 1.09,2.857 1.178,1.971 2.488,3.863 3.834,5.925 -0.988,0.221 -1.896,0.433 -2.807,0.626 -3.651,0.772 -7.039,2.142 -9.906,4.576 -0.904,0.768 -1.697,1.703 -2.401,2.663 -1.777,2.423 -1.763,3.769 -0.115,6.325 0.118,0.183 0.179,0.404 0.397,0.912 -1.36,-0.077 -2.52,-0.143 -3.68,-0.209 -4.391,-0.249 -8.78,-0.529 -13.172,-0.742 -13.101,-0.635 -26.201,-1.303 -39.306,-1.844 -11.268,-0.465 -22.543,-0.781 -33.815,-1.146 -10.232,-0.331 -20.481,-0.387 -30.693,-1.033 -9.408,-0.596 -18.789,-1.71 -28.157,-2.804 -5.189,-0.605 -10.049,-2.635 -14.91,-4.426 -2.346,-0.865 -4.496,-2.455 -6.478,-4.038 -1.037,-0.829 -1.9,-2.268 -2.189,-3.576 -1.432,-6.481 -0.989,-12.99 0.073,-19.712 0.725,0.274 1.282,0.512 1.857,0.696 1.59,0.506 3.158,1.153 4.789,1.443 2.572,0.458 4.505,-0.613 5.774,-2.882 2.538,-4.536 1.741,-10.917 -1.747,-14.742 -2,-2.192 -4.677,-2.78 -7.363,-3.05 -3.97,-0.401 -7.975,-0.47 -11.967,-0.649 -5.169,-0.232 -10.135,1.293 -15.221,1.798 -3.496,0.346 -6.981,0.867 -10.484,1.066 -4.498,0.255 -8.943,-0.422 -13.303,-1.483 -2.126,-0.518 -4.18,-1.363 -6.223,-3.144 0.897,-0.096 1.338,-0.181 1.779,-0.185 8.799,-0.084 17.598,-0.267 26.395,-0.209 11.124,0.074 22.199,0.98 33.279,1.984 10.134,0.919 20.105,2.847 30.163,4.214 2.484,0.337 4.901,1.42 7.247,2.405 0.957,0.402 1.812,1.337 2.42,2.23 1.629,2.392 2.834,5.007 3.355,7.886 0.742,4.09 1.378,8.202 2.219,12.271 0.516,2.497 1.317,4.935 2.015,7.393 0.611,2.15 1.244,4.295 1.889,6.435 0.912,3.027 2.485,4.193 5.601,4.175 0.559,-0.003 1.119,-0.052 1.678,-0.052 3.007,0 3.705,-0.593 4.281,-3.608 1.074,-5.63 1.231,-11.207 -0.084,-16.873 -1.044,-4.503 -1.52,-9.136 -2.283,-13.706 -1.351,-8.089 -3.784,-15.842 -7.298,-23.255 -0.994,-2.099 -2.47,-3.258 -4.935,-3.58 -5.702,-0.745 -11.343,-1.953 -17.044,-2.716 -10.512,-1.406 -20.629,-4.392 -30.619,-7.74 -4.119,-1.381 -8.138,-3.481 -11.717,-5.957 -6.75,-4.669 -10.463,-11.503 -11.986,-19.506 -0.357,-1.875 -0.438,-3.815 -0.496,-5.73 -0.032,-1.065 0.246,-2.14 0.836,-3.231 0.707,1.84 1.256,3.761 2.154,5.502 1.974,3.827 3.981,7.652 6.244,11.311 2.446,3.957 6.498,6.091 10.45,8.202 8.223,4.39 17.018,5.826 26.246,4.769 0.555,-0.063 1.117,-0.147 1.65,-0.306 7.394,-2.201 14.654,-4.938 20.67,-9.775 4.858,-3.905 8.509,-9.002 10.57,-15.136 1.003,-2.985 1.704,-5.985 2.189,-9.058 0.62,-3.918 -0.376,-5.069 -4.298,-4.761 -5.991,0.471 -11.975,0.621 -17.974,0.215 -1.74,-0.118 -2.51,0.441 -2.652,2.328 -0.323,4.317 -2.735,7.614 -5.13,10.894 -2.262,3.098 -5.761,4.457 -9.138,5.916 -0.349,0.151 -0.79,0.156 -1.181,0.13 -4.575,-0.308 -9.04,-1.066 -13.176,-3.198 -3.044,-1.569 -5.245,-3.977 -6.56,-7.075 -3.591,-8.459 -6.165,-17.157 -5.498,-26.508 0.102,-1.434 0.351,-2.857 0.459,-4.29 0.349,-4.613 0.737,-9.224 0.969,-13.843 0.237,-4.701 1.69,-8.98 4.456,-12.719 3.201,-4.328 6.827,-8.294 11.768,-10.733 1.199,-0.591 2.535,-1.153 3.84,-1.236 4.109,-0.263 8.148,0.219 11.937,1.999 3.776,1.773 5.825,5.151 7.737,8.581 0.966,1.732 1.626,3.642 2.338,5.505 0.658,1.725 0.993,2.04 2.801,1.791 3.88,-0.533 7.764,-1.052 11.624,-1.709 3.643,-0.62 6.885,0.432 9.703,2.502 5.114,3.755 9.029,8.471 11.323,14.549 1.433,3.796 3.266,7.489 5.331,10.986 2.237,3.788 5.534,6.341 10.202,6.699 4.296,0.329 8.573,0.924 12.872,1.167 2.051,0.116 4.197,-0.063 6.186,-0.565 2.203,-0.557 3.715,0.195 5.143,1.635 2.273,2.292 3.572,5.077 4.155,8.222 0.145,0.786 0.266,1.577 0.393,2.367 1.033,6.452 -1.825,11.191 -7.91,13.569 -2.905,1.135 -5.793,1.573 -8.897,1.406 -4.043,-0.217 -6.714,-2.278 -8.548,-5.666 -0.683,-1.262 -1.203,-2.613 -1.797,-3.923 -0.922,-2.03 -2.453,-3.105 -4.726,-2.993 -2.716,0.134 -5.429,0.348 -8.146,0.396 -1.74,0.031 -3.489,-0.124 -5.224,-0.293 -1.367,-0.132 -2.196,0.215 -2.426,1.641 -0.238,1.479 -0.297,3.039 -0.111,4.523 0.297,2.375 0.741,4.747 1.337,7.065 1.239,4.82 3.419,9.114 7.397,12.319 1.617,1.304 3.141,2.725 4.783,3.995 6.294,4.87 13.445,6.019 21.104,4.646 3.061,-0.549 6.028,-1.422 8.992,-2.458 5.093,-1.781 8.993,-5.229 12.794,-8.683 3.231,-2.935 5.524,-6.684 6.779,-11.099 1.505,-5.291 2.068,-10.655 2.353,-16.083 0.079,-1.498 -0.241,-3.012 -0.279,-4.522 -0.054,-2.074 -0.101,-4.154 0.009,-6.224 0.151,-2.869 0.415,-5.733 0.699,-8.593 0.231,-2.317 -0.869,-4.175 -1.938,-6.051 -0.351,-0.615 -0.812,-1.168 -1.248,-1.787 2.255,-4.116 4.362,-8.227 5.43,-12.788 0.666,-2.848 0.965,-5.705 0.262,-8.551 -1.052,-4.261 -2.16,-8.514 -3.424,-12.716 -0.94,-3.125 -2.908,-5.66 -5.254,-7.909 -4.786,-4.59 -10.245,-8.197 -16.309,-10.818 -1.869,-0.807 -4.008,-1.345 -6.031,-1.371 -5.459,-0.069 -10.887,0.467 -15.753,3.282 -2.064,1.194 -3.945,2.699 -5.939,4.017 -2.151,1.422 -3.917,3.217 -5.586,5.176 -1.172,1.376 -2.688,2.458 -4.047,3.676 -2.494,2.236 -3.507,5.289 -4.551,8.317 -0.312,0.905 -0.533,1.842 -0.784,2.767 -0.818,3.018 0.774,4.973 3.897,4.943 3.993,-0.037 7.99,-0.035 11.981,0.081 1.569,0.046 2.587,-0.405 3.211,-1.879 0.927,-2.19 2.435,-3.891 4.486,-5.145 2.242,-1.371 4.381,-2.915 6.658,-4.224 0.931,-0.535 2.092,-0.86 3.169,-0.924 5.821,-0.347 11.046,2.548 13.239,8.572 0.993,2.728 1.828,5.415 1.622,8.389 -0.371,5.352 -2.465,9.408 -7.55,11.822 -4.002,1.9 -8.109,2.891 -12.504,2.756 -1.615,-0.049 -2.355,0.469 -2.56,2.013 -0.041,0.311 -0.026,0.644 0.036,0.953 0.878,4.369 -0.546,8.538 -1.013,13.055 -2.867,-0.373 -5.661,-0.54 -8.358,-1.141 -2.643,-0.589 -4.458,-2.529 -5.611,-4.901 -1.884,-3.879 -3.662,-7.813 -5.357,-11.779 -2.834,-6.632 -7.454,-11.685 -13.511,-15.456 -1.124,-0.7 -2.505,-1.036 -3.808,-1.388 -1.15,-0.31 -1.673,-0.891 -1.904,-2.097 -1.535,-8.001 -5.366,-14.819 -10.994,-20.642 -3.082,-3.188 -7.136,-4.801 -11.113,-6.484 -4.599,-1.947 -9.314,-3.496 -14.408,-2.959 -2.855,0.302 -5.688,0.824 -8.526,1.28 -2.682,0.432 -5.342,1.043 -8.038,1.332 -3.934,0.421 -7.128,2.053 -9.805,4.965 -2.323,2.528 -4.839,4.879 -7.281,7.298 -2.556,2.533 -4.227,5.539 -5.265,8.998 -2.554,8.503 -3.242,17.257 -3.745,26.045 -0.202,3.512 -0.383,7.026 -0.524,10.541 -0.261,6.563 -0.296,13.113 0.98,19.605 0.16,0.81 0.153,1.839 -0.214,2.538 -3.215,6.138 -2.524,12.443 -0.689,18.689 1.573,5.353 4.356,10.139 8.264,14.165 1.436,1.479 3.028,2.924 4.805,3.934 4.925,2.801 9.81,5.75 15.424,7.075 0.522,0.123 1.023,0.332 1.517,0.838 -0.492,0.053 -0.984,0.153 -1.475,0.152 -16.079,-0.024 -32.158,-0.111 -48.236,-0.075 -15.679,0.036 -31.358,0.347 -47.035,0.264 -20.477,-0.107 -40.953,-0.515 -61.43,-0.719 -4.553,-0.045 -9.109,0.27 -13.665,0.321 -2.727,0.03 -4.339,1.754 -5.937,3.565 -0.202,0.228 -0.461,0.634 -0.384,0.842 0.592,1.589 -0.707,2.457 -1.277,3.606 -0.887,1.789 -1.804,3.568 -2.581,5.405 -4.142,9.779 -6.728,19.957 -7.978,30.507 -0.611,5.157 -1.735,10.254 -2.341,15.411 -0.932,7.941 -1.448,15.931 -2.448,23.862 -1.634,12.964 -2.244,25.977 -2.104,39.019 0.073,6.787 0.643,13.573 1.125,20.35 0.551,7.735 1.253,15.459 1.888,23.189 0.02,0.239 0.041,0.481 0.022,0.719 -0.585,7.29 0.968,14.311 2.667,21.315 0.019,0.077 0.067,0.151 0.072,0.228 0.352,5.759 4.412,7.779 9.188,8.855 2.481,0.558 5.065,0.693 7.61,0.933 14.967,1.411 29.934,2.821 44.905,4.178 6.53,0.592 13.07,1.072 19.608,1.576 12.998,1.001 26.019,1.756 38.989,3.036 13.967,1.379 27.951,1.382 41.947,1.356 7.52,-0.014 15.043,0.06 22.558,-0.152 11.919,-0.335 23.856,-0.879 35.494,-3.689 6.198,-1.497 12.257,-3.626 18.301,-5.696 5.265,-1.803 8.135,-5.731 8.803,-11.229 0.25,-2.056 0.271,-4.139 0.494,-6.199 0.31,-2.857 0.651,-5.712 1.086,-8.551 0.765,-4.984 1.477,-9.965 1.391,-15.028 -0.031,-1.861 -0.124,-2.429 -1.871,-2.736 -2.574,-0.453 -5.223,-0.489 -7.842,-0.676 -0.391,-0.028 -0.792,0.102 -1.191,0.127 -3.027,0.191 -4.744,1.815 -5.586,4.709 -1.316,4.527 -2.857,8.988 -4.217,13.504 -0.937,3.112 -2.547,5.852 -4.38,8.483 -0.303,0.434 -0.765,0.928 -1.239,1.043 -4.374,1.063 -8.745,1.982 -13.109,-0.165 -3.249,-1.598 -5.284,-3.998 -5.82,-7.659 -0.576,-3.934 -2.565,-7.029 -5.967,-9.122 -2.935,-1.806 -6.244,-2.027 -9.518,-1.647 -2.451,0.285 -3.994,2.273 -5.379,4.126 -1.556,2.082 -2.482,4.433 -2.346,7.146 0.09,1.778 -0.08,1.993 -1.107,3.826 -0.106,-0.664 -0.225,-1.074 -0.23,-1.486 -0.083,-6.184 0.221,-12.318 2.462,-18.188 0.569,-1.492 1.009,-3.051 1.747,-4.454 0.501,-0.953 1.309,-1.831 2.171,-2.491 2.451,-1.874 5.215,-3.086 8.322,-3.423 9.876,-1.071 19.782,-1.464 29.708,-1.141 18.87,0.613 37.737,1.053 56.617,0.388 8.873,-0.313 17.755,-0.467 26.633,-0.509 10.511,-0.049 20.907,-1.243 31.283,-2.73 3.477,-0.498 6.947,-1.041 10.286,-1.543 1.689,1.778 3.37,3.457 4.948,5.228 2.559,2.875 5.867,3.464 9.407,2.995 2.204,-0.292 4.352,-1.014 6.521,-1.558 0.775,-0.194 1.563,-0.371 2.303,-0.664 1.942,-0.768 3.488,-0.428 4.888,1.223 0.81,0.955 1.946,1.652 2.99,2.388 1.556,1.097 3.322,1.587 5.219,1.416 1.35,-0.122 2.725,-0.238 4.024,-0.594 4.932,-1.347 10.035,-2.446 14.2,-5.563 2.254,-1.687 4.386,-2.36 7.171,-2.149 4.214,0.32 8.238,-0.986 12.149,-2.415 2.379,-0.868 4.322,-2.506 5.559,-4.74 1.993,-3.597 4.651,-6.677 7.162,-9.892 2.74,-3.508 5.198,-7.237 8.023,-11.215 0.785,0.038 2.047,0.131 3.31,0.152 1.434,0.023 2.897,0.155 4.3,-0.062 4.353,-0.673 6.612,-3.915 5.793,-8.271 -0.218,-1.157 -0.742,-2.268 -1.215,-3.362 -0.407,-0.939 -0.94,-1.823 -1.509,-2.906 2.035,-0.673 4.136,-0.889 5.53,-2.663 1.385,-1.761 2.458,-3.649 2.287,-5.892 -0.156,-2.041 -0.714,-4.051 -1.124,-6.233 0.465,-0.184 1.031,-0.45 1.622,-0.635 2.465,-0.771 3.746,-2.419 3.559,-5.011 -0.212,-2.942 -0.531,-5.877 -0.848,-8.81 -0.086,-0.79 -0.331,-1.562 -0.503,-2.341 3.556,-1.023 6.41,-2.965 8.429,-6.072 1.676,-2.578 1.957,-5.359 1.211,-8.285 -0.158,-0.618 -0.356,-1.231 -0.591,-1.825 -3.061,-7.728 -6.133,-15.452 -9.2,-23.177 -0.163,-0.413 -0.31,-0.832 -0.629,-1.689 2.23,1.243 4.17,1.196 6.129,0.661 0.959,-0.261 1.647,0.035 2.296,0.814 1.018,1.224 2.096,2.418 3.273,3.488 2.49,2.262 5.583,2.217 8.62,1.828 1.641,-0.21 2.52,-1.571 2.915,-3.162 0.483,-1.951 0.059,-3.681 -1.434,-5.031 -2.191,-1.982 -4.81,-2.847 -7.748,-2.49 -1.817,0.221 -3.611,0.628 -5.623,0.988"
             style="fill:#ffffff;fill-opacity:1;fill-rule:nonzero;stroke:none"
             id="path22"
             inkscape:connector-curvature="0" /></g><g
           id="g24"
           transform="translate(251.5221,160.0073)"
           style="fill:#ffffff"><path
             d="M 0,0 C 0.013,0.184 0.027,0.368 0.04,0.553 -1.037,0.948 -2.092,1.43 -3.196,1.723 -6.116,2.5 -9.052,3.22 -11.993,3.916 -14.792,4.578 -17.6,4.8 -20.429,3.952 -20.176,0.916 -19.932,-1.995 -19.68,-5.013 -12.956,-3.3 -6.478,-1.65 0,0 m 4.558,2.998 c 1.957,1.724 4.164,3.68 6.384,5.622 1.67,1.462 2.697,3.313 3.479,5.368 1.902,4.997 2.224,10.134 1.328,15.339 -0.876,5.082 -3.107,9.66 -6.633,13.346 -3.257,3.406 -7.198,6.139 -11.456,8.205 -3.768,1.829 -7.857,2.772 -12.088,2.447 -9.191,-0.708 -16.664,-4.797 -22.329,-12.005 -2.008,-2.555 -3.619,-5.442 -5.231,-8.279 -0.81,-1.425 -1.345,-3.055 -1.054,-4.817 0.389,-0.142 0.676,-0.318 0.976,-0.346 3.65,-0.342 7.302,-0.662 11.059,-0.997 0.107,0.533 0.241,0.983 0.282,1.442 0.314,3.478 1.689,6.53 4.097,8.988 3.702,3.78 8.255,5.635 13.609,5.327 C -5.902,42.23 1.873,37.574 3.233,28.951 3.345,28.241 3.433,27.527 3.538,26.815 4.512,20.214 2.415,11.436 -6.718,8.037 -7.416,7.778 -8.071,7.403 -8.994,6.965 -4.382,5.615 -0.186,4.386 4.558,2.998 m -49.069,-37.36 c 0.725,-1.576 1.122,-2.784 1.788,-3.819 1.813,-2.817 3.738,-5.561 5.619,-8.334 1.424,-2.098 3.303,-3.743 5.532,-4.86 4.438,-2.223 9.08,-3.951 13.969,-4.897 1.235,-0.239 2.535,-0.155 3.805,-0.198 2.764,-0.092 5.319,0.989 7.985,1.416 3.055,0.49 5.906,1.568 8.533,3.032 3.71,2.069 6.91,4.771 9.197,8.524 3.36,5.512 4.523,11.604 4.819,17.848 0.369,7.761 -2.556,14.499 -7.375,20.487 -1.305,1.622 -3.057,2.547 -4.889,3.345 -0.431,0.188 -1.068,0.091 -1.552,-0.06 -3.652,-1.141 -7.29,-2.328 -10.933,-3.499 -0.696,-0.224 -1.395,-0.44 -2.093,-0.66 0.725,-0.568 1.415,-0.73 2.07,-0.981 1.338,-0.514 2.765,-0.902 3.965,-1.648 5.96,-3.704 8.647,-9.409 9.373,-16.141 0.394,-3.66 -0.608,-7.2 -2.039,-10.496 -1.546,-3.561 -3.857,-6.678 -7.565,-8.344 -5.818,-2.612 -11.754,-2.015 -17.52,-0.007 -3.638,1.267 -6.377,3.958 -8.105,7.465 -0.653,1.326 -1.489,1.875 -2.952,1.849 -3.666,-0.066 -7.334,-0.022 -11.632,-0.022 m 90.352,58.519 c 0.129,1.154 0.207,1.933 0.304,2.71 0.351,2.809 0.954,5.61 2.79,7.804 4.485,5.361 11.323,8.115 18.738,6.005 2.387,-0.679 4.371,-1.889 5.959,-3.803 2.59,-3.123 4.346,-6.694 5.617,-10.506 0.475,-1.425 0.787,-2.933 0.957,-4.428 0.46,-4.038 -1.306,-7.487 -3.151,-10.87 -3.935,-7.217 -9.334,-13.35 -14.714,-19.471 -4.59,-5.222 -9.494,-10.169 -14.06,-15.411 -4.935,-5.667 -9.627,-11.549 -15.479,-16.339 -0.825,-0.675 -1.098,-1.478 -1.072,-2.514 0.054,-2.158 -0.062,-4.322 0.046,-6.475 0.139,-2.767 0.43,-5.526 0.651,-8.237 4.746,-1.067 55.877,-0.563 59.088,0.611 -0.134,3.969 -0.27,7.998 -0.41,12.137 -0.731,0.039 -1.273,0.104 -1.812,0.09 -9.507,-0.246 -19.012,-0.557 -28.52,-0.721 -2.625,-0.045 -5.264,0.272 -7.883,0.546 -2.206,0.232 -2.813,1.404 -1.663,3.28 0.956,1.559 2.123,2.993 3.242,4.447 1.41,1.834 2.864,3.634 4.301,5.446 2.977,3.754 5.971,7.494 8.926,11.265 1.279,1.631 2.711,3.202 3.67,5.014 3.262,6.165 7.157,11.914 11.079,17.659 2.026,2.968 3.971,6.003 5.761,9.117 1.888,3.284 3.06,6.872 3.35,10.664 0.348,4.56 -1.32,8.65 -3.435,12.543 -1.017,1.874 -2.231,3.693 -3.639,5.286 -1.256,1.42 -2.889,2.511 -4.377,3.72 -3.533,2.872 -6.937,5.978 -11.474,7.223 -2.226,0.611 -4.496,1.095 -6.771,1.493 C 51.2,54.308 40.157,47.714 36.019,38.279 34.461,34.726 33.906,30.927 33.039,27.202 32.887,26.549 33.018,25.83 33.018,24.893 37.31,24.647 41.433,24.41 45.841,24.157 M 19.277,16.844 c 1.505,1.074 2.639,1.932 3.823,2.714 1.331,0.878 2.639,1.846 4.086,2.48 1.281,0.562 1.789,1.43 2.007,2.68 0.546,3.14 1.003,6.303 1.713,9.407 1.178,5.149 3.456,9.668 7.268,13.517 4.767,4.812 10.354,7.906 17.014,8.477 8.261,0.708 16.087,-0.941 22.818,-6.18 3.091,-2.406 6.261,-4.748 9.08,-7.449 1.686,-1.615 2.93,-3.774 4.077,-5.853 2.494,-4.525 4.298,-9.279 3.946,-14.609 C 94.902,18.877 94.054,15.9 92.889,12.998 91.056,8.43 88.222,4.444 85.439,0.44 81.513,-5.207 77.571,-10.835 74.323,-16.921 c -0.895,-1.677 -2.08,-3.239 -3.335,-4.675 -3.789,-4.335 -7.617,-8.627 -10.891,-13.385 -0.899,-1.305 -2.095,-2.407 -3.16,-3.598 -0.625,-0.699 -1.262,-1.387 -2.164,-2.376 0.948,-0.215 1.518,-0.448 2.092,-0.457 5.433,-0.089 10.869,-0.253 16.301,-0.169 5.594,0.086 11.184,0.427 16.777,0.648 0.639,0.025 1.282,0.033 1.919,-0.015 2.02,-0.153 2.826,-0.797 2.907,-2.774 0.178,-4.313 0.278,-8.633 0.263,-12.95 -0.007,-2.218 -1.291,-3.53 -3.476,-3.93 -0.783,-0.144 -1.591,-0.179 -2.389,-0.199 -10.629,-0.269 -21.257,-0.643 -31.887,-0.747 -7.03,-0.068 -14.065,0.207 -21.094,0.434 -1.822,0.059 -3.656,0.409 -5.437,0.828 -1.574,0.37 -2.003,1.036 -2.052,2.523 -0.165,5.031 -0.26,10.065 -0.489,15.092 -0.103,2.278 0.676,3.967 2.439,5.413 4.971,4.074 9.061,8.999 13.27,13.824 5.149,5.903 10.591,11.551 15.758,17.44 5.217,5.945 10.487,11.877 14.273,18.906 0.831,1.544 1.558,3.154 2.205,4.784 0.759,1.913 0.913,3.936 0.153,5.867 -1.136,2.889 -2.294,5.785 -3.687,8.555 -3.206,6.377 -10.208,6.531 -14.496,5.013 -4.952,-1.753 -8.117,-5.107 -8.963,-10.549 -0.773,-4.972 -0.926,-4.98 -5.964,-5.027 -2.555,-0.024 -5.112,0.113 -7.668,0.134 -0.622,0.005 -1.29,-0.046 -1.861,-0.267 C 27.545,19.044 22.16,15.526 17.551,10.84 17.051,10.331 16.567,9.766 16.229,9.144 14.475,5.913 12.065,3.297 9.023,1.251 8.758,1.073 8.463,0.941 7.932,0.651 c 3.064,-1.985 5.012,-4.404 6.68,-7.055 4.295,-6.826 6.68,-14.122 5.405,-22.307 -0.221,-1.42 -0.365,-2.853 -0.515,-4.283 -0.541,-5.159 -2.855,-9.643 -5.569,-13.896 -2.551,-3.999 -6.303,-6.825 -10.532,-8.829 -5.38,-2.549 -11.138,-3.919 -17.079,-4.366 -1.491,-0.112 -3.034,0.043 -4.515,0.298 -5.241,0.9 -10.158,2.824 -14.9,5.149 -2.904,1.424 -5.285,3.585 -7.121,6.29 -1.883,2.773 -3.937,5.452 -5.574,8.364 -1.072,1.905 -1.741,4.108 -2.212,6.26 -0.454,2.072 0.732,3.077 2.852,3.058 2.712,-0.025 5.426,0.121 8.138,0.086 2.392,-0.03 4.786,-0.164 7.172,-0.336 1.372,-0.099 2.02,-1.074 2.469,-2.291 0.882,-2.391 2.424,-4.295 4.497,-5.781 1.721,-1.234 3.579,-2.125 5.716,-2.286 1.992,-0.15 3.988,-0.342 5.983,-0.339 5.561,0.011 9.086,3.055 11.21,7.915 0.666,1.524 1.064,3.188 1.401,4.826 1.24,6.029 -1.098,11.032 -4.952,15.357 -1.196,1.343 -3.149,2.337 -4.929,2.763 -3.791,0.907 -7.682,1.455 -11.559,1.921 -2.671,0.321 -3.194,0.674 -3.374,3.251 -0.234,3.348 -0.547,6.69 -0.827,10.035 -0.02,0.239 -0.056,0.477 -0.074,0.716 -0.222,3.043 0.556,3.931 3.568,4.045 0.559,0.021 1.127,0.043 1.678,-0.032 4.598,-0.633 8.623,1.027 12.634,2.968 3.852,1.865 5.656,5.134 6.31,9.057 0.585,3.509 0.159,7.009 -1.243,10.353 -0.668,1.593 -1.578,2.966 -2.968,3.985 -5.009,3.673 -10.289,4.956 -16.137,1.948 -4.13,-2.125 -6.351,-5.463 -6.729,-10.049 -0.2,-2.425 -0.8,-3.212 -3.177,-3.17 -4.475,0.081 -8.951,0.283 -13.418,0.562 -1.907,0.119 -2.096,0.687 -2.222,2.64 -0.233,3.595 0.875,6.783 2.635,9.804 4.379,7.515 10.159,13.542 18.34,16.927 9.772,4.044 19.205,3.518 28.103,-2.419 2.787,-1.86 5.605,-3.769 8.021,-6.063 3.277,-3.11 5.492,-7.04 6.978,-11.326 1.82,-5.25 2.102,-10.626 1.188,-16.086 -0.051,-0.307 -0.007,-0.63 -0.007,-1.471"
             style="fill:#ffffff;fill-opacity:1;fill-rule:nonzero;stroke:none"
             id="path26"
             inkscape:connector-curvature="0" /></g></g></g></g></svg>