<?xml version="1.0" encoding="UTF-8" standalone="no"?>
<!-- Created with Inkscape (http://www.inkscape.org/) -->

<svg
   xmlns:dc="http://purl.org/dc/elements/1.1/"
   xmlns:cc="http://creativecommons.org/ns#"
   xmlns:rdf="http://www.w3.org/1999/02/22-rdf-syntax-ns#"
   xmlns:svg="http://www.w3.org/2000/svg"
   xmlns="http://www.w3.org/2000/svg"
   xmlns:sodipodi="http://sodipodi.sourceforge.net/DTD/sodipodi-0.dtd"
   xmlns:inkscape="http://www.inkscape.org/namespaces/inkscape"
   width="176.38907mm"
   height="51.52113mm"
   viewBox="0 0 625.00064 182.55518"
   id="svg2"
   version="1.1"
   inkscape:version="0.91 r"
   sodipodi:docname="camp.svg">
  <defs
     id="defs4" />
  <sodipodi:namedview
     id="base"
     pagecolor="#ffffff"
     bordercolor="#666666"
     borderopacity="1.0"
     inkscape:pageopacity="0.0"
     inkscape:pageshadow="2"
     inkscape:zoom="1.979899"
     inkscape:cx="309.34877"
     inkscape:cy="102.71965"
     inkscape:document-units="px"
     inkscape:current-layer="layer1"
     showgrid="false"
     fit-margin-top="0"
     fit-margin-left="0"
     fit-margin-right="0"
     fit-margin-bottom="0"
     inkscape:window-width="1920"
     inkscape:window-height="1025"
     inkscape:window-x="-2"
     inkscape:window-y="-3"
     inkscape:window-maximized="1" />
  <metadata
     id="metadata7">
    <rdf:RDF>
      <cc:Work
         rdf:about="">
        <dc:format>image/svg+xml</dc:format>
        <dc:type
           rdf:resource="http://purl.org/dc/dcmitype/StillImage" />
        <dc:title />
      </cc:Work>
    </rdf:RDF>
  </metadata>
  <g
     inkscape:label="Ebene 1"
     inkscape:groupmode="layer"
     id="layer1"
     transform="translate(1278.928,-723.44424)">
    <rect
       style="fill:#ffffff"
       id="rect3373"
       width="624.81372"
       height="180.66805"
       x="-1278.8361"
       y="724.32117" />
    <g
       id="g3427"
       transform="translate(-412.14224,-109.09647)"
       style="fill:#000000">
      <path
         style="fill:#000000"
         d="m -866.78571,971.3183 0,-43.77759 6.89053,0 6.89052,0 4.18295,6.5625 c 2.30062,3.60937 7.43916,12.75 11.41898,20.3125 3.97983,7.5625 7.93994,14.33296 8.80025,15.04546 0.86032,0.71251 4.94412,7.38519 9.07512,14.82816 l 7.51091,13.5327 -3.51425,5.96017 c -1.93284,3.2781 -3.71631,7.0117 -3.96328,8.2968 -0.41669,2.1684 -2.13603,2.3612 -23.87038,2.6768 l -23.42135,0.3401 0,-43.7776 z m 52.84063,42.8553 c 1.2186,-0.3174 3.57479,-3.2592 5.23597,-6.5374 l 3.02034,-5.9603 13.51403,-0.8489 c 7.43272,-0.4668 20.26403,-1.3846 28.51403,-2.03944 18.13012,-1.43908 32.92465,-0.47661 36.72379,2.38904 1.50072,1.132 3.52802,4.7145 4.50511,7.9612 l 1.77652,5.9029 -47.75271,-0.145 c -26.26399,-0.08 -46.75567,-0.4047 -45.53708,-0.7221 z m 98.98553,-0.3039 c 0.39804,-0.644 -0.41224,-4.1596 -1.8006,-7.8125 -1.38836,-3.6528 -2.52458,-7.28724 -2.52493,-8.07648 -3.4e-4,-0.78923 7.36064,-12.7896 16.35776,-26.66745 8.99711,-13.87786 18.60847,-29.40399 21.35857,-34.50252 4.33437,-8.03563 5.4538,-9.27004 8.40655,-9.27004 2.31934,0 4.27272,-1.17183 6.12129,-3.67215 2.70369,-3.65694 2.70442,-3.6755 0.17908,-4.47701 -1.39473,-0.44267 -4.88297,-0.61833 -7.75163,-0.39035 l -5.21575,0.41451 -4.41575,-11.91481 c -2.42866,-6.55314 -5.88112,-13.86564 -7.67214,-16.25 -3.51063,-4.67369 -23.60188,-36.2783 -25.99172,-40.8864 -1.15786,-2.23258 -1.04851,-3.58296 0.53871,-6.65229 1.58811,-3.07109 1.68125,-4.22488 0.45981,-5.69661 -2.55417,-3.0776 -6.40846,-1.45308 -9.25326,3.90011 -1.59947,3.00979 -3.37161,4.81183 -4.45214,4.52727 -0.98725,-0.26 -18.30554,-0.8225 -38.48508,-1.25 l -36.69008,-0.77727 -2.25162,-5.9375 -2.25162,-5.9375 284.25419,0 284.2542,0 3e-4,54.0625 3.1e-4,54.0625 -20.93781,-0.43515 c -11.51579,-0.23934 -21.1253,-0.94246 -21.35446,-1.5625 -0.22918,-0.62004 -1.29215,-1.12735 -2.36218,-1.12735 -1.71283,0 -1.84002,2.21586 -1.06353,18.52865 0.76207,16.01017 0.61591,18.74944 -1.07534,20.15305 -1.07652,0.89343 -1.95729,2.46026 -1.95729,3.48186 0,2.267 4.53724,1.3925 11.60099,-2.23595 5.70872,-2.93241 10.63622,-3.09759 14.37087,-0.48174 5.99245,4.19728 1.67071,10.55413 -7.17526,10.55413 -2.95985,0 -7.6148,-0.6691 -10.34432,-1.48689 -4.47564,-1.34092 -5.10335,-1.2489 -6.39503,0.9375 -0.78774,1.33342 -1.44711,2.98689 -1.46529,3.67439 -0.0181,0.6875 -0.47325,1.95312 -1.01127,2.8125 -1.58308,2.52861 0.123,3.90652 7.48782,6.04754 9.69766,2.81915 25.25235,2.07005 29.95738,-1.44272 6.26545,-4.67783 8.46187,-8.78396 8.53305,-15.95219 0.0539,-5.42559 -0.5817,-7.50334 -3.44385,-11.25836 -4.5598,-5.98225 -11.72975,-9.58177 -19.08608,-9.58177 -5.42616,0 -5.76951,-0.19059 -5.06687,-2.8125 0.41455,-1.54688 0.76141,-3.51563 0.7708,-4.375 0.01,-0.88186 1.5746,-1.5625 3.5926,-1.5625 9.48616,0 15.39166,-1.60907 16.73626,-4.56014 1.01705,-2.23219 2.34432,-2.93986 5.51385,-2.93986 l 4.17435,0 0,35 0,34.99999 -236.94878,0 c -146.98716,0 -236.674,-0.4446 -236.22506,-1.171 z m 162.47417,-30.07899 c -4.43844,-13.40625 -8.94915,-27.60938 -10.02382,-31.5625 -1.19008,-4.37776 -2.63501,-7.1875 -3.69622,-7.1875 -0.95829,0 -2.30902,-1.05887 -3.00164,-2.35304 -0.69599,-1.30046 -3.09207,-2.62432 -5.35647,-2.95949 -6.70957,-0.99313 -9.14258,3.00192 -18.62757,30.58678 -4.67131,13.58544 -9.07858,25.79442 -9.79395,27.1311 -0.71536,1.33666 -1.30066,3.31104 -1.30066,4.38744 0,2.692 4.85592,2.5049 5.97777,-0.2303 0.49348,-1.2031 1.74098,-2.18749 2.77223,-2.18749 1.03125,0 2.42859,-1.26172 3.10519,-2.80384 0.8151,-1.85781 1.95093,-2.57509 3.36636,-2.12585 1.17489,0.3729 6.73033,-0.1935 12.3454,-1.25865 14.29226,-2.7112 14.30606,-2.70856 16.03536,3.06334 1.30922,4.36969 1.96442,4.99999 5.19786,4.99999 2.03491,0 3.69983,0.4866 3.69983,1.0814 0,2.0989 5.33545,7.8331 6.34596,6.8203 0.56335,-0.5647 -2.60718,-11.99544 -7.04563,-25.40169 z m -27.87974,-11.51416 c 3.80874,-10.4362 4.48221,-11.83197 5.25048,-10.88168 0.23159,0.28646 1.89274,4.56005 3.69146,9.49688 l 3.27036,8.97605 -3.37894,0.62721 c -1.85842,0.34496 -5.45612,0.96582 -7.9949,1.37967 l -4.61596,0.75247 3.7775,-10.3506 z m 109.60534,33.91625 c 0.22051,-1.6649 1.31268,-3.7304 2.42707,-4.5901 1.24415,-0.9597 2.55141,-5.06047 3.3871,-10.62498 l 1.36095,-9.06201 8.343,-0.82875 c 9.89301,-0.98271 20.1931,-6.04762 23.73359,-11.67065 1.78526,-2.83536 2.23903,-5.40225 1.85952,-10.51905 -0.43432,-5.85591 -1.10427,-7.32038 -4.96913,-10.86227 -5.89337,-5.40087 -11.6666,-6.78821 -27.31203,-6.56324 l -12.981,0.18666 0,19.50365 c 0,37.9324 0.50415,49.12674 2.1875,48.57244 0.85938,-0.2831 1.74291,-1.8768 1.96343,-3.5417 z m 9.42917,-41.95155 c 0.43719,-3.18971 0.7949,-6.84596 0.7949,-8.125 0,-1.91105 0.96934,-2.32554 5.43848,-2.32554 8.75365,0 13.31152,2.11554 13.31152,6.17855 0,4.70011 -3.32744,7.31896 -11.19501,8.81103 -9.49339,1.80037 -9.23785,1.93928 -8.34989,-4.53904 z m 47.89262,41.87335 0.78523,-3.9261 19.97164,0.8776 c 17.81337,0.7829 19.89071,0.6668 19.22276,-1.0738 -0.41189,-1.0734 -0.26423,-1.9516 0.32815,-1.9516 1.96735,0 2.46615,-3.52295 0.95762,-6.76353 -2.03298,-4.36719 -9.23389,-6.98646 -19.20715,-6.98646 -8.2574,0 -8.28344,-0.0113 -5.99512,-2.53963 1.26409,-1.39678 5.30721,-4.26112 8.98472,-6.36518 9.41765,-5.38823 14.14182,-9.65569 16.48647,-14.89263 l 2.02628,-4.52586 -0.006,10.09915 c -0.007,11.23015 2.91817,19.63387 9.1024,26.15112 11.38478,11.99782 29.45987,10.69782 36.01015,-2.58986 3.346,-6.78762 3.28359,-24.09959 -0.11162,-30.94884 -3.45187,-6.9638 -13.0267,-16.53084 -17.528,-17.51384 -2.0625,-0.4504 -4.98739,-1.4176 -6.49975,-2.14932 -4.74136,-2.29399 -12.92417,2.43399 -17.64351,10.19432 l -2.46456,4.05265 -1.45992,-4.42356 c -3.04085,-9.21386 -13.95566,-15.26043 -25.77736,-14.28008 -7.69844,0.63841 -21.14569,7.04376 -21.17128,10.08455 -0.009,1.07049 -1.59599,3.18888 -3.52665,4.70753 -4.63796,3.64822 -2.62175,5.92921 2.7744,3.13875 3.44366,-1.78078 3.89363,-1.79307 3.89363,-0.10637 0,2.76011 2.24021,2.34793 6.43839,-1.1846 8.45871,-7.11754 21.5993,-6.82885 25.41941,0.55845 1.03099,1.99369 1.57717,4.39973 1.21376,5.34677 -0.36341,0.94704 -5.84381,4.71494 -12.17866,8.37313 -6.33484,3.65818 -13.34661,8.01055 -15.58171,9.67191 -7.18097,5.33767 -10.8489,15.77639 -9.47104,26.95393 0.85405,6.9282 3.78849,8.1068 5.00757,2.0114 z m 32.58978,-6.90174 c 0.85938,-0.34676 2.26563,-0.34676 3.125,0 0.85938,0.34676 0.15625,0.63049 -1.5625,0.63049 -1.71875,0 -2.42187,-0.28373 -1.5625,-0.63049 z m 28.77527,-12.87979 c -4.65913,-3.66487 -6.32584,-8.91411 -5.74196,-18.08399 0.55368,-8.69536 2.69748,-12.41487 7.90944,-13.72299 5.43466,-1.36402 9.28956,1.27222 12.51063,8.55562 2.84267,6.4278 2.91393,7.16666 1.29356,13.41334 -1.7927,6.91103 -6.42843,12.29566 -10.58558,12.29566 -1.24394,0 -3.66768,-1.10594 -5.38609,-2.45764 z m -178.30345,7.35839 c 0.43139,-7.16416 0.90793,-16.40075 1.05898,-20.52575 l 0.27465,-7.5 2.01557,5 c 1.10857,2.75 3.75914,8.49025 5.89018,12.75611 3.39019,6.7864 3.67552,8.1148 2.28225,10.625 -0.8758,1.57789 -1.6123,3.86398 -1.63665,5.0802 -0.0358,1.78408 0.61985,2.05198 3.3932,1.38668 1.89062,-0.4536 3.49791,-0.88618 3.57176,-0.96134 0.0739,-0.0751 4.09634,-7.67116 8.9389,-16.88001 l 8.80464,-16.74338 0.88584,9.45318 c 0.48721,5.19925 0.50115,10.07561 0.031,10.83637 -1.71515,2.77519 0.62262,8.56176 3.779,9.35396 2.59593,0.65154 3.05138,1.50862 3.05138,5.74202 0,3.59 0.52233,4.9762 1.875,4.9762 1.28788,0 1.875,-1.2917 1.875,-4.125 0,-2.26874 0.50199,-4.65937 1.11554,-5.31249 1.59561,-1.69855 3.17078,-28.0625 1.67665,-28.0625 -0.65911,0 -1.58892,-4.81319 -2.06625,-10.69596 -0.67972,-8.37714 -1.42646,-11.25456 -3.44445,-13.27255 -1.92834,-1.92834 -2.81877,-2.18468 -3.53927,-1.01889 -0.52949,0.85673 -1.58809,1.17118 -2.35247,0.69877 -0.76436,-0.4724 -2.09287,-0.41871 -2.95225,0.11931 -0.85937,0.53803 -2.34302,0.9931 -3.297,1.01128 -2.17431,0.0414 -2.86542,1.25289 -8.39765,14.72053 -2.47108,6.01563 -4.87306,10.9375 -5.33771,10.9375 -0.46465,0 -3.33295,-6.49561 -6.37399,-14.4347 l -5.52915,-14.43471 -5.0635,0.37221 c -4.33773,0.31885 -5.36702,-0.10838 -7.18115,-2.98065 -1.91376,-3.03005 -2.43208,-3.21057 -5.38352,-1.875 -2.76526,1.25133 -3.15543,2.05266 -2.54539,5.22785 0.39626,2.0625 1.0663,16.82813 1.48898,32.8125 0.69326,26.2179 1.59061,32.7641 3.7278,27.1947 0.39421,-1.0273 1.18573,-1.578 1.75893,-1.2237 0.57322,0.3542 1.67478,-0.3521 2.44793,-1.5697 1.17761,-1.85456 1.2853,-1.64666 0.66359,1.2812 -0.83678,3.9406 0.10512,6.2457 2.26138,5.5342 0.90349,-0.2981 1.74288,-5.3757 2.23228,-13.50345 z m 224.31754,8.40954 c 0.38758,-1.01 1.83579,-1.4627 3.6003,-1.1254 2.14859,0.4108 3.51345,-0.2927 5.01531,-2.58483 1.77559,-2.70989 2.02769,-6.82467 1.80738,-29.4996 -0.28709,-29.54749 0.36334,-27.92914 -9.8022,-24.3894 -4.59225,1.59907 -7.24199,3.05903 -13.60599,7.49665 -0.21084,0.14701 -0.61332,2.57917 -0.89444,5.40479 -0.56403,5.66964 -0.0151,5.97237 6.155,3.39435 l 4.17194,-1.74314 -0.64132,22.36814 c -0.58324,20.34224 -0.45172,22.36814 1.45215,22.36814 1.15141,0 2.38525,-0.7604 2.74187,-1.6897 z m -313.74962,-3.31029 c 4.23548,0 6.77276,-0.53374 6.77276,-1.4247 0,-0.78357 0.87436,-2.06405 1.94304,-2.84548 5.07725,-3.71258 -2.05402,-7.77757 -14.92395,-8.50699 -7.52729,-0.42663 -8.97648,-0.91857 -11.5625,-3.92501 -1.79007,-2.08107 -2.95659,-5.03138 -2.95659,-7.47766 0,-9.21501 10.84719,-22.43746 18.38585,-22.4119 1.91902,0.006 5.48322,0.4222 7.92043,0.92376 3.98822,0.82075 4.58188,0.5814 5.9375,-2.39386 2.50847,-5.5055 1.87406,-6.60057 -4.74378,-8.18816 -3.4375,-0.82464 -6.25,-2.00575 -6.25,-2.62468 0,-1.74022 -8.34196,-1.32936 -13.06346,0.64341 -5.29188,2.21109 -14.6689,13.76486 -19.86895,24.48127 -5.14504,10.60305 -5.25848,18.34347 -0.39055,26.64998 1.88558,3.21751 3.93393,5.85002 4.55189,5.85002 2.13885,0 2.7292,-2.61851 1.06618,-4.72911 -0.91856,-1.16579 0.20137,-0.57849 2.48873,1.30511 2.28736,1.8836 5.38111,3.68391 6.875,4.0007 1.49389,0.31678 3.84116,0.81225 5.21616,1.10105 1.375,0.2888 3.24912,0.3107 4.16474,0.0486 0.9156,-0.26204 4.71247,-0.47643 8.4375,-0.47643 z m -6.3402,-67.50999 c 0.9429,-0.78253 1.41628,-2.19956 1.05197,-3.14894 -0.50658,-1.32014 -2.47367,-1.56085 -8.3632,-1.02337 -7.18595,0.6558 -7.90974,0.47808 -10.82581,-2.65816 -2.70108,-2.90501 -3.125,-4.52063 -3.125,-11.90954 0,-7.38891 0.42392,-9.00453 3.125,-11.90954 2.91607,-3.13624 3.63986,-3.31396 10.82581,-2.65816 5.88953,0.53748 7.85662,0.29677 8.3632,-1.02337 1.00993,-2.63183 -2.03695,-4.42656 -8.74416,-5.15067 -12.41745,-1.34059 -19.85179,6.45611 -19.77772,20.74174 0.0755,14.57474 6.83702,21.9297 19.10671,20.78378 3.65685,-0.34153 7.42029,-1.26123 8.3632,-2.04377 z m 28.03588,0.22591 c 2.3424,-1.25625 5.28675,-4.2006 6.54299,-6.543 3.16398,-5.89957 3.08626,-18.45012 -0.15356,-24.8007 -5.91657,-11.59745 -22.95813,-11.59745 -28.8747,0 -3.23983,6.35058 -3.31754,18.90113 -0.15356,24.8007 2.63288,4.90931 9.10885,8.82708 14.59091,8.82708 2.08395,0 5.70551,-1.02784 8.04792,-2.28408 z m -15.46098,-6.89034 c -5.68286,-5.68286 -5.16608,-20.93955 0.85205,-25.15482 4.10817,-2.87747 10.54071,-2.4297 13.94084,0.97043 5.28708,5.28709 5.26744,18.92114 -0.0358,24.78105 -3.11135,3.438 -11.04322,3.1173 -14.75718,-0.59666 z m 135.57897,7.27826 c 6.15072,-3.18065 7.45909,-7.44161 7.45909,-24.29176 0,-13.94964 -0.17491,-15.06208 -2.36834,-15.06208 -2.16684,0 -2.40614,1.26515 -2.8125,14.8691 -0.51719,17.31364 -1.89135,20.1309 -9.81916,20.1309 -7.93905,0 -9.30645,-2.8106 -9.79219,-20.12731 -0.38366,-13.67755 -0.60966,-14.87269 -2.8125,-14.87269 -2.22661,0 -2.39531,1.05067 -2.39531,14.91862 0,8.20525 0.54848,16.36124 1.21884,18.12443 2.64754,6.96355 13.72155,10.24118 21.32207,6.31079 z m 83.58638,0.50163 c 2.64992,-0.92377 3.86389,-2.08419 3.59609,-3.4375 -0.3305,-1.67026 -1.71583,-1.96328 -7.59349,-1.60615 -9.07036,0.55112 -12.76632,-1.64103 -14.6669,-8.69926 -1.82949,-6.79422 -0.40464,-14.53455 3.3705,-18.30968 2.69422,-2.69423 3.93768,-2.99584 10.76826,-2.61192 6.36968,0.35801 7.79268,0.0762 8.1241,-1.60893 0.26595,-1.35229 -0.95064,-2.51443 -3.59856,-3.4375 -14.2655,-4.97298 -24.87729,3.49667 -24.87729,19.85547 0,16.36299 10.60812,24.82973 24.87729,19.85547 z m 107.23664,-2.5232 c 4.42568,-4.07944 6.63607,-9.85259 6.63607,-17.33227 0,-11.9273 -5.81385,-19.87948 -15.23466,-20.83796 -6.86669,-0.69863 -13.18314,2.453 -16.53028,8.24786 -3.49925,6.05823 -3.53442,19.12452 -0.0675,25.0901 5.14114,8.84653 18.13743,11.33901 25.1964,4.83227 z m -18.24036,-5.58408 c -7.47391,-9.50154 -3.12816,-26.74819 6.73992,-26.74819 2.30012,0 5.0926,0.34941 6.20551,0.77648 7.46475,2.86449 7.46475,25.58255 0,28.44704 -4.81955,1.84944 -10.37987,0.78623 -12.94543,-2.47533 z m -273.60336,-5.18569 0.35479,-13.4375 4.59236,10.625 c 3.44438,7.96899 5.24939,10.72594 7.2207,11.02879 1.94449,0.29873 2.95189,-0.52435 3.87189,-3.16345 0.68395,-1.96198 2.87588,-6.92493 4.87096,-11.02879 l 3.62742,-7.46155 0.0958,13.4375 0.0958,13.4375 3.125,0 3.125,0 0,-20 0,-20 -3.55432,0 c -3.30053,0 -3.94767,0.89101 -9.0625,12.4776 -3.02951,6.86268 -5.78943,12.4776 -6.13318,12.4776 -0.34375,0 -3.10367,-5.61492 -6.13318,-12.4776 -5.11483,-11.58659 -5.76197,-12.4776 -9.0625,-12.4776 l -3.55432,0 0,20 0,20 3.08271,0 c 3.06377,0 3.08489,-0.0826 3.4375,-13.4375 z m 42.32563,0 0.0959,-13.4375 3.62742,7.46155 c 1.99508,4.10386 4.1727,9.02573 4.83913,10.9375 1.64692,4.72434 6.03664,4.72434 7.68355,0 0.66644,-1.91177 2.84405,-6.83364 4.83914,-10.9375 l 3.62737,-7.46155 0.0958,13.4375 0.0958,13.4375 3.125,0 3.125,0 0,-20 0,-20 -3.55432,0 c -3.30053,0 -3.94767,0.89101 -9.0625,12.4776 -3.02951,6.86268 -5.78943,12.4776 -6.13318,12.4776 -0.34375,0 -3.10367,-5.61492 -6.13318,-12.4776 -5.11483,-11.58659 -5.76197,-12.4776 -9.0625,-12.4776 l -3.55432,0 0,20 0,20 3.125,0 3.125,0 0.0959,-13.4375 z m 77.40416,-0.9375 0.625,-13.75 9.375,14.05514 c 7.30304,10.94882 9.99659,14.05677 12.1875,14.0625 2.79979,0.007 2.8125,-0.0831 2.8125,-19.99264 0,-19.16667 -0.10412,-20 -2.5,-20 -2.36362,0 -2.50033,0.83531 -2.50591,15.3125 l -0.006,15.3125 -10.17798,-15.3125 c -8.21573,-12.36085 -10.74458,-15.3125 -13.11876,-15.3125 l -2.9411,0 0,20.08694 0,20.08694 2.8125,-0.39944 c 2.6772,-0.38022 2.84256,-1.06091 3.4375,-14.14944 z m 36.25,-5.625 0,-20 -3.125,0 -3.125,0 0,20 0,20 3.125,0 3.125,0 0,-20 z m 41.14619,15.3125 1.54634,-4.6875 8.86887,0.19072 8.86888,0.19073 1.79355,4.49677 c 1.38361,3.46895 2.50108,4.49678 4.88903,4.49678 1.70252,0 2.90798,-0.4623 2.6788,-1.02732 -0.22916,-0.56503 -3.79166,-9.56698 -7.91666,-20.00434 -6.95189,-17.59014 -7.72134,-18.95386 -10.5286,-18.66018 -2.13077,0.22291 -3.38442,1.42853 -4.22889,4.06684 -0.66016,2.0625 -3.93791,10.3502 -7.2839,18.41712 -3.34599,8.06691 -6.08361,15.23879 -6.08361,15.9375 0,0.69871 1.31621,1.27038 2.92493,1.27038 2.27167,0 3.27028,-1.0469 4.47126,-4.6875 z m 5.94116,-15 c 1.07787,-2.57813 2.50089,-6.09375 3.16224,-7.8125 1.139,-2.96006 1.36207,-2.73443 4.22643,4.27484 1.66319,4.06991 3.02398,7.58554 3.02398,7.8125 0,0.22696 -2.7838,0.41266 -6.18621,0.41266 l -6.18623,0 1.95979,-4.6875 z m 35.41265,2.1875 0,-17.5 6.875,0 c 6.04166,0 6.875,-0.30303 6.875,-2.5 0,-2.3718 -0.83334,-2.5 -16.25,-2.5 -15.41666,0 -16.25,0.1282 -16.25,2.5 0,2.19697 0.83334,2.5 6.875,2.5 l 6.875,0 0,17.5 c 0,16.66667 0.119,17.5 2.5,17.5 2.38095,0 2.5,-0.83333 2.5,-17.5 z m 22.5,-2.5 0,-20 -3.125,0 -3.125,0 0,20 0,20 3.125,0 3.125,0 0,-20 z m 46.52403,5.13412 0.35097,-14.86588 9.98966,14.86588 c 7.82878,11.65021 10.60028,14.86588 12.8125,14.86588 2.81284,0 2.82284,-0.0709 2.82284,-20 0,-19.06247 -0.11538,-20 -2.46153,-20 -2.2913,0 -2.48579,1.02973 -2.8125,14.89038 l -0.35097,14.89038 -10,-14.88136 c -7.80561,-11.61582 -10.61717,-14.88334 -12.8125,-14.89038 -2.79985,-0.009 -2.8125,0.0809 -2.8125,19.99098 0,19.06247 0.11538,20 2.46153,20 2.29103,0 2.48583,-1.0296 2.8125,-14.86588 z m -356.07949,-32.56551 c 2.31775,-0.88121 2.93662,-1.83406 2.43559,-3.75 -0.78668,-3.00828 -0.60198,-2.97701 -6.73287,-1.14015 -3.72372,1.11566 -5.63682,1.0685 -8.73629,-0.21534 -10.30119,-4.26689 -9.60252,-26.86053 0.91223,-29.49956 1.87041,-0.46944 5.56339,-0.27629 8.20661,0.42922 4.16429,1.11151 4.96915,0.97768 6.02893,-1.00252 0.94717,-1.76983 0.67411,-2.57907 -1.21068,-3.58778 -3.27173,-1.75098 -14.21002,-1.6535 -18.19495,0.16215 -10.9446,4.9867 -12.37383,27.22303 -2.31728,36.0528 3.48198,3.05723 5.3594,3.73257 10.3763,3.73257 3.36881,0 7.52341,-0.53162 9.23241,-1.18139 z m 12.05546,-8.19361 0,-9.375 10,0 10,0 0,9.46194 c 0,9.0974 0.10838,9.44655 2.8125,9.0625 2.78284,-0.39523 2.8125,-0.61039 2.8125,-20.39944 0,-19.78905 -0.0296,-20.00421 -2.8125,-20.39944 -2.68911,-0.38191 -2.8125,-0.0118 -2.8125,8.4375 l 0,8.83694 -10,0 -10,0 0,-8.75 c 0,-7.91667 -0.2381,-8.75 -2.5,-8.75 -2.39899,0 -2.5,0.83333 -2.5,20.625 0,19.79167 0.101,20.625 2.5,20.625 2.27778,0 2.5,-0.83333 2.5,-9.375 z m 35.77085,4.375 2.0006,-5 8.6244,0 8.62439,0 2.00061,5 c 1.82314,4.55648 4.87886,6.43362 7.00766,4.30482 0.38235,-0.38235 -2.8408,-9.52297 -7.16253,-20.3125 -6.36128,-15.88136 -8.35948,-19.69353 -10.49244,-20.01749 -1.67141,-0.25386 -2.91984,0.43168 -3.41454,1.875 -0.4289,1.25134 -3.80139,9.83575 -7.49441,19.07646 -3.69303,9.24071 -6.71459,17.53758 -6.71459,18.4375 0,0.89991 1.12955,1.63621 2.51013,1.63621 1.7617,0 3.10661,-1.49079 4.51072,-5 z m 4.51239,-11.19719 c 0.18797,-0.41125 1.43725,-3.68513 2.77619,-7.27527 1.33893,-3.59015 2.74518,-6.52543 3.125,-6.52286 0.37981,0.003 1.6554,2.39321 2.83462,5.3125 4.29814,10.64044 4.516,9.85363 -2.63805,9.5272 -3.54174,-0.16161 -6.28572,-0.63031 -6.09776,-1.04157 z m 49.66697,14.15276 c 10.8203,-6.39171 11.64706,-29.33766 1.32198,-36.68977 -4.02142,-2.8635 -12.99843,-3.38429 -18.11908,-1.05117 -4.42675,2.01696 -8.11308,8.4491 -8.96158,15.63669 -1.61204,13.65558 5.59953,24.14868 16.59659,24.14868 3.13564,0 7.25857,-0.91999 9.16209,-2.04443 z m -13.32226,-4.22031 c -8.49555,-3.42128 -8.8196,-24.21743 -0.44719,-28.69821 3.92205,-2.09901 8.45451,-1.48086 12.09363,1.64938 2.84526,2.44738 3.50401,4.18354 3.95545,10.42458 0.96371,13.32313 -5.8283,20.56021 -15.60189,16.62425 z m 48.27614,3.02862 c 3.03107,-2.55047 3.84591,-4.22577 3.84591,-7.90711 0,-5.78264 -2.92805,-8.6462 -12.85558,-12.57246 -8.61542,-3.40733 -10.92427,-6.54634 -7.55654,-10.27356 2.19161,-2.42556 6.99988,-2.67176 15.4209,-0.7896 1.05296,0.23534 1.97701,-0.70167 2.21463,-2.24571 0.48711,-3.16514 -2.35381,-4.18331 -11.74233,-4.20837 -8.65658,-0.0231 -12.98108,3.28668 -12.98108,9.93517 0,6.21951 2.77055,9.32319 11.24688,12.59924 8.49531,3.28338 10.00312,4.50054 10.00312,8.07492 0,4.43179 -6.05886,6.38563 -14.06855,4.53677 -6.19351,-1.42964 -8.3359,-0.78145 -8.41231,2.54516 -0.0372,1.6213 6.94777,3.34558 13.94745,3.44299 5.88999,0.082 7.74325,-0.44965 10.9375,-3.13744 z m -318.43323,106.87527 c -0.80897,-1.29537 -1.47205,-3.34724 -1.47351,-4.55969 -0.003,-2.77452 -7.55278,-17.51816 -19.59412,-38.26612 -5.12687,-8.83391 -9.13382,-16.24941 -8.90434,-16.4789 0.80861,-0.80861 62.25111,-2.20113 62.25111,-1.41085 0,0.44046 -2.53125,4.74985 -5.625,9.57641 -5.93111,9.25314 -6.48364,10.75545 -4.23178,11.50607 1.44202,0.48068 -8.78933,21.91237 -16.67468,34.92862 -3.88142,6.40701 -4.4128,6.84195 -5.74768,4.70446 z m 9.77914,0.85413 c 0,-0.38815 1.62493,-3.38604 3.61096,-6.66201 1.98602,-3.27594 9.13883,-17.06565 15.89513,-30.64377 8.01694,-16.11164 12.95427,-24.6875 14.2132,-24.6875 1.73705,0 16.27687,24.12392 16.2831,27.01631 10e-4,0.60978 2.86276,5.8646 6.35876,11.67738 6.59509,10.96558 12.38885,21.86375 12.38885,23.30361 0,0.45672 -6.04687,0.41114 -13.4375,-0.10125 -15.04221,-1.04296 -35.71134,-1.00756 -47.5,0.0814 -4.29687,0.39689 -7.8125,0.40406 -7.8125,0.0159 z m 71.75234,-8.53749 c -1.30754,-2.91181 -5.03817,-9.68136 -8.29029,-15.04344 -3.25212,-5.36207 -8.79378,-15.49531 -12.31478,-22.51829 -3.52101,-7.02298 -6.97593,-13.47219 -7.67761,-14.33156 -1.01425,-1.2422 5.00151,-1.5625 29.34604,-1.5625 16.84199,0 32.47402,-0.37044 34.73785,-0.82321 3.68133,-0.73626 4.02166,-0.57124 3.22243,1.5625 -2.49664,6.66531 -15.91887,29.15681 -21.43922,35.9255 -3.45852,4.24061 -7.90988,10.94458 -9.8919,14.89771 -1.98201,3.95312 -3.98875,7.1875 -4.45942,7.1875 -0.47066,0 -1.92555,-2.3824 -3.2331,-5.29421 z m -116.20018,-59.41243 c -1.7168,-1.19187 14.40799,-28.41836 16.83068,-28.41836 1.55717,0 11.56844,-15.51506 19.52225,-30.2548 l 2.83558,-5.2548 15.58589,25.8798 c 16.4864,27.37504 19.67344,33.07616 19.67344,35.19272 0,0.8804 -10.07574,1.31208 -30.625,1.31208 -19.58333,0 -30.625,0.45068 -30.625,1.25 0,1.43178 -11.19943,1.68072 -13.19784,0.29336 z m 82.79875,-2.03039 c -0.86857,-2.26346 3.9081,-9.4037 13.86798,-20.73006 4.31414,-4.90603 7.49267,-9.48834 7.06341,-10.18291 -0.476,-0.77017 -1.78914,-0.37766 -3.36585,1.00607 -2.16921,1.90371 -2.04634,1.36349 0.7633,-3.35607 1.84176,-3.09375 6.57664,-11.09928 10.52195,-17.79007 3.94531,-6.69079 7.53716,-12.17517 7.98189,-12.1875 0.44472,-0.0124 6.00612,8.83694 12.35866,19.66507 6.35254,10.82812 14.7747,25.09554 18.7159,31.70536 l 7.16583,12.01786 -9.40059,0.79464 c -16.38115,1.38471 -24.02339,1.04103 -24.02339,-1.08036 0,-2.19459 -1.15662,-2.25301 -14.40779,-0.72769 -22.71242,2.61439 -26.52377,2.73551 -27.2413,0.86566 z m -100.53841,-0.42823 -5.3125,-0.47848 0,-43.67813 0,-43.67813 26.11626,0 c 21.38355,0 26.23946,0.32104 26.79608,1.77155 0.37389,0.97435 -0.12843,2.0817 -1.11627,2.46077 -2.68421,1.03003 -2.17672,4.85789 1.32893,10.02376 1.71875,2.53272 3.125,4.83426 3.125,5.11454 0,0.69113 -10.56327,16.03923 -16.34885,23.75438 -8.40793,11.21208 -22.5708,35.67232 -22.29574,38.50626 0.41716,4.29805 -1.35486,7.14059 -4.30165,6.90036 -1.47332,-0.12011 -5.06938,-0.43371 -7.99126,-0.69688 z m 79.30768,-36.12158 c -9.34937,-15.67564 -16.85454,-28.64547 -16.67816,-28.82184 0.17637,-0.17638 12.5567,-0.6155 27.51183,-0.97583 14.95514,-0.36032 28.14291,-1.10049 29.30615,-1.6448 1.16325,-0.54432 4.48451,-0.68727 7.38059,-0.31768 l 5.26557,0.67199 -7.59011,12.5 c -4.17455,6.875 -10.67434,17.78857 -14.44396,24.25238 -3.76962,6.4638 -8.40618,14.2464 -10.30347,17.29466 l -3.4496,5.54228 -16.99884,-28.50116 z"
         id="path3505"
         inkscape:connector-curvature="0" />
      <path
         style="fill:#000000"
         d="m -419.04202,999.41571 c 0.0255,-2.0625 0.30562,-2.75492 0.62255,-1.53871 0.31692,1.21621 0.29609,2.9037 -0.0464,3.75 -0.34241,0.8463 -0.60171,-0.1488 -0.57623,-2.21129 z m -111.395,-17.60416 c 0.06,-1.45619 0.35617,-1.75238 0.7552,-0.75522 0.36108,0.90234 0.31669,1.98047 -0.0986,2.39584 -0.41536,0.41536 -0.7108,-0.32292 -0.65652,-1.64062 z m 69.90131,-64.89584 c 0,-8.13542 0.35176,-14.4399 0.7817,-14.00997 0.86429,0.86429 0.64746,27.37248 -0.23109,28.25102 -0.30283,0.30284 -0.55061,-6.10563 -0.55061,-14.24105 z m 84.6875,5.97076 c 2.23438,-0.27729 5.89063,-0.27729 8.125,0 2.23438,0.27728 0.40625,0.50415 -4.0625,0.50415 -4.46875,0 -6.29687,-0.22687 -4.0625,-0.50415 z"
         id="path3503"
         inkscape:connector-curvature="0" />
      <path
         style="fill:#000000"
         d="m -359.18702,970.56155 c 0.06,-1.45619 0.35617,-1.75238 0.7552,-0.75522 0.36108,0.90234 0.31669,1.98047 -0.0986,2.39584 -0.41536,0.41536 -0.7108,-0.32292 -0.65652,-1.64062 z m -315.41119,-51.34869 c 0.85938,-0.34677 2.26563,-0.34677 3.125,0 0.85938,0.34676 0.15625,0.63048 -1.5625,0.63048 -1.71875,0 -2.42187,-0.28372 -1.5625,-0.63048 z m 84.56242,-53.54715 c 10e-4,-10.3125 0.19537,-14.36492 0.43024,-9.00537 0.23488,5.35955 0.23345,13.79705 -0.004,18.75 -0.23606,4.95295 -0.42823,0.56787 -0.42649,-9.74463 z"
         id="path3501"
         inkscape:connector-curvature="0" />
      <path
         style="fill:#000000"
         d="m -455.77008,952.93682 c 0.90233,-0.36109 1.98047,-0.31668 2.39583,0.0987 0.41537,0.41536 -0.32292,0.7108 -1.64062,0.65652 -1.45619,-0.06 -1.75238,-0.35618 -0.75521,-0.75521 z m -124.29804,-34.77111 c 0.003,-7.5625 0.2087,-10.49509 0.45751,-6.51686 0.24881,3.97823 0.2465,10.16573 -0.005,13.75 -0.25176,3.58427 -0.45534,0.32936 -0.45251,-7.23314 z m 151.28552,-5.625 c 0,-10.65625 0.19171,-15.01563 0.42603,-9.6875 0.23431,5.32812 0.23431,14.04687 0,19.375 -0.23432,5.32812 -0.42603,0.96875 -0.42603,-9.6875 z m -208.23748,15.39611 c 0.90233,-0.36109 1.98046,-0.31668 2.39583,0.0987 0.41537,0.41536 -0.32292,0.7108 -1.64062,0.65652 -1.45619,-0.06 -1.75238,-0.35618 -0.75521,-0.75521 z m 30,0 c 0.90233,-0.36109 1.98046,-0.31668 2.39583,0.0987 0.41537,0.41536 -0.32292,0.7108 -1.64062,0.65652 -1.45619,-0.06 -1.75238,-0.35618 -0.75521,-0.75521 z m 203.75,0 c 0.90233,-0.36109 1.98047,-0.31668 2.39583,0.0987 0.41537,0.41536 -0.32292,0.7108 -1.64062,0.65652 -1.45619,-0.06 -1.75238,-0.35618 -0.75521,-0.75521 z m -134.66694,-23.62528 c 0.06,-1.45618 0.35617,-1.75237 0.7552,-0.75521 0.36108,0.90235 0.31669,1.98047 -0.0986,2.39584 -0.41536,0.41536 -0.7108,-0.32292 -0.65652,-1.64063 z"
         id="path3499"
         inkscape:connector-curvature="0" />
      <path
         style="fill:#000000"
         d="m -455.22321,941.67905 c 1.20313,-0.31441 3.17188,-0.31441 4.375,0 1.20313,0.31441 0.21875,0.57166 -2.1875,0.57166 -2.40625,0 -3.39062,-0.25725 -2.1875,-0.57166 z m -82.35005,-22.88834 c 0,-7.21875 0.2066,-10.17188 0.4591,-6.5625 0.2525,3.60937 0.2525,9.51562 0,13.125 -0.2525,3.60937 -0.4591,0.65625 -0.4591,-6.5625 z m 26.25514,-0.625 c 0.002,-7.5625 0.2087,-10.49509 0.45751,-6.51686 0.24881,3.97823 0.2465,10.16573 -0.005,13.75 -0.25176,3.58427 -0.45534,0.32936 -0.45251,-7.23314 z m -281.99705,9.70813 c 2.94005,-0.26406 7.44005,-0.26034 10,0.008 2.55995,0.2686 0.15446,0.48465 -5.34554,0.48011 -5.5,-0.005 -7.59451,-0.2243 -4.65446,-0.48836 z m 78.71696,-0.005 c 3.60938,-0.2525 9.51563,-0.2525 13.125,0 3.60938,0.2525 0.65625,0.45909 -6.5625,0.45909 -7.21875,0 -10.17187,-0.20659 -6.5625,-0.45909 z"
         id="path3497"
         inkscape:connector-curvature="0" />
      <path
         style="fill:#000000"
         d="m -553.81812,918.16571 c 0.003,-7.5625 0.2087,-10.49509 0.45751,-6.51686 0.24881,3.97823 0.2465,10.16573 -0.005,13.75 -0.25176,3.58427 -0.45534,0.32936 -0.45251,-7.23314 z m 235.03552,-5.625 c 0,-10.65625 0.19172,-15.01563 0.42603,-9.6875 0.23431,5.32812 0.23431,14.04687 0,19.375 -0.23431,5.32812 -0.42603,0.96875 -0.42603,-9.6875 z m -481.98748,15.39611 c 0.90234,-0.36109 1.98046,-0.31668 2.39583,0.0987 0.41536,0.41536 -0.32292,0.7108 -1.64063,0.65652 -1.45617,-0.06 -1.75237,-0.35618 -0.7552,-0.75521 z m 66.79687,-0.0567 c 2.57813,-0.26968 6.79688,-0.26968 9.375,0 2.57813,0.26968 0.46875,0.49033 -4.6875,0.49033 -5.15625,0 -7.26562,-0.22065 -4.6875,-0.49033 z"
         id="path3495"
         inkscape:connector-curvature="0" />
      <path
         style="fill:#000000"
         d="m -386.78571,998.79071 -3.125,-1.0008 3.4375,-0.12462 c 1.89063,-0.0685 3.4375,0.43792 3.4375,1.12542 0,0.6875 -0.14062,1.19393 -0.3125,1.1254 -0.17187,-0.0685 -1.71875,-0.57496 -3.4375,-1.1254 z m 16.44736,-30 c 0,-1.71875 0.28373,-2.42188 0.63049,-1.5625 0.34676,0.85937 0.34676,2.26562 0,3.125 -0.34676,0.85937 -0.63049,0.15625 -0.63049,-1.5625 z m -411.68173,-47.10389 c 0.90234,-0.36109 1.98046,-0.31668 2.39583,0.0987 0.41536,0.41536 -0.32292,0.7108 -1.64063,0.65652 -1.45617,-0.06 -1.75237,-0.35618 -0.7552,-0.75521 z m 127.93173,-9.14611 c 0,-1.71875 0.28373,-2.42188 0.63049,-1.5625 0.34676,0.85937 0.34676,2.26562 0,3.125 -0.34676,0.85937 -0.63049,0.15625 -0.63049,-1.5625 z m 0.0464,-46.875 c 0.0255,-2.0625 0.30562,-2.75492 0.62255,-1.53871 0.31692,1.21621 0.29609,2.90371 -0.0464,3.75 -0.3424,0.84629 -0.6017,-0.14879 -0.57622,-2.21129 z"
         id="path3493"
         inkscape:connector-curvature="0" />
      <path
         style="fill:#000000"
         d="m -733.34821,991.71286 c 0.85938,-0.34676 2.26563,-0.34676 3.125,0 0.85938,0.34676 0.15625,0.63049 -1.5625,0.63049 -1.71875,0 -2.42187,-0.28373 -1.5625,-0.63049 z m -18.77788,-63.82431 c 2.21904,-0.27615 6.15654,-0.28068 8.75,-0.0101 2.59345,0.27064 0.77788,0.49657 -4.03462,0.50211 -4.8125,0.005 -6.93442,-0.21585 -4.71538,-0.49198 z m 115.10601,-36.20173 c 0.90233,-0.36109 1.98046,-0.31668 2.39583,0.0987 0.41537,0.41537 -0.32292,0.71081 -1.64062,0.65653 -1.45619,-0.06 -1.75238,-0.35618 -0.75521,-0.75521 z m 30,0 c 0.90233,-0.36109 1.98046,-0.31668 2.39583,0.0987 0.41537,0.41537 -0.32292,0.71081 -1.64062,0.65653 -1.45619,-0.06 -1.75238,-0.35618 -0.75521,-0.75521 z m 203.67187,0.026 c 0.85938,-0.34676 2.26563,-0.34676 3.125,0 0.85938,0.34677 0.15625,0.63049 -1.5625,0.63049 -1.71875,0 -2.42187,-0.28372 -1.5625,-0.63049 z m 105.07813,-0.026 c 0.90233,-0.36109 1.98047,-0.31668 2.39583,0.0987 0.41537,0.41537 -0.32292,0.71081 -1.64062,0.65653 -1.45619,-0.06 -1.75238,-0.35618 -0.75521,-0.75521 z m -224.56827,-26.64611 c 0,-1.71875 0.28373,-2.42188 0.63049,-1.5625 0.34676,0.85937 0.34676,2.26562 0,3.125 -0.34676,0.85937 -0.63049,0.15625 -0.63049,-1.5625 z"
         id="path3491"
         inkscape:connector-curvature="0" />
      <path
         style="fill:#000000"
         d="m -738.34821,991.71286 c 0.85938,-0.34676 2.26563,-0.34676 3.125,0 0.85938,0.34676 0.15625,0.63049 -1.5625,0.63049 -1.71875,0 -2.42187,-0.28373 -1.5625,-0.63049 z m 262.91119,-21.15131 c 0.06,-1.45619 0.35617,-1.75238 0.7552,-0.75522 0.36108,0.90234 0.31668,1.98047 -0.0986,2.39584 -0.41536,0.41536 -0.7108,-0.32292 -0.65652,-1.64062 z m -316.66119,-48.90301 c 1.54688,-0.29794 4.07813,-0.29794 5.625,0 1.54688,0.29795 0.28125,0.54171 -2.8125,0.54171 -3.09375,0 -4.35937,-0.24376 -2.8125,-0.54171 z m 416.5625,-3.56578 c 4.73319,-1.0298 11.25,-1.20419 11.25,-0.30105 0,0.54945 -2.95312,0.93375 -6.5625,0.854 -3.60937,-0.0797 -5.71875,-0.32858 -4.6875,-0.55295 z m -198.4375,-42.71263 c 2.57813,-0.26969 6.79688,-0.26969 9.375,0 2.57813,0.26968 0.46875,0.49032 -4.6875,0.49032 -5.15625,0 -7.26562,-0.22064 -4.6875,-0.49032 z m 22.28619,-9.81859 c 0.06,-1.45618 0.35617,-1.75237 0.7552,-0.75521 0.36108,0.90235 0.31669,1.98047 -0.0986,2.39584 -0.41537,0.41536 -0.7108,-0.32292 -0.65652,-1.64063 z"
         id="path3489"
         inkscape:connector-curvature="0" />
      <path
         style="fill:#000000"
         d="m -296.3572,958.16571 c 0.005,-5.5 0.2243,-7.59451 0.48837,-4.65446 0.26405,2.94005 0.26033,7.44005 -0.009,10 -0.26858,2.55995 -0.48463,0.15446 -0.48009,-5.34554 z m -250.32982,-92.60417 c 0.06,-1.45618 0.35617,-1.75237 0.7552,-0.75521 0.36108,0.90235 0.31669,1.98047 -0.0986,2.39584 -0.41536,0.41536 -0.7108,-0.32292 -0.65652,-1.64063 z"
         id="path3487"
         inkscape:connector-curvature="0" />
      <path
         style="fill:#000000"
         d="m -475.43702,974.31155 c 0.06,-1.45619 0.35617,-1.75238 0.7552,-0.75522 0.36108,0.90234 0.31669,1.98047 -0.0986,2.39584 -0.41536,0.41536 -0.7108,-0.32292 -0.65652,-1.64062 z m 204.60339,-12.65491 c 1.55488,-0.29899 3.80488,-0.28764 5,0.0252 1.19511,0.31287 -0.0771,0.5575 -2.82708,0.54363 -2.75,-0.0139 -3.72781,-0.26986 -2.17292,-0.56885 z M -548.7826,912.54071 c 0,-10.65625 0.19171,-15.01563 0.42603,-9.6875 0.23431,5.32812 0.23431,14.04687 0,19.375 -0.23432,5.32812 -0.42603,0.96875 -0.42603,-9.6875 z m 6.25,0 c 0,-10.65625 0.19171,-15.01563 0.42603,-9.6875 0.23431,5.32812 0.23431,14.04687 0,19.375 -0.23432,5.32812 -0.42603,0.96875 -0.42603,-9.6875 z m 218.75,0 c 0,-10.65625 0.19172,-15.01563 0.42603,-9.6875 0.23431,5.32812 0.23431,14.04687 0,19.375 -0.23431,5.32812 -0.42603,0.96875 -0.42603,-9.6875 z m -385.73748,10.39611 c 0.90233,-0.36109 1.98047,-0.31668 2.39583,0.0987 0.41537,0.41536 -0.32292,0.7108 -1.64062,0.65652 -1.45619,-0.06 -1.75238,-0.35618 -0.75521,-0.75521 z m -109.45313,-1.32305 c 4.64063,-0.24051 12.23438,-0.24051 16.875,0 4.64063,0.24051 0.84375,0.43729 -8.4375,0.43729 -9.28125,0 -13.07812,-0.19678 -8.4375,-0.43729 z m 301.03619,-56.05223 c 0.06,-1.45618 0.35617,-1.75237 0.7552,-0.75521 0.36108,0.90235 0.31669,1.98047 -0.0986,2.39584 -0.41536,0.41536 -0.7108,-0.32292 -0.65652,-1.64063 z m -238.53619,-12.66615 c 1.89063,-0.2864 4.98438,-0.2864 6.875,0 1.89063,0.28641 0.34375,0.52074 -3.4375,0.52074 -3.78125,0 -5.32812,-0.23433 -3.4375,-0.52074 z m -44.29687,-7.45857 c 0.90234,-0.36109 1.98046,-0.31668 2.39583,0.0987 0.41536,0.41537 -0.32292,0.71081 -1.64063,0.65653 -1.45617,-0.06 -1.75237,-0.35618 -0.7552,-0.75521 z"
         id="path3485"
         inkscape:connector-curvature="0" />
      <path
         style="fill:#000000"
         d="m -620.84821,997.96286 c 0.85938,-0.34676 2.26563,-0.34676 3.125,0 0.85938,0.34676 0.15625,0.63049 -1.5625,0.63049 -1.71875,0 -2.42187,-0.28373 -1.5625,-0.63049 z m 324.37773,-26.04715 c 0.0139,-2.75 0.26986,-3.72781 0.56885,-2.17292 0.29898,1.55488 0.28763,3.80488 -0.0252,5 -0.31287,1.19511 -0.5575,-0.0771 -0.54363,-2.82708 z m -288.56212,-59.375 c 0,-10.65625 0.19171,-15.01563 0.42603,-9.6875 0.23431,5.32812 0.23431,14.04687 0,19.375 -0.23432,5.32812 -0.42603,0.96875 -0.42603,-9.6875 z m 78.75,0 c 0,-10.65625 0.19171,-15.01563 0.42603,-9.6875 0.23431,5.32812 0.23431,14.04687 0,19.375 -0.23432,5.32812 -0.42603,0.96875 -0.42603,-9.6875 z"
         id="path3483"
         inkscape:connector-curvature="0" />
      <path
         style="fill:#000000"
         d="m -531.68702,1001.8115 c 0.06,-1.4561 0.35617,-1.7523 0.7552,-0.7552 0.36108,0.9024 0.31669,1.9805 -0.0986,2.3959 -0.41536,0.4153 -0.7108,-0.323 -0.65652,-1.6407 z m 221.25,-17.49995 c 0.06,-1.45619 0.35617,-1.75238 0.7552,-0.75522 0.36108,0.90234 0.31669,1.98047 -0.0986,2.39584 -0.41536,0.41536 -0.7108,-0.32292 -0.65652,-1.64062 z m -232.1986,-6.77084 c 0,-4.46875 0.22687,-6.29688 0.50416,-4.0625 0.27727,2.23437 0.27727,5.89062 0,8.125 -0.27729,2.23437 -0.50416,0.40625 -0.50416,-4.0625 z m 118.85302,-65 c 0,-10.65625 0.19171,-15.01563 0.42603,-9.6875 0.23431,5.32812 0.23431,14.04687 0,19.375 -0.23432,5.32812 -0.42603,0.96875 -0.42603,-9.6875 z m -405.73748,16.64611 c 0.90234,-0.36109 1.98046,-0.31668 2.39583,0.0987 0.41536,0.41536 -0.32292,0.7108 -1.64063,0.65652 -1.45617,-0.06 -1.75237,-0.35618 -0.7552,-0.75521 z m 474.92187,-32.52828 c 1.54688,-0.29794 4.07813,-0.29794 5.625,0 1.54688,0.29794 0.28125,0.54171 -2.8125,0.54171 -3.09375,0 -4.35937,-0.24377 -2.8125,-0.54171 z m 16.89219,-0.0148 c 1.90007,-0.28732 4.71257,-0.27964 6.25,0.0171 1.53742,0.29671 -0.0172,0.53178 -3.45469,0.5224 -3.4375,-0.009 -4.69539,-0.25214 -2.79531,-0.53946 z"
         id="path3481"
         inkscape:connector-curvature="0" />
      <path
         style="fill:#000000"
         d="m -473.87553,991.91571 c 0.005,-4.8125 0.23147,-6.62807 0.50207,-4.03463 0.27059,2.59347 0.26605,6.53097 -0.01,8.75 -0.27614,2.21906 -0.49754,0.0971 -0.49199,-4.71537 z m 177.48991,-6.875 c 0,-4.46875 0.22687,-6.29688 0.50416,-4.0625 0.27727,2.23437 0.27727,5.89062 0,8.125 -0.27729,2.23437 -0.50416,0.40625 -0.50416,-4.0625 z"
         id="path3479"
         inkscape:connector-curvature="0" />
      <path
         style="fill:#000000"
         d="m -542.79202,988.16571 c 0.0255,-2.0625 0.30562,-2.75492 0.62255,-1.53871 0.31692,1.21621 0.29609,2.90371 -0.0464,3.75 -0.34241,0.84629 -0.60171,-0.14879 -0.57624,-2.21129 z m 232.45367,0.625 c 0,-1.71875 0.28373,-2.42188 0.63049,-1.5625 0.34676,0.85937 0.34676,2.26562 0,3.125 -0.34676,0.85937 -0.63049,0.15625 -0.63049,-1.5625 z m -84.18173,-52.10389 c 0.90233,-0.36109 1.98047,-0.31668 2.39583,0.0987 0.41537,0.41536 -0.32292,0.7108 -1.64062,0.65652 -1.45619,-0.06 -1.75238,-0.35618 -0.75521,-0.75521 z m -211.01563,-69.14611 -10.625,-0.78424 10.23873,-0.23288 c 5.74387,-0.13064 10.57788,0.31588 11.01127,1.01712 0.4249,0.6875 0.59872,1.14521 0.38627,1.01712 -0.21245,-0.12808 -5.16752,-0.58579 -11.01127,-1.01712 z m -186.5625,-22.07785 c 0.85938,-0.34677 2.26563,-0.34677 3.125,0 0.85938,0.34676 0.15625,0.63048 -1.5625,0.63048 -1.71875,0 -2.42187,-0.28372 -1.5625,-0.63048 z"
         id="path3477"
         inkscape:connector-curvature="0" />
      <path
         style="fill:#000000"
         d="m -531.68702,996.81155 c 0.06,-1.45619 0.35617,-1.75238 0.7552,-0.75522 0.36108,0.90234 0.31669,1.98047 -0.0986,2.39584 -0.41536,0.41536 -0.7108,-0.32292 -0.65652,-1.64062 z m -249.1388,-6.42675 c 2.24668,-0.2782 5.62168,-0.27246 7.5,0.0127 1.87831,0.28522 0.0401,0.51284 -4.08489,0.50582 -4.125,-0.008 -5.6618,-0.24037 -3.41511,-0.51857 z m 306.6388,-43.57326 c 0.06,-1.45618 0.35617,-1.75237 0.7552,-0.75521 0.36108,0.90235 0.31669,1.98047 -0.0986,2.39584 -0.41536,0.41536 -0.7108,-0.32292 -0.65652,-1.64063 z m 9.15442,-34.27083 c 0,-10.65625 0.19171,-15.01563 0.42603,-9.6875 0.23431,5.32812 0.23431,14.04687 0,19.375 -0.23432,5.32812 -0.42603,0.96875 -0.42603,-9.6875 z m -359.48748,16.64611 c 0.90234,-0.36109 1.98046,-0.31668 2.39583,0.0987 0.41536,0.41536 -0.32292,0.7108 -1.64063,0.65652 -1.45617,-0.06 -1.75237,-0.35618 -0.7552,-0.75521 z m 104.92187,-6.22396 c 0.85938,-0.34677 2.26563,-0.34677 3.125,0 0.85938,0.34676 0.15625,0.63048 -1.5625,0.63048 -1.71875,0 -2.42187,-0.28372 -1.5625,-0.63048 z m 124.46259,-46.67215 c 0,-4.46875 0.22687,-6.29688 0.50416,-4.0625 0.27728,2.23437 0.27728,5.89062 0,8.125 -0.27729,2.23437 -0.50416,0.40625 -0.50416,-4.0625 z m -0.0127,-21.875 c 0.008,-4.125 0.24037,-5.6618 0.51857,-3.41511 0.2782,2.24668 0.27247,5.62168 -0.0127,7.5 -0.28522,1.87831 -0.51284,0.0401 -0.50582,-4.08489 z"
         id="path3475"
         inkscape:connector-curvature="0" />
      <path
         style="fill:#000000"
         d="m -542.83835,993.79071 c 0,-1.71875 0.28373,-2.42188 0.63049,-1.5625 0.34676,0.85937 0.34676,2.26562 0,3.125 -0.34676,0.85937 -0.63049,0.15625 -0.63049,-1.5625 z m -321.68173,-73.35389 c 0.90234,-0.36109 1.98046,-0.31668 2.39583,0.0987 0.41536,0.41536 -0.32292,0.7108 -1.64063,0.65652 -1.45618,-0.06 -1.75237,-0.35618 -0.7552,-0.75521 z m 253.67187,-57.56137 c 2.92188,-0.26316 7.70313,-0.26316 10.625,0 2.92188,0.26317 0.53125,0.47849 -5.3125,0.47849 -5.84375,0 -8.23437,-0.21532 -5.3125,-0.47849 z"
         id="path3473"
         inkscape:connector-curvature="0" />
      <path
         style="fill:#000000"
         d="m -310.22048,996.91571 c 0.0139,-2.75 0.26986,-3.72781 0.56885,-2.17292 0.29898,1.55488 0.28763,3.80488 -0.0252,5 -0.31287,1.19511 -0.5575,-0.0771 -0.54363,-2.82708 z m -221.46654,-5.10416 c 0.06,-1.45619 0.35617,-1.75238 0.7552,-0.75522 0.36108,0.90234 0.31669,1.98047 -0.0986,2.39584 -0.41536,0.41536 -0.7108,-0.32292 -0.65652,-1.64062 z m 186.64451,-77.39584 c 0.002,-9.625 0.19816,-13.39727 0.43604,-8.38281 0.23787,5.01445 0.23627,12.88945 -0.004,17.5 -0.23961,4.61054 -0.43424,0.50781 -0.43229,-9.11719 z m 98.75991,-1.875 c 0,-10.65625 0.19172,-15.01563 0.42603,-9.6875 0.23431,5.32812 0.23431,14.04687 0,19.375 -0.23431,5.32812 -0.42603,0.96875 -0.42603,-9.6875 z m -250.04657,-6.875 c 0.004,-6.875 0.21316,-9.52802 0.46646,-5.8956 0.25331,3.63242 0.25065,9.25742 -0.006,12.5 -0.25622,3.24258 -0.46346,0.2706 -0.46021,-6.6044 z m -140.69091,-20.22889 c 0.90233,-0.36109 1.98046,-0.31668 2.39583,0.0987 0.41537,0.41537 -0.32292,0.71081 -1.64062,0.65653 -1.45619,-0.06 -1.75238,-0.35618 -0.75521,-0.75521 z m 135,0 c 0.90233,-0.36109 1.98047,-0.31668 2.39583,0.0987 0.41537,0.41537 -0.32292,0.71081 -1.64062,0.65653 -1.45619,-0.06 -1.75238,-0.35618 -0.75521,-0.75521 z m -114.35546,-9.77111 c 0.005,-4.8125 0.23148,-6.62808 0.50208,-4.03462 0.27059,2.59346 0.26605,6.53096 -0.01,8.75 -0.27622,2.21904 -0.49762,0.0971 -0.49208,-4.71538 z m -0.01,-20.625 c 0,-4.46875 0.22687,-6.29688 0.50416,-4.0625 0.27727,2.23437 0.27727,5.89062 0,8.125 -0.27729,2.23437 -0.50416,0.40625 -0.50416,-4.0625 z m -167.58768,-9.61166 c 1.20313,-0.31441 3.17188,-0.31441 4.375,0 1.20313,0.31441 0.21875,0.57166 -2.1875,0.57166 -2.40625,0 -3.39062,-0.25725 -2.1875,-0.57166 z"
         id="path3471"
         inkscape:connector-curvature="0" />
      <path
         style="fill:#000000"
         d="m -276.2826,912.54071 c 0,-10.65625 0.19172,-15.01563 0.42603,-9.6875 0.23431,5.32812 0.23431,14.04687 0,19.375 -0.23431,5.32812 -0.42603,0.96875 -0.42603,-9.6875 z m -195.04066,-6.25 c 0,-7.21875 0.2066,-10.17188 0.4591,-6.5625 0.2525,3.60937 0.2525,9.51562 0,13.125 -0.2525,3.60937 -0.4591,0.65625 -0.4591,-6.5625 z"
         id="path3469"
         inkscape:connector-curvature="0" />
      <path
         style="fill:#000000"
         d="m -542.83835,1000.0407 c 0,-1.71874 0.28373,-2.42187 0.63049,-1.56249 0.34676,0.85937 0.34676,2.26559 0,3.12499 -0.34676,0.8594 -0.63049,0.1563 -0.63049,-1.5625 z m -206.11107,-3.36623 c 1.21621,-0.31692 2.90371,-0.29609 3.75,0.0464 0.84629,0.34241 -0.14879,0.60171 -2.21129,0.57624 -2.0625,-0.0255 -2.75492,-0.30563 -1.53871,-0.62256 z m 471.22621,-56.29434 c 2.57813,-0.26969 6.79688,-0.26969 9.375,0 2.57813,0.26968 0.46875,0.49032 -4.6875,0.49032 -5.15625,0 -7.26562,-0.22064 -4.6875,-0.49032 z m -161.0853,-32.21442 c 0.002,-8.25 0.20477,-11.46233 0.44956,-7.13852 0.24479,4.32382 0.24278,11.07382 -0.005,15 -0.24675,3.92619 -0.44702,0.38852 -0.44456,-7.86148 z m -36.27657,-3.125 c 0,-6.53125 0.21067,-9.20313 0.46817,-5.9375 0.2575,3.26562 0.2575,8.60937 0,11.875 -0.2575,3.26562 -0.46817,0.59375 -0.46817,-5.9375 z m -298.23009,-59.66687 c 2.94005,-0.26406 7.44005,-0.26034 10,0.008 2.55995,0.2686 0.15446,0.48465 -5.34554,0.48011 -5.5,-0.005 -7.59451,-0.2243 -4.65446,-0.48836 z"
         id="path3467"
         inkscape:connector-curvature="0" />
      <path
         style="fill:#000000"
         d="m -392.09821,986.71286 c 0.85938,-0.34676 2.26563,-0.34676 3.125,0 0.85938,0.34676 0.15625,0.63049 -1.5625,0.63049 -1.71875,0 -2.42187,-0.28373 -1.5625,-0.63049 z m -42.93439,-74.17215 c 0,-10.65625 0.19171,-15.01563 0.42603,-9.6875 0.23431,5.32812 0.23431,14.04687 0,19.375 -0.23432,5.32812 -0.42603,0.96875 -0.42603,-9.6875 z m 15.94425,0 c 0,-1.71875 0.28373,-2.42188 0.63049,-1.5625 0.34676,0.85937 0.34676,2.26562 0,3.125 -0.34676,0.85937 -0.63049,0.15625 -0.63049,-1.5625 z m -200.94744,-46.875 c 10e-4,-10.3125 0.19537,-14.36492 0.43024,-9.00537 0.23488,5.35955 0.23345,13.79705 -0.004,18.75 -0.23606,4.95295 -0.42823,0.56787 -0.42649,-9.74463 z"
         id="path3465"
         inkscape:connector-curvature="0" />
      <path
         style="fill:#000000"
         d="m -350.22321,892.86698 c 3.95313,-0.24807 10.42188,-0.24807 14.375,0 3.95313,0.24806 0.71875,0.45102 -7.1875,0.45102 -7.90625,0 -11.14062,-0.20296 -7.1875,-0.45102 z"
         id="path3463"
         inkscape:connector-curvature="0" />
      <path
         style="fill:#000000"
         d="m -270.84821,1000.4629 c 0.85938,-0.3468 2.26563,-0.3468 3.125,0 0.85938,0.3467 0.15625,0.6304 -1.5625,0.6304 -1.71875,0 -2.42187,-0.2837 -1.5625,-0.6304 z m -1.71479,-82.92219 c 0,-7.90625 0.20297,-11.14063 0.45103,-7.1875 0.24806,3.95312 0.24806,10.42187 0,14.375 -0.24806,3.95312 -0.45103,0.71875 -0.45103,-7.1875 z"
         id="path3461"
         inkscape:connector-curvature="0" />
      <path
         style="fill:#000000"
         d="m -343.38632,931.64815 c 1.03255,-0.73348 1.6563,-6.51143 1.93319,-17.90766 l 0.40879,-16.82478 -0.0582,17.39754 c -0.0481,14.37054 -0.38443,17.48631 -1.93319,17.90767 -1.34835,0.36684 -1.44682,0.20596 -0.35061,-0.57277 z m 93.32781,-23.48244 c 0.003,-8.25 0.20477,-11.46233 0.44956,-7.13852 0.24479,4.32382 0.24278,11.07382 -0.005,15 -0.24675,3.92619 -0.44702,0.38852 -0.44456,-7.86148 z m -250.02657,-1.875 c 0,-6.53125 0.21067,-9.20313 0.46817,-5.9375 0.2575,3.26562 0.2575,8.60937 0,11.875 -0.2575,3.26562 -0.46817,0.59375 -0.46817,-5.9375 z"
         id="path3459"
         inkscape:connector-curvature="0" />
      <path
         style="fill:#000000"
         d="m -781.47321,852.92905 c 1.20313,-0.31441 3.17188,-0.31441 4.375,0 1.20313,0.31441 0.21875,0.57166 -2.1875,0.57166 -2.40625,0 -3.39062,-0.25725 -2.1875,-0.57166 z m 144.45313,-7.49223 c 0.90233,-0.36109 1.98046,-0.31668 2.39583,0.0987 0.41537,0.41537 -0.32292,0.71081 -1.64062,0.65653 -1.45619,-0.06 -1.75238,-0.35618 -0.75521,-0.75521 z m 135,0 c 0.90233,-0.36109 1.98047,-0.31668 2.39583,0.0987 0.41537,0.41537 -0.32292,0.71081 -1.64062,0.65653 -1.45619,-0.06 -1.75238,-0.35618 -0.75521,-0.75521 z"
         id="path3457"
         inkscape:connector-curvature="0" />
      <path
         style="fill:#000000"
         d="m -276.15186,991.30502 c -0.43792,-0.70857 0.0639,-0.91812 1.17623,-0.49126 2.16552,0.83099 2.56173,1.72695 0.76369,1.72695 -0.64692,0 -1.5199,-0.55606 -1.93992,-1.23569 z m -303.42329,-1.47487 c 0.72638,-0.72638 2.05853,-1.07474 2.96033,-0.77414 0.93619,0.31206 0.36956,0.87867 -1.32069,1.32069 -2.07919,0.54371 -2.56723,0.38103 -1.63964,-0.54655 z m 118.26664,-72.91444 c 0.002,-8.25 0.20477,-11.46233 0.44956,-7.13852 0.24479,4.32382 0.24278,11.07382 -0.005,15 -0.24675,3.92619 -0.44702,0.38852 -0.44456,-7.86148 z m -213.2897,3.54715 c 0.85938,-0.34677 2.26563,-0.34677 3.125,0 0.85938,0.34676 0.15625,0.63048 -1.5625,0.63048 -1.71875,0 -2.42187,-0.28372 -1.5625,-0.63048 z m 83.31242,-54.79715 c 10e-4,-10.3125 0.19537,-14.36492 0.43024,-9.00537 0.23488,5.35955 0.23345,13.79705 -0.004,18.75 -0.23606,4.95295 -0.42823,0.56787 -0.42649,-9.74463 z m 19.20997,5.96909 c 2.24668,-0.27821 5.62169,-0.27246 7.5,0.0127 1.87831,0.28521 0.0401,0.51283 -4.08489,0.50582 -4.125,-0.007 -5.6618,-0.24038 -3.41511,-0.51858 z"
         id="path3455"
         inkscape:connector-curvature="0" />
      <path
         style="fill:#000000"
         d="m -417.93702,999.31155 c 0.06,-1.45619 0.35617,-1.75238 0.7552,-0.75522 0.36108,0.90234 0.31669,1.98047 -0.0986,2.39587 -0.41536,0.4153 -0.7108,-0.323 -0.65652,-1.64065 z m 40.81094,-77.673 c 2.21903,-0.27615 6.15653,-0.28068 8.75,-0.0101 2.59345,0.27059 0.77787,0.49653 -4.03463,0.50207 -4.8125,0.005 -6.93443,-0.21585 -4.71537,-0.49199 z"
         id="path3453"
         inkscape:connector-curvature="0" />
      <path
         style="fill:#000000"
         d="m -455.77008,951.68682 c 0.90233,-0.36109 1.98047,-0.31668 2.39583,0.0987 0.41537,0.41536 -0.32292,0.7108 -1.64062,0.65652 -1.45619,-0.06 -1.75238,-0.35618 -0.75521,-0.75521 z M -581.313,917.54071 c 0,-7.90625 0.20297,-11.14063 0.45103,-7.1875 0.24806,3.95312 0.24806,10.42187 0,14.375 -0.24806,3.95312 -0.45103,0.71875 -0.45103,-7.1875 z m 153.7804,-5 c 0,-10.65625 0.19171,-15.01563 0.42603,-9.6875 0.23431,5.32812 0.23431,14.04687 0,19.375 -0.23432,5.32812 -0.42603,0.96875 -0.42603,-9.6875 z m -209.48748,16.64611 c 0.90233,-0.36109 1.98046,-0.31668 2.39583,0.0987 0.41537,0.41536 -0.32292,0.7108 -1.64062,0.65652 -1.45619,-0.06 -1.75238,-0.35618 -0.75521,-0.75521 z m -156.95313,-2.55669 c 2.57813,-0.26969 6.79688,-0.26969 9.375,0 2.57813,0.26968 0.46875,0.49032 -4.6875,0.49032 -5.15625,0 -7.26562,-0.22064 -4.6875,-0.49032 z m 79.375,-0.011 c 3.60938,-0.2525 9.51563,-0.2525 13.125,0 3.60938,0.25251 0.65625,0.4591 -6.5625,0.4591 -7.21875,0 -10.17187,-0.20659 -6.5625,-0.4591 z m 45.07813,-6.18234 c 0.90233,-0.36108 1.98046,-0.31668 2.39583,0.0987 0.41537,0.41537 -0.32292,0.7108 -1.64062,0.65653 -1.45619,-0.06 -1.75238,-0.35618 -0.75521,-0.75521 z m 384.18173,-7.89607 c 0,-1.71875 0.28373,-2.42188 0.63049,-1.5625 0.34676,0.85937 0.34676,2.26562 0,3.125 -0.34676,0.85937 -0.63049,0.15625 -0.63049,-1.5625 z"
         id="path3451"
         inkscape:connector-curvature="0" />
      <path
         style="fill:#000000"
         d="m -538.81812,916.91571 c 0.003,-7.5625 0.2087,-10.49509 0.45751,-6.51686 0.24881,3.97823 0.2465,10.16573 -0.005,13.75 -0.25176,3.58427 -0.45534,0.32936 -0.45251,-7.23314 z m 224.72977,-4.375 c 0,-1.71875 0.28373,-2.42188 0.63049,-1.5625 0.34676,0.85937 0.34676,2.26562 0,3.125 -0.34676,0.85937 -0.63049,0.15625 -0.63049,-1.5625 z m -322.93173,-17.10389 c 0.90233,-0.36109 1.98046,-0.31668 2.39583,0.0987 0.41537,0.41537 -0.32292,0.71081 -1.64062,0.65653 -1.45619,-0.06 -1.75238,-0.35618 -0.75521,-0.75521 z"
         id="path3449"
         inkscape:connector-curvature="0" />
      <path
         style="fill:#000000"
         d="m -763.27008,990.43682 c 0.90234,-0.36109 1.98046,-0.31669 2.39583,0.0986 0.41536,0.41537 -0.32292,0.7108 -1.64063,0.65652 -1.45617,-0.06 -1.75237,-0.35617 -0.7552,-0.7552 z m 394.22806,-22.27111 c 0.0255,-2.0625 0.30562,-2.75492 0.62255,-1.53871 0.31692,1.21621 0.29609,2.90371 -0.0464,3.75 -0.34241,0.84629 -0.60171,-0.14879 -0.57623,-2.21129 z m -86.18119,-25.23666 c 1.20313,-0.31441 3.17188,-0.31441 4.375,0 1.20313,0.31441 0.21875,0.57166 -2.1875,0.57166 -2.40625,0 -3.39062,-0.25725 -2.1875,-0.57166 z M -510.063,917.54071 c 0,-7.90625 0.20297,-11.14063 0.45103,-7.1875 0.24806,3.95312 0.24806,10.42187 0,14.375 -0.24806,3.95312 -0.45103,0.71875 -0.45103,-7.1875 z m -291.95708,9.14611 c 0.90234,-0.36109 1.98046,-0.31668 2.39583,0.0987 0.41536,0.41536 -0.32292,0.7108 -1.64063,0.65652 -1.45617,-0.06 -1.75237,-0.35618 -0.7552,-0.75521 z m 68.04687,-0.0567 c 2.57813,-0.26968 6.79688,-0.26968 9.375,0 2.57813,0.26968 0.46875,0.49033 -4.6875,0.49033 -5.15625,0 -7.26562,-0.22065 -4.6875,-0.49033 z m -95.61043,-1.2235 c 1.5549,-0.29899 3.8049,-0.28764 5,0.0252 1.19511,0.31287 -0.0771,0.55749 -2.82707,0.54362 -2.75,-0.0139 -3.72782,-0.26986 -2.17293,-0.56885 z"
         id="path3447"
         inkscape:connector-curvature="0" />
      <path
         style="fill:#000000"
         d="m -387.69942,996.67447 c 1.21621,-0.31692 2.90371,-0.29609 3.75,0.0464 0.84629,0.34241 -0.14879,0.60171 -2.21129,0.57624 -2.0625,-0.0255 -2.75492,-0.30563 -1.53871,-0.62256 z m 114.33037,-6.78887 c 0.84793,-0.85428 1.85655,-1.23834 2.24141,-0.85348 0.38487,0.38486 -0.30888,1.08382 -1.54166,1.55323 -1.7815,0.67835 -1.92507,0.53477 -0.69975,-0.69975 z m -279.19907,-71.71989 c 0.003,-7.5625 0.2087,-10.49509 0.45751,-6.51686 0.24881,3.97823 0.2465,10.16573 -0.005,13.75 -0.25176,3.58427 -0.45534,0.32936 -0.45251,-7.23314 z m 232.53552,-5.625 c 0,-10.65625 0.19172,-15.01563 0.42603,-9.6875 0.23431,5.32812 0.23431,14.04687 0,19.375 -0.23431,5.32812 -0.42603,0.96875 -0.42603,-9.6875 z m -502.06561,12.92215 c 0.85938,-0.34677 2.26563,-0.34677 3.125,0 0.85938,0.34676 0.15625,0.63048 -1.5625,0.63048 -1.71875,0 -2.42187,-0.28372 -1.5625,-0.63048 z m 40.07813,-2.52604 c 0.90234,-0.36109 1.98046,-0.31668 2.39583,0.0987 0.41536,0.41536 -0.32292,0.7108 -1.64063,0.65652 -1.45617,-0.06 -1.75237,-0.35618 -0.7552,-0.75521 z m 129.18173,-10.39611 c 0,-1.71875 0.28373,-2.42188 0.63049,-1.5625 0.34676,0.85937 0.34676,2.26562 0,3.125 -0.34676,0.85937 -0.63049,0.15625 -0.63049,-1.5625 z m 0,-47.5 c 0,-1.71875 0.28373,-2.42188 0.63049,-1.5625 0.34676,0.85937 0.34676,2.26562 0,3.125 -0.34676,0.85937 -0.63049,0.15625 -0.63049,-1.5625 z"
         id="path3445"
         inkscape:connector-curvature="0" />
      <path
         style="fill:#000000"
         d="m -733.34821,992.96286 c 0.85938,-0.34676 2.26563,-0.34676 3.125,0 0.85938,0.34676 0.15625,0.63049 -1.5625,0.63049 -1.71875,0 -2.42187,-0.28373 -1.5625,-0.63049 z"
         id="path3443"
         inkscape:connector-curvature="0" />
      <path
         style="fill:#000000"
         d="m -752.12609,926.63855 c 2.21904,-0.27615 6.15654,-0.28068 8.75,-0.0101 2.59345,0.27064 0.77788,0.49657 -4.03462,0.50211 -4.8125,0.005 -6.93442,-0.21585 -4.71538,-0.49198 z m -38.70755,-3.73192 c 1.5549,-0.29899 3.8049,-0.28764 5,0.0252 1.19511,0.31287 -0.0771,0.55749 -2.82707,0.54362 -2.75,-0.0139 -3.72782,-0.26986 -2.17293,-0.56885 z"
         id="path3441"
         inkscape:connector-curvature="0" />
      <path
         style="fill:#000000"
         d="m -637.02008,931.68682 c 0.90233,-0.36109 1.98046,-0.31668 2.39583,0.0987 0.41537,0.41536 -0.32292,0.7108 -1.64062,0.65652 -1.45619,-0.06 -1.75238,-0.35618 -0.75521,-0.75521 z"
         id="path3439"
         inkscape:connector-curvature="0" />
      <path
         style="fill:#000000"
         d="m -297.6072,958.16571 c 0.005,-5.5 0.2243,-7.59451 0.48837,-4.65446 0.26405,2.94005 0.26033,7.44005 -0.009,10 -0.26858,2.55995 -0.48463,0.15446 -0.48009,-5.34554 z m -527.59222,-35.24124 c 1.21621,-0.31693 2.90371,-0.29609 3.75,0.0463 0.84629,0.34241 -0.14879,0.60172 -2.21129,0.57624 -2.0625,-0.0255 -2.75492,-0.30562 -1.53871,-0.62255 z m 449.35121,-3.788 c 2.23438,-0.27729 5.89063,-0.27729 8.125,0 2.23438,0.27728 0.40625,0.50415 -4.0625,0.50415 -4.46875,0 -6.29687,-0.22687 -4.0625,-0.50415 z m -198.125,-45.00634 c 2.57813,-0.26969 6.79688,-0.26969 9.375,0 2.57813,0.26968 0.46875,0.49032 -4.6875,0.49032 -5.15625,0 -7.26562,-0.22064 -4.6875,-0.49032 z m 26.03619,-8.56859 c 0.06,-1.45618 0.35617,-1.75237 0.7552,-0.75521 0.36108,0.90235 0.31669,1.98047 -0.0986,2.39584 -0.41537,0.41536 -0.7108,-0.32292 -0.65652,-1.64063 z"
         id="path3437"
         inkscape:connector-curvature="0" />
      <path
         style="fill:#000000"
         d="m -740.19942,992.92447 c 1.21621,-0.31692 2.90371,-0.29609 3.75,0.0464 0.84629,0.34241 -0.14879,0.60171 -2.21129,0.57624 -2.0625,-0.0255 -2.75492,-0.30563 -1.53871,-0.62256 z m 442.47894,-21.00876 c 0.0139,-2.75 0.26986,-3.72781 0.56885,-2.17292 0.29898,1.55488 0.28763,3.80488 -0.0252,5 -0.31287,1.19511 -0.5575,-0.0771 -0.54363,-2.82708 z m 26.88685,-9.00907 c 1.55488,-0.29899 3.80488,-0.28764 5,0.0252 1.19511,0.31287 -0.0771,0.5575 -2.82708,0.54363 -2.75,-0.0139 -3.72781,-0.26986 -2.17292,-0.56885 z M -550.0326,912.54071 c 0,-10.65625 0.19171,-15.01563 0.42603,-9.6875 0.23431,5.32812 0.23431,14.04687 0,19.375 -0.23432,5.32812 -0.42603,0.96875 -0.42603,-9.6875 z m 8.75,0 c 0,-10.65625 0.19171,-15.01563 0.42603,-9.6875 0.23431,5.32812 0.23431,14.04687 0,19.375 -0.23432,5.32812 -0.42603,0.96875 -0.42603,-9.6875 z m 218.75,0 c 0,-10.65625 0.19172,-15.01563 0.42603,-9.6875 0.23431,5.32812 0.23431,14.04687 0,19.375 -0.23431,5.32812 -0.42603,0.96875 -0.42603,-9.6875 z m -510.73748,15.39611 c 0.90234,-0.36109 1.98046,-0.31668 2.39583,0.0987 0.41536,0.41536 -0.32292,0.7108 -1.64063,0.65652 -1.45617,-0.06 -1.75237,-0.35618 -0.7552,-0.75521 z m 19.34251,-5.07121 c 3.97823,-0.24881 10.16573,-0.2465 13.75,0.005 3.58427,0.25163 0.32936,0.45521 -7.23314,0.45239 -7.5625,-0.003 -10.49509,-0.20871 -6.51686,-0.45752 z m 163.58922,-10.3249 c 0,-1.71875 0.28373,-2.42188 0.63049,-1.5625 0.34676,0.85937 0.34676,2.26562 0,3.125 -0.34676,0.85937 -0.63049,0.15625 -0.63049,-1.5625 z m 131.15133,-46.97917 c 0.06,-1.45618 0.35617,-1.75237 0.7552,-0.75521 0.36108,0.90235 0.31669,1.98047 -0.0986,2.39584 -0.41536,0.41536 -0.7108,-0.32292 -0.65652,-1.64063 z m -237.28619,-13.91615 c 1.89063,-0.2864 4.98438,-0.2864 6.875,0 1.89063,0.28641 0.34375,0.52074 -3.4375,0.52074 -3.78125,0 -5.32812,-0.23433 -3.4375,-0.52074 z"
         id="path3435"
         inkscape:connector-curvature="0" />
      <path
         style="fill:#000000"
         d="m -620.19942,996.67447 c 1.21621,-0.31692 2.90371,-0.29609 3.75,0.0464 0.84628,0.34241 -0.14879,0.60171 -2.21129,0.57624 -2.0625,-0.0255 -2.75492,-0.30563 -1.53871,-0.62256 z m 78.8138,-19.13376 c 0,-4.46875 0.22687,-6.29688 0.50416,-4.0625 0.27727,2.23437 0.27727,5.89062 0,8.125 -0.27729,2.23437 -0.50416,0.40625 -0.50416,-4.0625 z m 67.1986,-3.22916 c 0.06,-1.45619 0.35617,-1.75238 0.7552,-0.75522 0.36108,0.90234 0.31668,1.98047 -0.0986,2.39584 -0.41536,0.41536 -0.7108,-0.32292 -0.65652,-1.64062 z M -583.7826,912.54071 c 0,-10.65625 0.19171,-15.01563 0.42603,-9.6875 0.23431,5.32812 0.23431,14.04687 0,19.375 -0.23432,5.32812 -0.42603,0.96875 -0.42603,-9.6875 z m 76.25,0 c 0,-10.65625 0.19171,-15.01563 0.42603,-9.6875 0.23431,5.32812 0.23431,14.04687 0,19.375 -0.23432,5.32812 -0.42603,0.96875 -0.42603,-9.6875 z m -321.98748,15.39611 c 0.90234,-0.36109 1.98046,-0.31668 2.39583,0.0987 0.41536,0.41536 -0.32292,0.7108 -1.64063,0.65652 -1.45617,-0.06 -1.75237,-0.35618 -0.7552,-0.75521 z m 118.67187,-3.72396 c 0.85938,-0.34677 2.26563,-0.34677 3.125,0 0.85938,0.34676 0.15625,0.63048 -1.5625,0.63048 -1.71875,0 -2.42187,-0.28372 -1.5625,-0.63048 z m -39.0625,-25.42215 c 0.4249,-0.6875 1.02059,-1.25 1.32377,-1.25 0.30318,0 0.55123,0.5625 0.55123,1.25 0,0.6875 -0.5957,1.25 -1.32377,1.25 -0.72807,0 -0.97613,-0.5625 -0.55123,-1.25 z m 396.5625,-3.38217 c 1.54688,-0.29794 4.07813,-0.29794 5.625,0 1.54688,0.29794 0.28125,0.54171 -2.8125,0.54171 -3.09375,0 -4.35937,-0.24377 -2.8125,-0.54171 z m 15,0 c 1.54688,-0.29794 4.07813,-0.29794 5.625,0 1.54688,0.29794 0.28125,0.54171 -2.8125,0.54171 -3.09375,0 -4.35937,-0.24377 -2.8125,-0.54171 z"
         id="path3433"
         inkscape:connector-curvature="0" />
      <path
         style="fill:#000000"
         d="m -532.93702,1001.8115 c 0.06,-1.4561 0.35617,-1.7523 0.7552,-0.7552 0.36108,0.9024 0.31669,1.9805 -0.0986,2.3959 -0.41536,0.4153 -0.7108,-0.323 -0.65652,-1.6407 z m 60.07154,-10.20829 c 0.1764,-8.74354 0.7007,-7.77145 1.34838,2.5 0.20593,3.26562 -0.0515,5.93749 -0.5721,5.93749 -0.52058,0 -0.86991,-3.79687 -0.77628,-8.43749 z m 175.23994,-5.9375 c 0.005,-4.8125 0.23148,-6.62807 0.50208,-4.03463 0.27059,2.59347 0.26605,6.53097 -0.01,8.75 -0.27614,2.21906 -0.49754,0.0971 -0.49199,-4.71537 z m -488.14454,6.02111 c 0.90234,-0.36109 1.98046,-0.31669 2.39583,0.0986 0.41536,0.41537 -0.32292,0.7108 -1.64063,0.65652 -1.45617,-0.06 -1.75237,-0.35617 -0.7552,-0.7552 z m 211.74758,-2.14504 c 0.88649,-0.96191 1.80874,-1.56183 2.04947,-1.33316 0.74142,0.70433 -1.13768,3.08209 -2.43573,3.08209 -0.67404,0 -0.50021,-0.78701 0.38626,-1.74893 z m 32.48048,-1.37607 c 0.0255,-2.0625 0.30562,-2.75492 0.62255,-1.53871 0.31692,1.21621 0.29609,2.90371 -0.0464,3.75 -0.34241,0.84629 -0.60171,-0.14879 -0.57624,-2.21129 z m 232.355,-3.85416 c 0.06,-1.45619 0.35617,-1.75238 0.7552,-0.75522 0.36108,0.90234 0.31669,1.98047 -0.0986,2.39584 -0.41536,0.41536 -0.7108,-0.32292 -0.65652,-1.64062 z m -232.5,-16.25 c 0.06,-1.45619 0.35617,-1.75238 0.7552,-0.75522 0.36108,0.90234 0.31669,1.98047 -0.0986,2.39584 -0.41536,0.41536 -0.7108,-0.32292 -0.65652,-1.64062 z m 233.75,-7.5 c 0.06,-1.45619 0.35617,-1.75238 0.7552,-0.75522 0.36108,0.90234 0.31669,1.98047 -0.0986,2.39584 -0.41536,0.41536 -0.7108,-0.32292 -0.65652,-1.64062 z m -87.2624,-22.63708 c 1.21621,-0.31693 2.90371,-0.29609 3.75,0.0463 0.84629,0.34241 -0.14879,0.60171 -2.21129,0.57624 -2.0625,-0.0255 -2.75492,-0.30562 -1.53871,-0.62255 z m -29.83318,-25.38376 c 0,-10.65625 0.19171,-15.01563 0.42603,-9.6875 0.23431,5.32812 0.23431,14.04687 0,19.375 -0.23432,5.32812 -0.42603,0.96875 -0.42603,-9.6875 z m -300.19061,11.58942 c 2.57813,-0.26969 6.79688,-0.26969 9.375,0 2.57813,0.26968 0.46875,0.49032 -4.6875,0.49032 -5.15625,0 -7.26562,-0.22064 -4.6875,-0.49032 z m 19.45313,0.0567 c 0.90233,-0.36109 1.98046,-0.31668 2.39583,0.0987 0.41537,0.41537 -0.32292,0.7108 -1.64062,0.65653 -1.45619,-0.06 -1.75238,-0.35618 -0.75521,-0.75521 z m 394.18173,-11.6461 c 0,-1.71875 0.28373,-2.42188 0.63049,-1.5625 0.34676,0.85937 0.34676,2.26562 0,3.125 -0.34676,0.85937 -0.63049,0.15625 -0.63049,-1.5625 z M -751.94961,902.1132 c 0.76572,-0.92263 0.97522,-2.13782 0.46556,-2.70041 -0.50966,-0.56259 -0.19622,-0.60138 0.69654,-0.0862 1.25059,0.72168 1.28719,1.34155 0.15944,2.70041 -0.80506,0.97004 -1.745,1.76371 -2.08875,1.76371 -0.34375,0 10e-4,-0.75488 0.76721,-1.67751 z m 170.1639,-3.81375 c 0,-0.2702 0.87296,-0.82626 1.93993,-1.23569 1.1124,-0.42687 1.61415,-0.21731 1.17622,0.49127 -0.73407,1.18775 -3.11615,1.75681 -3.11615,0.74442 z m 26.88385,-0.74442 c -0.43792,-0.70858 0.0639,-0.91814 1.17623,-0.49127 2.16552,0.83099 2.56173,1.72695 0.76369,1.72695 -0.64692,0 -1.5199,-0.55606 -1.93992,-1.23568 z m 15.61615,0.74442 c 0,-0.2702 0.87296,-0.82626 1.93993,-1.23569 1.1124,-0.42687 1.61415,-0.21731 1.17622,0.49127 -0.73407,1.18775 -3.11615,1.75681 -3.11615,0.74442 z m 26.88385,-0.74442 c -0.43793,-0.70858 0.0639,-0.91814 1.17623,-0.49127 2.16552,0.83099 2.56173,1.72695 0.76369,1.72695 -0.64692,0 -1.51989,-0.55606 -1.93992,-1.23568 z m -253.36822,-44.61821 c 0.90234,-0.36109 1.98046,-0.31668 2.39583,0.0987 0.41536,0.41537 -0.32292,0.71081 -1.64063,0.65653 -1.45617,-0.06 -1.75237,-0.35618 -0.7552,-0.75521 z m 196.48437,-5.39611 c -1.12661,-0.72808 -1.28079,-1.21936 -0.38627,-1.23086 0.8188,-0.0105 1.83637,0.54336 2.26127,1.23086 0.95912,1.55191 0.5264,1.55191 -1.875,0 z m -226.48437,-0.85389 c 0.90234,-0.36109 1.98046,-0.31668 2.39583,0.0987 0.41536,0.41537 -0.32292,0.71081 -1.64063,0.65653 -1.45617,-0.06 -1.75237,-0.35618 -0.7552,-0.75521 z"
         id="path3431"
         inkscape:connector-curvature="0" />
      <path
         style="fill:#000000"
         d="m -720.90151,1007.2282 c -1.22815,-3.8892 -3.23065,-7.29457 -4.91577,-8.3596 -4.36483,-2.75868 -28.22184,-3.1162 -55.40219,-0.83027 -13.09482,1.1013 -24.42972,2.00237 -25.18868,2.00237 -0.75896,0 -2.42002,2.5291 -3.69124,5.6203 -1.49432,3.6337 -3.08455,5.622 -4.49882,5.625 -2.85019,0.01 -2.72675,-0.8681 0.97011,-6.8703 1.69377,-2.75 3.08246,-5.74635 3.08599,-6.65857 0.009,-2.31762 -14.97199,-28.96642 -16.28382,-28.96642 -0.58955,0 -5.05332,-7.76246 -9.91948,-17.24993 -4.86616,-9.48746 -10.60548,-19.38259 -12.75404,-21.98917 -3.71903,-4.51183 -4.16796,-4.70003 -9.35568,-3.92208 -4.35649,0.65329 -5.60362,0.41472 -6.21931,-1.18974 -1.20545,-3.14137 0.1201,-3.49983 7.26498,-1.96466 6.25182,1.3433 6.78394,1.26202 8.91316,-1.36138 1.33822,-1.64881 1.99017,-3.88267 1.59392,-5.46146 -0.70158,-2.79532 13.24781,-27.17143 22.83326,-39.90039 13.6506,-18.12726 18.65891,-26.96119 15.28536,-26.96119 -1.66104,0 -6.66043,-8.48961 -5.80985,-9.86587 1.40777,-2.27781 4.57897,-0.53193 6.68896,3.68255 l 2.14394,4.2823 29.375,0.0754 c 16.15625,0.0415 33.91728,0.54186 39.46896,1.112 l 10.09395,1.03662 1.63999,-3.95927 c 1.6286,-3.9318 5.8109,-7.26659 7.27595,-5.80154 0.4206,0.42061 -0.23274,2.45333 -1.45187,4.51716 -2.18233,3.69438 -2.16344,3.84364 1.22103,9.64904 1.89071,3.24314 6.71463,10.85835 10.71983,16.92269 4.00519,6.06434 7.28216,11.24249 7.28216,11.50699 0,0.67986 5.89801,9.60131 7.7949,11.79072 0.86905,1.00308 3.8301,7.47183 6.5801,14.375 l 5,12.55122 5.9375,0.38099 c 4.16865,0.26749 5.9375,0.91917 5.9375,2.1875 0,1.19726 -1.37007,1.81887 -4.0625,1.84315 -3.76891,0.034 -4.45554,0.74909 -9.5011,9.89508 -2.99123,5.42214 -13.04551,21.57752 -22.34286,35.90085 l -16.90428,26.04243 2.65563,7.49998 c 2.93859,8.2992 3.12603,9.375 1.63339,9.375 -0.56195,0 -1.95428,-2.9531 -3.09408,-6.5625 z m -79.84738,-22.49999 c 4.81433,-8.00174 19.54561,-36.67126 22.57124,-43.92738 0.26569,-0.63717 -0.44156,-0.80368 -1.57165,-0.37003 -1.35635,0.52048 -0.58394,-1.39551 2.27257,-5.63718 2.38001,-3.53411 3.98822,-6.97428 3.57381,-7.64481 -0.47827,-0.77386 -9.24636,-0.89218 -24.00563,-0.32394 -12.78869,0.49236 -28.17403,0.8103 -34.18966,0.70652 -6.01562,-0.10378 -10.9375,0.19962 -10.9375,0.67422 0,0.4746 2.71276,5.44103 6.02835,11.0365 16.54807,27.92694 23.97165,42.13152 23.97165,45.86834 0,2.30241 4.32173,9.93026 5.62622,9.93026 0.25079,0 3.24806,-4.64063 6.6606,-10.3125 z m 16.46318,-39.6875 c 0.73588,-1.375 1.61921,-2.5 1.96296,-2.5 0.34375,0 0.0229,1.125 -0.71296,2.5 -0.73588,1.375 -1.61921,2.5 -1.96296,2.5 -0.34375,0 -0.0229,-1.125 0.71296,-2.5 z m 14.375,46.91099 c 7.5625,0.0198 20.35938,0.52738 28.4375,1.128 8.07813,0.60061 14.6875,0.70635 14.6875,0.23496 0,-1.37205 -5.9601,-12.75314 -11.08035,-21.15843 -2.59341,-4.25728 -8.87684,-15.80155 -13.96319,-25.65393 -9.03383,-17.49875 -11.69949,-20.90328 -15.2884,-19.52608 -0.96968,0.3721 -8.1311,13.16696 -15.91427,28.43302 -7.78318,15.26606 -15.1868,29.24956 -16.45251,31.07443 -1.2657,1.82488 -2.30128,4.28819 -2.30128,5.47401 0,1.9442 0.89046,2.04807 9.0625,1.05704 4.98438,-0.60446 15.25,-1.08281 22.8125,-1.06302 z m 50.80719,-8.45221 c 2.30605,-3.59767 4.09082,-6.85677 3.96617,-7.24243 -0.12462,-0.38566 2.72744,-4.38508 6.33799,-8.88758 6.35559,-7.92566 20.89188,-32.54389 22.59504,-38.26627 l 0.83709,-2.8125 -36.95924,0 c -20.32758,0 -36.95924,0.33833 -36.95924,0.75184 0,2.48064 33.63682,62.99816 35.01563,62.99816 0.53556,0 2.86052,-2.94355 5.16656,-6.54122 z m -96.43219,-58.45878 c 0,-0.78799 8.49065,-1.25 22.97194,-1.25 18.80715,0 23.25168,-0.33705 24.51485,-1.85908 0.84859,-1.0225 1.16609,-2.85062 0.70554,-4.0625 -1.66439,-4.37963 -36.27599,-61.57842 -37.26176,-61.57842 -0.55612,0 -1.41488,0.9971 -1.90835,2.21578 -2.85582,7.05276 -19.9302,33.95524 -21.57368,33.9916 -1.60276,0.0355 -19.94854,29.14201 -19.94854,31.64941 0,1.01856 7.20155,1.68345 20.9375,1.93308 7.01509,0.12749 11.5625,-0.28148 11.5625,-1.03987 z m 70.625,-1.85639 c 6.1875,-0.44126 12.2485,-1.09023 13.4689,-1.44215 1.4113,-0.40697 2.09374,-0.0369 1.875,1.01684 -0.47296,2.27842 6.1323,2.69429 26.14978,1.64639 17.35961,-0.90876 22.15933,-2.35376 18.93072,-5.69928 -0.9503,-0.98473 -4.0129,-5.72791 -6.80576,-10.54041 -17.49803,-30.15158 -32.12544,-54.36864 -32.81578,-54.32964 -1.41367,0.0799 -27.8744,44.87536 -27.17571,46.00587 0.36962,0.59804 -1.17417,3.27805 -3.43064,5.95556 -6.26939,7.43922 -8.32151,10.80447 -8.32151,13.64634 0,3.27931 2.42108,5.76522 4.94121,5.07353 1.06358,-0.29192 6.99629,-0.89179 13.18379,-1.33305 z m -3.125,-26.11555 c 0,-0.25957 0.98438,-1.24395 2.1875,-2.1875 1.98257,-1.55484 2.02678,-1.51063 0.47194,0.47194 -1.63296,2.08218 -2.65944,2.74435 -2.65944,1.71556 z m -8.65295,5.78444 c 4.32579,-7.39063 12.87209,-21.77963 18.99179,-31.97556 6.11969,-10.19593 10.75084,-18.91468 10.29142,-19.375 -1.61816,-1.62135 -72.86924,0.85446 -73.9288,2.56886 -0.60358,0.9766 35.17582,62.2192 36.34995,62.2192 0.23681,0 3.96985,-6.04688 8.29564,-13.4375 z m 340.01569,99.20749 c -0.23924,-15.60792 3.79354,-21.3771 21.84666,-31.25324 13.59229,-7.4358 15.5406,-9.05527 15.5406,-12.91766 0,-4.35032 -2.05365,-7.55407 -6.22498,-9.71115 -6.81177,-3.5225 -19.31102,-1.64704 -23.61557,3.54343 -2.38916,2.88086 -3.80943,2.58116 -2.97052,-0.62684 0.52507,-2.00785 0.28651,-2.43689 -0.93515,-1.68186 -1.13808,0.70337 -1.34063,0.52912 -0.66177,-0.56929 0.54849,-0.88748 0.33074,-1.98309 -0.49563,-2.49381 -0.89288,-0.55183 1.44626,-2.22142 5.93366,-4.23525 13.62124,-6.11285 27.28516,-3.91044 33.65746,5.42505 6.76423,9.90965 0.90319,20.11894 -16.74235,29.16336 -4.45157,2.2817 -11.69515,9.12951 -11.69515,11.05616 0,0.82205 2.64061,0.9701 7.41633,0.41582 5.22348,-0.60625 9.38145,-0.28947 14.0625,1.07134 5.70877,1.65959 6.64617,2.36679 6.64617,5.0141 0,3.03575 -0.12425,3.07158 -8.2821,2.38765 -9.18106,-0.7697 -17.81222,0.37155 -16.67886,2.20536 0.41335,0.66882 -1.34468,1.19433 -4.02776,1.20393 -7.83832,0.028 -10.29243,1.1868 -11.52573,5.4418 -1.0091,3.4815 -1.14759,3.0998 -1.24781,-3.4389 z m -56.11905,1.105 c 0.0255,-2.0625 0.30562,-2.7549 0.62255,-1.5387 0.31692,1.2162 0.29609,2.9037 -0.0464,3.75 -0.34241,0.8463 -0.60171,-0.1488 -0.57623,-2.2113 z m -78.99369,-2.8347 c -1.71875,-1.63351 -4.00575,-5.56694 -5.08222,-8.74091 -1.89715,-5.59374 -4.91778,-8.62931 -4.91778,-4.9421 0,2.10627 -8.85704,3.99208 -10.0074,2.13074 -0.4642,-0.7511 -3.40729,-0.75464 -7.98484,-0.01 -10.40735,1.69385 -11.80723,2.30538 -13.83777,6.04495 -1.03829,1.91222 -1.85583,2.54641 -1.90357,1.47667 -0.0521,-1.16805 -1.51511,-0.22544 -3.88018,2.5 -2.38345,2.74665 -3.28258,3.32355 -2.41571,1.55005 0.75943,-1.55377 5.2218,-13.9957 9.91637,-27.64878 8.38516,-24.3863 11.72099,-30.66861 16.33999,-30.77289 3.30475,-0.0746 4.76177,1.82163 6.28796,8.18353 1.57445,6.56303 3.29925,8.03302 3.96071,3.37559 0.23669,-1.6666 1.58629,1.47249 3.31244,7.70457 1.60215,5.7844 5.37334,17.57572 8.38041,26.20293 3.00708,8.62721 5.35248,15.73745 5.212,15.80065 -0.14047,0.063 -1.66166,-1.2218 -3.38041,-2.8553 z m -22.10013,-17.30002 c 3.94373,-0.46349 7.41018,-1.23067 7.70322,-1.70481 0.48667,-0.78747 -7.64428,-23.7242 -8.83802,-24.93129 -0.28328,-0.28646 -0.84469,-0.19121 -1.24757,0.21166 -0.74467,0.74468 -10.5175,26.78812 -10.5175,28.02792 0,0.3725 1.28913,0.35372 2.86473,-0.0417 1.57559,-0.39545 6.09141,-1.09824 10.03514,-1.56175 z m 193.03763,18.68192 c 0.85938,-0.3468 2.26563,-0.3468 3.125,0 0.85938,0.3467 0.15625,0.6304 -1.5625,0.6304 -1.71875,0 -2.42187,-0.2837 -1.5625,-0.6304 z m 72.27914,-18.23469 c 0.48332,-10.48438 0.94167,-20.46875 1.01856,-22.1875 0.12666,-2.83138 -0.28824,-3.10059 -4.41569,-2.86518 -3.60711,0.20574 -4.68966,-0.25326 -5.20001,-2.20483 -0.48564,-1.8571 0.69286,-3.38483 4.78071,-6.19733 2.98388,-2.05296 6.5563,-3.73266 7.93874,-3.73266 1.38242,0 2.86115,-0.5625 3.28605,-1.25 2.33772,-3.78251 2.95894,1.23315 3.07355,24.81573 0.10675,21.97913 -0.17319,26.31459 -1.78594,27.65306 -1.51715,1.25911 -2.29602,1.26912 -3.7669,0.0484 -1.53681,-1.27544 -2.06654,-0.98064 -3.09406,1.72195 -0.68187,1.79345 -1.57142,3.26085 -1.97677,3.26085 -0.40535,0 -0.34155,-8.57811 0.14176,-19.06249 z m -232.36692,4.6875 c 0.33055,-7.5625 0.0414,-20.78125 -0.64252,-29.375 -0.74795,-9.39799 -0.78795,-15.79105 -0.10038,-16.04167 0.62874,-0.22916 1.15178,-1.35416 1.1623,-2.5 0.0166,-1.80187 0.18287,-1.83002 1.23088,-0.20833 0.66645,1.03125 1.22034,3.70312 1.23086,5.9375 0.01,2.23437 0.58164,4.0625 1.26914,4.0625 0.6875,0 1.25,-0.73125 1.25,-1.625 0,-2.77229 2.40412,-4.20609 6.13455,-3.65858 3.29093,0.48301 3.99829,1.63667 8.87011,14.46672 2.91172,7.66802 5.82718,14.50436 6.47883,15.19186 1.75936,1.85615 4.03919,-1.86369 9.32084,-15.20816 3.08149,-7.78567 4.99252,-11.18772 5.69123,-10.13171 0.80375,1.21476 1.50575,1.00003 2.97539,-0.91013 1.83194,-2.38107 1.98426,-2.39264 3.20215,-0.24319 0.89514,1.57986 1.72971,1.88252 2.78223,1.00901 2.76975,-2.29869 4.23876,0.41899 4.99142,9.23418 0.4109,4.8125 1.10247,12.48357 1.53684,17.04685 0.81836,8.59751 -2.04744,30.60454 -2.98902,22.95315 -0.25381,-2.0625 -1.25642,-4.19982 -2.22802,-4.74961 -0.9716,-0.54979 -1.76655,-2.41111 -1.76655,-4.13628 0,-1.7728 -0.54351,-2.80075 -1.25,-2.36411 -0.79206,0.48952 -1.25625,-2.80351 -1.26706,-8.98872 -0.0172,-9.86173 -0.85386,-15.38628 -2.33003,-15.38628 -0.44302,0 -5.07339,8.01562 -10.2897,17.8125 -5.48417,10.29996 -10.35229,17.98245 -11.54247,18.21546 -1.8749,0.36705 -1.86395,0.0629 0.123,-3.4145 2.11327,-3.69845 2.09372,-3.98379 -0.62709,-9.15296 -1.54461,-2.93453 -4.45916,-9.26014 -6.4768,-14.05692 -2.01762,-4.79679 -4.19245,-8.89612 -4.83294,-9.10962 -1.74673,-0.58224 -2.7164,7.42124 -2.84182,23.45604 -0.0619,7.90625 -0.30009,13.81249 -0.52943,13.125 -0.22933,-0.6875 -0.76391,-2.81988 -1.18796,-4.73862 -0.99329,-4.49454 -3.16834,-3.17496 -3.29637,1.9999 -0.0543,2.1938 -0.38241,3.28559 -0.72917,2.42622 -0.90711,-2.24807 -2.64131,-1.9227 -3.33113,0.625 -0.32578,1.20309 -0.32185,-4 0.009,-11.5625 z m 146.35236,12.24089 c 1.55488,-0.299 3.80488,-0.2876 5,0.025 1.19511,0.3128 -0.0771,0.5575 -2.82708,0.5436 -2.75,-0.014 -3.72781,-0.2699 -2.17292,-0.5688 z m 49.98542,0.056 c 0.85938,-0.3468 2.26563,-0.3468 3.125,0 0.85938,0.3467 0.15625,0.6305 -1.5625,0.6305 -1.71875,0 -2.42187,-0.2838 -1.5625,-0.6305 z m -125.72942,-1.53545 c -1.26768,-0.78964 -1.8358,-7.46373 -2.37198,-27.86463 l -0.70504,-26.82629 13.25735,-0.30444 c 15.1084,-0.34696 22.63829,1.93496 26.66525,8.08089 2.70255,4.12462 2.93867,11.49582 0.51337,16.0275 -2.41593,4.51422 -14.80278,10.45479 -23.95972,11.49078 -8.35928,0.94575 -9.78,2.38538 -9.98191,10.1148 -0.18617,7.12695 -1.43424,10.51664 -3.41732,9.28139 z m 17.82007,-28.15228 c 8.91851,-1.725 11.36496,-3.51009 12.8352,-9.36541 1.00741,-4.01206 -0.7616,-6.50423 -5.947,-8.37807 -5.76622,-2.08374 -16.10512,-2.19404 -16.72654,-0.17845 -0.26495,0.85937 -0.77707,5.64062 -1.13804,10.625 -0.47517,6.56119 -0.24513,9.04982 0.83346,9.01654 0.81937,-0.0253 5.38368,-0.79908 10.14292,-1.71961 z m 112.98664,27.93493 c -0.6962,-2.08859 -11.07738,-3.09064 -12.25633,-1.18305 -1.6322,2.64095 -11.77056,-8.51039 -14.18822,-15.60587 -2.32938,-6.83633 -2.69643,-18.95076 -0.7829,-25.84011 1.36926,-4.92986 8.17841,-11.79489 12.86575,-12.97133 1.57632,-0.39564 6.04257,0.47466 9.96252,1.9413 7.69675,2.87972 14.21871,9.44787 17.73288,17.85842 2.37816,5.69176 2.49107,20.80055 0.19647,26.29229 -2.83187,6.77765 -12.2372,13.38725 -13.53017,9.50835 z m 7.08466,-5.23186 c 4.26901,-4.02133 7.1906,-10.9375 4.6203,-10.9375 -0.71571,0 -1.64735,1.09036 -2.07031,2.42301 -0.42298,1.33266 -2.71088,4.12797 -5.08424,6.21181 -4.26015,3.74046 -5.51652,6.36518 -3.04684,6.36518 0.69759,0 3.20908,-1.82813 5.58109,-4.0625 z m -8.77344,-4.21667 c 2.66888,-1.02415 6.65234,-8.9568 7.659,-15.25207 0.9953,-6.22433 -2.29912,-15.55114 -6.7218,-19.03003 -3.56979,-2.80799 -11.05899,-3.17866 -14.31245,-0.70837 -7.85541,5.96444 -7.74523,25.22516 0.18968,33.16007 2.59492,2.59493 8.90906,3.47145 13.18557,1.8304 z m 59.42399,8.56504 c -6.02259,-1.89298 -6.82354,-2.52436 -6.45997,-5.09238 0.33165,-2.34247 0.95953,-2.77859 3.125,-2.17056 6.58811,1.84982 13.72124,2.36333 12.83152,0.92372 -0.56994,-0.92219 0.0687,-1.44668 1.76185,-1.44668 3.00445,0 7.65934,-2.18945 9.03496,-4.24963 1.66645,-2.49574 0.99407,-7.83036 -1.23086,-9.76541 -3.78199,-3.28925 -11.70035,-3.76615 -15.95611,-0.96097 -7.32233,4.8265 -7.52106,4.38882 -7.10467,-15.64704 l 0.37673,-18.12695 12.12327,0.13567 c 11.92469,0.13344 30.32432,1.82134 23.77002,2.18055 -2.10334,0.11528 -3.63708,1.07799 -4.11466,2.58272 -0.78343,2.46836 -6.65075,4.09959 -15.65708,4.35298 l -4.375,0.12308 -0.37783,6.5625 -0.37782,6.5625 6.45764,0 c 12.66895,0 22.06124,8.75424 20.85681,19.43992 -0.76791,6.81286 -3.48189,11.12434 -8.70159,13.82356 -5.80558,3.00221 -17.75764,3.35751 -25.98221,0.77242 z m -356.92671,-2.56463 c -2.77844,-1.30103 -6.62188,-4.23156 -8.54096,-6.51226 -2.69813,-3.20655 -3.72974,-3.75764 -4.5499,-2.43057 -1.5829,2.56118 -2.94303,-4.04862 -2.11043,-10.25607 1.48184,-11.04791 14.9318,-30.62202 23.35796,-33.99351 6.04004,-2.41674 7.62638,-2.53556 7.20754,-0.53987 -0.19204,0.91504 2.3063,1.88757 6.48135,2.52302 3.73661,0.5687 6.99836,1.23853 7.24833,1.4885 0.24997,0.24997 0.0765,1.96067 -0.38557,3.80155 -0.6293,2.50735 -1.35016,3.11821 -2.87333,2.43487 -1.1183,-0.50169 -4.28328,-1.13188 -7.03328,-1.40042 -13.00531,-1.26998 -26.52826,17.84861 -21.36512,30.20576 2.32873,5.57347 5.21159,6.95773 14.49012,6.95773 7.39553,0 12.19112,1.43724 13.97992,4.18979 1.51238,2.3272 -3.26724,4.34087 -12.17391,5.12892 -7.03241,0.62223 -9.64037,0.31886 -13.73272,-1.59744 z m -5.72144,-65.85013 c -9.93254,-5.39774 -9.75757,-28.62369 0.25464,-33.8012 3.8482,-1.98999 11.57606,-2.2693 15.51851,-0.56089 1.62961,0.70618 0.44438,0.83561 -3.40439,0.37178 -11.45934,-1.38102 -17.5919,4.31458 -17.75957,16.49417 -0.17934,13.02749 5.65354,18.98821 17.2999,17.67905 4.23654,-0.47623 5.5283,-0.3417 3.86406,0.40243 -3.82199,1.7089 -12.11797,1.40104 -15.77315,-0.58534 z m 28.30578,-2.21352 c -2.73073,-2.73072 -4.38935,-5.85007 -4.98488,-9.375 -1.41005,-8.34601 0.32296,-15.27833 4.98488,-19.94024 3.46221,-3.46221 4.99703,-4.09238 9.96737,-4.09238 4.97034,0 6.50516,0.63017 9.96738,4.09238 4.66191,4.66191 6.39492,11.59423 4.98487,19.94024 -0.59552,3.52493 -2.25415,6.64428 -4.98487,9.375 -3.46222,3.46221 -4.99704,4.09238 -9.96738,4.09238 -4.97034,0 -6.50516,-0.63017 -9.96738,-4.09238 z m 18.29194,-0.72181 c 3.48813,-3.11664 4.05886,-4.52964 4.54518,-11.2529 0.63535,-8.78369 -1.06895,-14.07658 -5.70752,-17.72528 -4.62428,-3.63745 -10.69633,-3.17373 -15.58,1.18983 -3.97844,3.55473 -4.08223,3.90693 -4.08223,13.85254 0,9.94561 0.10375,10.29781 4.08223,13.85254 5.48045,4.89678 11.32257,4.92584 16.74234,0.0833 z m 15.07462,-13.62331 c -0.20958,-14.57014 0.094,-19.05857 1.28831,-19.0458 0.85938,0.009 4.36205,6.47793 7.78371,14.375 3.42167,7.89706 6.51622,14.3583 6.87679,14.3583 0.36056,0 3.46728,-6.46514 6.90379,-14.36697 3.43651,-7.90183 6.95134,-14.37058 7.81071,-14.375 1.19396,-0.006 1.49783,4.48809 1.28831,19.05447 l -0.27417,19.0625 -0.3861,-17.1875 c -0.21235,-9.45313 -0.79209,-17.17673 -1.28831,-17.16357 -0.49623,0.0132 -3.5361,6.06004 -6.75529,13.4375 -3.21919,7.37746 -6.49155,13.41357 -7.27194,13.41357 -0.78039,0 -4.05275,-6.03611 -7.27194,-13.41357 -3.21918,-7.37746 -6.25906,-13.42433 -6.75529,-13.4375 -0.49622,-0.0132 -1.07596,7.71044 -1.28831,17.16357 l -0.3861,17.1875 -0.27417,-19.0625 z m 42.5,0 c -0.20958,-14.57014 0.094,-19.05857 1.28831,-19.0458 0.85937,0.009 4.36205,6.47793 7.78371,14.375 3.42167,7.89706 6.52836,14.3583 6.90379,14.3583 0.37543,0 3.48213,-6.46124 6.90379,-14.3583 3.42166,-7.89707 6.92434,-14.36582 7.78371,-14.375 1.19428,-0.0128 1.49789,4.47567 1.28831,19.0458 l -0.27417,19.0625 -0.3861,-17.1875 c -0.21235,-9.45313 -0.79209,-17.17673 -1.28831,-17.16357 -0.49623,0.0132 -3.5361,6.06004 -6.75529,13.4375 -3.21919,7.37746 -6.49155,13.41357 -7.27194,13.41357 -0.78039,0 -4.05275,-6.03611 -7.27194,-13.41357 -3.21918,-7.37746 -6.25906,-13.42433 -6.75528,-13.4375 -0.49623,-0.0132 -1.07597,7.71044 -1.28832,17.16357 l -0.3861,17.1875 -0.27417,-19.0625 z m 46.3525,16.22221 c -1.51157,-1.18784 -3.33969,-3.7432 -4.0625,-5.67859 -1.69636,-4.54218 -1.7507,-29.60612 -0.0642,-29.60612 0.76304,0 1.25,5.77249 1.25,14.81747 0,13.99585 0.16998,15.00087 3.06531,18.125 4.93822,5.32842 15.11981,3.91001 18.04685,-2.51413 0.76332,-1.67528 1.38784,-9.20701 1.38784,-16.73716 0,-9.16388 0.45687,-13.69118 1.38166,-13.69118 2.11274,0 0.90649,28.6202 -1.35285,32.09855 -3.58775,5.52346 -14.43904,7.28275 -19.65212,3.18616 z m 29.62331,-16.53471 c 0,-14.1802 0.38081,-18.74382 1.5625,-18.72464 0.85938,0.014 6.56953,7.61631 12.68921,16.89413 6.11969,9.27781 11.38383,16.61164 11.69808,16.29739 0.31425,-0.31425 0.48267,-7.9166 0.37428,-16.89412 -0.12898,-10.68399 0.25599,-16.32276 1.11443,-16.32276 0.85705,0 1.3115,6.49719 1.3115,18.75 0,14.22266 -0.37728,18.72465 -1.5625,18.64502 -0.85937,-0.0577 -6.625,-7.75024 -12.8125,-17.09445 l -11.25,-16.98946 -0.34777,17.09444 c -0.48231,23.70693 -2.77723,22.33888 -2.77723,-1.65555 z m 38.00311,0 c 0,-10.65625 0.19171,-15.01563 0.42603,-9.6875 0.23431,5.32812 0.23431,14.04687 0,19.375 -0.23432,5.32812 -0.42603,0.96875 -0.42603,-9.6875 z m 13.90452,14.65762 c -2.73073,-2.73072 -4.38936,-5.85007 -4.98488,-9.375 -1.41005,-8.34601 0.32296,-15.27833 4.98488,-19.94024 3.50689,-3.50691 4.9597,-4.08964 10.15487,-4.07324 3.33438,0.0105 6.90625,0.55867 7.9375,1.21808 1.25693,0.80373 -0.27532,0.94758 -4.64827,0.4364 -11.65222,-1.36211 -17.24827,5.24654 -16.35267,19.31168 0.46495,7.30197 0.9252,8.46054 4.70132,11.83449 3.88066,3.46737 4.69416,3.68764 11.15603,3.02072 4.5534,-0.46996 6.32843,-0.31361 5.11937,0.45091 -1.01793,0.64366 -4.5789,1.17891 -7.91328,1.18944 -5.19517,0.0164 -6.64798,-0.56633 -10.15487,-4.07324 z m 25.59237,3.26609 c 0,-2.29679 14.51576,-36.62481 15.36733,-36.34187 0.86599,0.28774 4.19153,7.99576 13.47409,31.23066 1.30466,3.26562 1.90784,5.9375 1.34042,5.9375 -0.56743,0 -1.77425,-2.25 -2.68184,-5 l -1.65015,-5 -10.2892,0 -10.2892,0 -2.0006,5 c -1.80198,4.50358 -3.27085,6.37791 -3.27085,4.17371 z m 23.75,-11.59377 c 0,-2.41171 -7.93412,-21.32994 -8.94557,-21.32994 -0.57994,0 -1.07083,0.70312 -1.09088,1.5625 -0.02,0.85937 -1.64235,5.5 -3.60514,10.3125 -1.96277,4.8125 -3.31942,9.17187 -3.01477,9.6875 0.80951,1.37012 16.65636,1.14886 16.65636,-0.23256 z m 18.75,-5.63961 0,-18.05968 -6.5625,-0.4591 c -3.60937,-0.2525 -0.0937,-0.45909 7.8125,-0.45909 7.90625,0 11.42188,0.20659 7.8125,0.45909 l -6.5625,0.4591 0,18.05968 c 0,11.20645 -0.47435,18.05967 -1.25,18.05967 -0.77565,0 -1.25,-6.85322 -1.25,-18.05967 z m 23.00311,-0.69033 c 0,-10.65625 0.19172,-15.01563 0.42603,-9.6875 0.23431,5.32812 0.23431,14.04687 0,19.375 -0.23431,5.32812 -0.42603,0.96875 -0.42603,-9.6875 z m 15.5859,16.86442 c -6.58506,-3.57809 -9.24517,-17.04987 -5.30907,-26.88715 2.35186,-5.87786 6.88355,-8.72727 13.87985,-8.72727 9.1153,0 14.34021,6.83163 14.34021,18.75 0,7.82127 -2.37854,13.72253 -6.77099,16.79912 -3.44807,2.41512 -11.75357,2.44872 -16.14,0.0653 z m 15.0149,-1.40279 c 3.74795,-2.62516 6.39609,-9.02667 6.39609,-15.46163 0,-13.20385 -8.95603,-20.76976 -19.1096,-16.14349 -6.75291,3.07684 -9.8649,16.54819 -5.98603,25.91263 2.92279,7.05623 12.56281,9.99083 18.69954,5.69249 z m 15.14609,-15.46163 c 0,-14.2145 0.37796,-18.72831 1.5625,-18.66032 0.85938,0.0493 6.625,7.7087 12.8125,17.02083 l 11.25,16.93114 0.34777,-17.02082 c 0.48322,-23.64928 2.77723,-22.22096 2.77723,1.72917 0,14.1802 -0.38081,18.74382 -1.5625,18.72464 -0.85937,-0.014 -6.56952,-7.61631 -12.68921,-16.89413 -6.11969,-9.27781 -11.38383,-16.61164 -11.69808,-16.29739 -0.31425,0.31425 -0.48267,7.9166 -0.37428,16.89412 0.12898,10.68399 -0.25599,16.32276 -1.11443,16.32276 -0.85705,0 -1.3115,-6.49719 -1.3115,-18.75 z m -367.5,-29.68944 c -10.46409,-5.2274 -11.96912,-25.02912 -2.54129,-33.43556 3.37704,-3.01117 15.17424,-3.53966 17.79129,-0.79701 1.36051,1.42582 1.11637,1.52922 -1.5,0.63535 -5.48334,-1.87336 -12.47957,-0.91831 -15.74491,2.14931 -6.76121,6.35184 -6.94651,21.13823 -0.34759,27.73716 3.46279,3.46278 4.17799,3.6586 11.45544,3.13648 7.19113,-0.51592 7.48623,-0.43891 4.01206,1.04703 -5.12742,2.19306 -7.99541,2.08975 -13.125,-0.47276 z m 102.5,0 c -5.7319,-2.86341 -8.74559,-9.04308 -8.74806,-17.93821 -0.002,-7.79094 3.28624,-14.18787 8.78559,-17.0906 4.85625,-2.5633 12.25318,-1.06796 16.69645,3.3753 3.47312,3.47313 3.88103,4.71343 4.24431,12.90518 0.47657,10.74644 -2.12748,16.22865 -9.09051,19.13799 -5.49819,2.29729 -6.58008,2.26183 -11.88778,-0.38966 z m 13.60391,-2.34893 c 5.85819,-4.10324 8.10374,-15.25737 4.69361,-23.31428 -5.53967,-13.08827 -20.93745,-11.80417 -24.66996,2.05736 -3.24145,12.0378 2.6775,23.29529 12.24815,23.29529 2.64992,0 6.1276,-0.91727 7.7282,-2.03837 z m 22.02109,3.92403 c -0.6875,-0.22934 -2.79687,-0.75815 -4.6875,-1.17514 -1.89062,-0.41698 -3.4375,-1.32972 -3.4375,-2.02832 0,-0.85201 0.79598,-0.84417 2.41783,0.0238 4.31272,2.3081 14.78647,1.58967 17.58217,-1.20602 5.38115,-5.38115 2.50613,-10.07379 -8.8245,-14.40347 -6.26845,-2.39531 -9.26497,-4.27266 -10.24182,-6.41661 -1.83038,-4.01722 0.0482,-9.25616 4.08708,-11.39794 3.51203,-1.8624 14.59114,-1.18592 16.75852,1.02325 0.97478,0.99358 0.31205,1.08888 -2.40428,0.34572 -5.15319,-1.40985 -12.81839,-0.96153 -15.03664,0.87945 -2.51278,2.08543 -2.31531,7.90533 0.34914,10.28963 1.20313,1.07662 5.5625,3.3045 9.6875,4.95084 8.63476,3.44623 11.47888,7.32053 9.39588,12.79924 -1.73198,4.55543 -10.41512,8.06043 -15.64588,6.31555 z m -114.375,-18.76066 c 0,-11.25 0.47414,-18.125 1.25,-18.125 0.70513,0 1.25,3.54167 1.25,8.125 l 0,8.125 11.25,0 11.25,0 0,-8.125 c 0,-4.58333 0.54487,-8.125 1.25,-8.125 0.77586,0 1.25,6.875 1.25,18.125 0,11.25 -0.47414,18.125 -1.25,18.125 -0.71429,0 -1.25,-3.75 -1.25,-8.75 l 0,-8.75 -11.25,0 -11.25,0 0,8.75 c 0,5 -0.53571,8.75 -1.25,8.75 -0.77586,0 -1.25,-6.875 -1.25,-18.125 z m 35.03454,17.1875 c 0.10575,-2.86968 13.87941,-34.6875 15.01595,-34.6875 0.74667,0 4.64251,8.01562 8.65741,17.8125 4.0149,9.79687 6.8529,17.8125 6.30669,17.8125 -0.54623,0 -1.89341,-2.25 -2.99374,-5 l -2.00061,-5 -9.87439,0 -9.8744,0 -2.0006,5 c -1.82139,4.55209 -3.32384,6.43809 -3.23631,4.0625 z m 23.71546,-11.40696 c 0,-0.60196 -1.32267,-4.11758 -2.93929,-7.8125 -1.6166,-3.69492 -3.31482,-8.26492 -3.77381,-10.15554 -0.80183,-3.3028 -3.2869,-4.87783 -3.2869,-2.08323 0,0.74484 -1.6875,5.5686 -3.75,10.71944 -2.0625,5.15085 -3.75,9.60393 -3.75,9.89574 0,0.2918 3.9375,0.53055 8.75,0.53055 4.8125,0 8.75,-0.49251 8.75,-1.09446 z"
         id="path3429"
         inkscape:connector-curvature="0" />
    </g>
  </g>
</svg>
