<?xml version="1.0" encoding="UTF-8" standalone="no"?>
<!-- Created with Inkscape (http://www.inkscape.org/) -->

<svg
   xmlns:osb="http://www.openswatchbook.org/uri/2009/osb"
   xmlns:dc="http://purl.org/dc/elements/1.1/"
   xmlns:cc="http://creativecommons.org/ns#"
   xmlns:rdf="http://www.w3.org/1999/02/22-rdf-syntax-ns#"
   xmlns:svg="http://www.w3.org/2000/svg"
   xmlns="http://www.w3.org/2000/svg"
   xmlns:sodipodi="http://sodipodi.sourceforge.net/DTD/sodipodi-0.dtd"
   xmlns:inkscape="http://www.inkscape.org/namespaces/inkscape"
   id="svg2"
   version="1.1"
   inkscape:version="0.91 r"
   width="99.401161"
   height="160.8842"
   viewBox="0 0 99.401164 160.8842"
   sodipodi:docname="eh16.svg">
  <metadata
     id="metadata8">
    <rdf:RDF>
      <cc:Work
         rdf:about="">
        <dc:format>image/svg+xml</dc:format>
        <dc:type
           rdf:resource="http://purl.org/dc/dcmitype/StillImage" />
        <dc:title></dc:title>
      </cc:Work>
    </rdf:RDF>
  </metadata>
  <defs
     id="defs6">
    <linearGradient
       id="linearGradient5767"
       osb:paint="solid">
      <stop
         style="stop-color:#922bff;stop-opacity:1;"
         offset="0"
         id="stop5769" />
    </linearGradient>
    <linearGradient
       id="linearGradient5757"
       osb:paint="solid">
      <stop
         style="stop-color:#ffffff;stop-opacity:1;"
         offset="0"
         id="stop5759" />
    </linearGradient>
  </defs>
  <sodipodi:namedview
     pagecolor="#ffffff"
     bordercolor="#666666"
     borderopacity="1"
     objecttolerance="10"
     gridtolerance="10"
     guidetolerance="10"
     inkscape:pageopacity="0"
     inkscape:pageshadow="2"
     inkscape:window-width="1920"
     inkscape:window-height="1025"
     id="namedview4"
     showgrid="false"
     fit-margin-top="0"
     fit-margin-left="0"
     fit-margin-right="0"
     fit-margin-bottom="0"
     inkscape:zoom="4"
     inkscape:cx="-23.403007"
     inkscape:cy="86.952787"
     inkscape:window-x="-2"
     inkscape:window-y="-3"
     inkscape:window-maximized="1"
     inkscape:current-layer="g3392" />
  <g
     id="g3338"
     transform="translate(0.19198573,0.67760548)">
    <g
       id="g3449">
      <rect
         y="85.540955"
         x="23.004852"
         height="48.200901"
         width="57.178246"
         id="rect3424"
         style="fill:#ffffff;stroke:#ffffff;stroke-width:0.1;stroke-miterlimit:4;stroke-dasharray:none;stroke-opacity:1" />
      <rect
         y="132.4678"
         x="25.270039"
         height="5.1928153"
         width="5.2812037"
         id="rect3426"
         style="fill:#ffffff;stroke:#ffffff;stroke-width:0.1;stroke-miterlimit:4;stroke-dasharray:none;stroke-opacity:1" />
      <rect
         y="128.82178"
         x="36.495361"
         height="5.7452426"
         width="23.511301"
         id="rect3428"
         style="fill:#ffffff;stroke:#ffffff;stroke-width:0.1;stroke-miterlimit:4;stroke-dasharray:none;stroke-opacity:1" />
      <g
         id="g3392">
        <path
           style="fill:#aaaaaa;stroke:#ffffff;stroke-width:0.1;stroke-miterlimit:4;stroke-dasharray:none;stroke-opacity:1"
           d="m 76.8,139.8354 c 0,-0.31052 0.26691,-0.72955 0.59313,-0.93116 0.340116,-0.2102 0.4407,0.0307 0.235806,0.56459 C 77.230062,140.50828 76.8,140.69846 76.8,139.8354 Z"
           id="path3364"
           inkscape:connector-curvature="0" />
        <path
           style="fill:#222222;stroke:#ffffff;stroke-width:0.1;stroke-miterlimit:4;stroke-dasharray:none;stroke-opacity:1"
           d="m 69.338574,141.77587 c -0.325608,-0.85512 -0.256692,-0.92404 0.33588,-0.33588 0.410052,0.407 0.594402,0.89114 0.409668,1.07588 -0.184734,0.18473 -0.52023,-0.14827 -0.745548,-0.74 z"
           id="path3346"
           inkscape:connector-curvature="0" />
        <path
           style="fill:#111111;stroke:#ffffff;stroke-width:0.1;stroke-miterlimit:4;stroke-dasharray:none;stroke-opacity:1"
           d="m 63.994548,135.26997 c 0.167616,-0.43681 0.68742,-0.64737 1.155108,-0.4679 1.126902,0.43243 1.073862,0.59951 -0.304764,0.96003 -0.788592,0.20622 -1.058406,0.05 -0.850344,-0.49213 z M 37.723467,119.54999 c -0.746323,-0.95163 -0.725101,-0.97286 0.226533,-0.22653 0.5775,0.45291 1.05,0.92541 1.05,1.05 0,0.49382 -0.492712,0.17598 -1.276533,-0.82347 z m 26.999997,-7.2 c -0.746322,-0.95163 -0.7251,-0.97285 0.226536,-0.22653 0.5775,0.45291 1.05,0.92541 1.05,1.05 0,0.49382 -0.492714,0.17598 -1.276536,-0.82347 z m 24,0 c -0.746322,-0.95163 -0.7251,-0.97285 0.226536,-0.22653 0.5775,0.45291 1.05,0.92541 1.05,1.05 0,0.49382 -0.492714,0.17598 -1.276536,-0.82347 z"
           id="path3342"
           inkscape:connector-curvature="0" />
        <path
           style="fill:#06fb12;stroke:#ffffff;stroke-width:0.10168248;stroke-miterlimit:4;stroke-dasharray:none;stroke-opacity:1"
           d="m 20.216576,96.935224 c -0.505793,-0.733775 -0.919618,-2.564577 -0.919618,-4.068443 0,-3.602061 1.260361,-5.402579 3.7818,-5.402579 2.818566,0 3.897928,1.524892 3.897928,5.506879 0,2.445625 -0.282442,3.571082 -1.080325,4.304814 -1.58418,1.456812 -4.563981,1.278085 -5.679785,-0.340671 z m 4.101743,-4.076665 c 0,-2.292875 -0.17557,-2.693064 -1.181497,-2.693064 -0.908311,0 -1.225271,0.464315 -1.370808,2.008076 -0.249993,2.651768 0.248599,3.828876 1.516705,3.580717 0.803435,-0.157224 1.0356,-0.806388 1.0356,-2.895729 z m 43.223086,2.609468 c -0.71949,-0.731111 -0.407073,-2.000958 0.492288,-2.000958 0.669513,0 0.886123,-0.733683 0.886123,-3.001436 0,-1.650784 -0.265837,-3.001431 -0.590748,-3.001431 -0.324912,0 -0.590749,-0.540258 -0.590749,-1.200576 0,-0.971897 0.393834,-1.200572 2.067619,-1.200572 l 2.067622,0 0,4.202007 c 0,2.401149 0.253177,4.202008 0.590748,4.202008 0.324911,0 0.590748,0.540259 0.590748,1.200578 0,1.015866 -0.393834,1.20057 -2.55991,1.20057 -1.407953,0 -2.737137,-0.180083 -2.953741,-0.40019 z M 32.963878,23.844619 c -2.727359,-2.799239 -4.727764,-3.428683 -7.713914,-2.427251 -3.095674,1.038159 -4.437069,0.64946 -4.664111,-1.351533 -0.163502,-1.440999 0.14413,-1.809827 2.362992,-2.833047 4.752678,-2.19168 9.687281,-0.998072 13.33719,3.22607 1.93958,2.244727 2.247649,3.154375 1.462757,4.31914 -1.116023,1.656165 -2.530736,1.3802 -4.784914,-0.933379 z m 6.45522,-5.368875 C 34.943772,13.044148 29.065365,11.346629 22.516005,13.59461 c -3.061926,1.050967 -4.05124,1.178254 -4.727192,0.608209 -1.159739,-0.97804 -1.07573,-2.58587 0.196241,-3.755568 1.212505,-1.1150229 7.196519,-2.8212155 9.89465,-2.8212155 2.591123,0 7.745898,1.6496131 10.325477,3.3043225 4.911605,3.150625 8.182478,9.115134 5.559514,10.137909 -1.573718,0.613643 -1.829747,0.4609 -4.345597,-2.592523 z m 6.703842,-4.84047 C 43.551069,10.208365 39.233414,6.9602987 35.247162,5.4536923 31.079505,3.8785267 23.978567,4.0158048 19.211767,5.7636947 14.683556,7.4240976 13.223056,7.1832568 13.4976,4.8214108 c 0.142359,-1.2247237 0.823338,-1.935305 2.840772,-2.9642645 10.500492,-5.3556067 24.993812,-1.77869038 32.972239,8.1374689 2.999122,3.7275268 3.244697,6.2102088 0.64463,6.5169888 -1.248901,0.147356 -1.968243,-0.392546 -3.832301,-2.87633 z"
           id="path3342-4"
           inkscape:connector-curvature="0" />
        <rect
           style="fill:#00ff00;stroke:#ffffff;stroke-width:0.1;stroke-miterlimit:4;stroke-dasharray:none;stroke-opacity:1"
           id="rect3374"
           width="12.096451"
           height="11.882732"
           x="16.323271"
           y="86.967384" />
        <rect
           style="fill:#00ff00;stroke:#ffffff;stroke-width:0.1;stroke-miterlimit:4;stroke-dasharray:none;stroke-opacity:1"
           id="rect3376"
           width="8.954793"
           height="13.271901"
           x="65.286118"
           y="83.825729" />
        <path
           style="fill:#000000;stroke:#ffffff;stroke-width:0.5;stroke-miterlimit:4;stroke-dasharray:none;stroke-opacity:1"
           d="m 26.591562,159.82335 c -0.93203,-0.38897 1.299509,-4.25011 2.702006,-4.67518 2.556291,-0.77476 23.195385,-3.91934 28.146552,-4.28843 5.786542,-0.43136 7.148482,-1.09016 6.497014,-3.14275 -0.752832,-2.37196 -28.764526,-14.64885 -31.248685,-13.69559 -0.476808,0.18297 -1.040373,1.41735 -1.252365,2.74308 -0.211992,1.32573 -0.689335,2.80908 -1.060762,3.29634 -1.581549,2.07475 -20.5670164,6.17659 -25.3020175,5.46653 -3.0226675,-0.45327 -3.7605673,-1.41191 -2.9144389,-3.78627 0.8794045,-2.46774 3.1578985,-3.66458 10.4502584,-5.48923 9.107158,-2.27874 10.404456,-2.8117 10.010455,-4.11255 -0.729582,-2.4088 -10.35813,-22.89878 -10.769579,-22.91813 -0.2475,-0.0117 -0.45,3.48882 -0.45,7.77882 0,6.47923 -0.150055,7.8 -0.886168,7.8 -0.487393,0 -1.3284452,-0.675 -1.8690062,-1.5 C 7.3338798,121.29924 6.6,121.4069 6.6,123.59999 c 0,2.5428 -1.4359655,2.29041 -2.5602747,-0.45 -0.7497439,-1.82743 -0.9340607,-1.98905 -0.9814177,-0.86055 -0.032069,0.76419 -0.3471371,1.92912 -0.7001509,2.58874 -0.5125515,0.95771 -0.8147088,1.05582 -1.49999998,0.48708 -1.22859086,-1.01964 -1.06768031,-3.30801 0.64920758,-9.23263 1.8665522,-6.44107 4.0688614,-10.87625 6.5816665,-13.25464 l 1.9249712,-1.82199 0.368723,-9.878008 c 0.202798,-5.432897 0.921376,-13.657997 1.596841,-18.277997 0.675464,-4.619999 1.641554,-12.719999 2.146867,-17.999998 1.279985,-13.374515 4.149239,-24.837551 6.976586,-27.872352 2.653153,-2.847825 7.368828,-3.847733 9.103988,-1.930402 1.821729,2.012987 1.262083,5.057617 -1.580388,8.597754 -3.459301,4.308365 -6.48084,8.617245 -8.414687,11.999803 -2.484738,4.346139 -5.046114,12.817543 -5.851737,19.353824 -0.74466,6.04167 -0.431571,19.378163 0.473351,20.163035 C 15.090095,85.434169 24.075,84.866143 34.8,83.949367 45.525,83.032597 59.888338,82.086793 66.71853,81.847591 l 12.418524,-0.434916 0.329436,-3.05634 c 0.181188,-1.680984 0.742002,-7.781339 1.246254,-13.556339 1.95564,-22.397218 4.878324,-38.936087 7.541586,-42.676298 1.25439,-1.761627 4.005336,-3.523699 5.501196,-3.523699 2.87457,0 4.396176,4.382632 3.16692,9.121547 -0.604518,2.330484 -1.58463,3.824873 -4.38747,6.689643 -1.984986,2.028845 -4.042044,4.552225 -4.571244,5.607511 -1.016634,2.027289 -3.436542,20.591034 -4.586154,35.181521 -0.46818,5.942076 -0.470838,9.806508 -0.0094,13.602023 1.185228,9.747924 1.66923,11.404166 4.283772,14.659086 3.665574,4.56338 8.771964,12.42851 10.13766,15.61455 0.803808,1.8752 1.196172,4.06645 1.168164,6.52386 -0.05052,4.43174 -1.048554,7.60774 -1.115652,3.55025 -0.02318,-1.4025 -0.312162,-2.55 -0.642162,-2.55 -0.33,0 -0.6,0.81 -0.6,1.8 0,0.99 -0.27,1.8 -0.6,1.8 -0.33,0 -0.6,-0.945 -0.6,-2.1 0,-1.155 -0.27,-2.1 -0.6,-2.1 -0.33,0 -0.604134,1.0125 -0.609186,2.25 -0.0068,1.67363 -0.158184,2.01945 -0.590814,1.35 -0.319896,-0.495 -0.587262,-1.98 -0.594156,-3.3 -0.0069,-1.32 -0.296988,-3.48 -0.644646,-4.8 -2.11281,-8.02193 -2.314494,-8.46163 -4.795836,-10.45569 -1.379772,-1.10881 -2.69268,-1.7538 -2.978976,-1.46345 -0.281544,0.28553 -0.852252,7.21038 -1.268244,15.38856 -0.687666,13.51934 -0.663558,15.31709 0.265542,19.8 1.809924,8.73288 1.903224,8.56622 -5.91261,10.56072 -8.561916,2.18489 -15.93039,3.06079 -30.871074,3.66969 -8.085,0.32949 -15.78,0.71611 -17.1,0.85914 -1.32,0.14302 -2.718797,0.127 -3.108438,-0.0356 z m 45.29997,-18.72053 c 0.17154,-1.78866 0.04626,-1.97659 -1.2,-1.8 -1.109982,0.15728 -1.411602,0.59881 -1.490712,2.18224 -0.08576,1.71648 0.0766,1.96003 1.2,1.8 0.986418,-0.14051 1.34529,-0.66586 1.490712,-2.18224 z m -3.53889,-0.82489 c 0.34197,-0.98097 1.137492,-1.91845 1.767822,-2.08329 1.627512,-0.4256 1.432338,-3.21151 -0.220464,-3.14686 -0.66,0.0258 -0.86082,0.18369 -0.446262,0.35083 0.81309,0.3278 0.43836,1.40138 -0.48915,1.40138 -0.310524,0 -0.564588,-0.81 -0.564588,-1.8 0,-2.44017 -1.178958,-2.3022 -1.281708,0.15 -0.05622,1.34212 -0.161214,1.54104 -0.336738,0.63811 -0.212136,-1.09125 -0.652476,-1.30639 -2.618292,-1.27926 -2.0805,0.0287 -2.363262,0.20363 -2.363262,1.46188 0,1.34582 0.218964,1.43333 3.75,1.49887 2.0625,0.0383 3.317262,0.18543 2.788362,0.32698 -0.658584,0.17627 -0.892326,0.76887 -0.74169,1.8804 0.189936,1.40152 0.142692,1.45925 -0.346188,0.42302 -0.48864,-1.03572 -0.571914,-1.05626 -0.60831,-0.15 -0.0232,0.5775 -0.312174,1.05 -0.642174,1.05 -0.33,0 -0.604134,-0.4725 -0.609186,-1.05 -0.0065,-0.75026 -0.145284,-0.83565 -0.48594,-0.29914 -0.360708,0.56809 -0.796608,0.45287 -1.790814,-0.47337 L 61.8,137.95325 l 0,2.05414 0,2.05414 2.96544,0 c 2.749428,0 3.010728,-0.12992 3.587202,-1.7836 z M 62.4,140.99999 c 0,-0.33 0.27,-0.6 0.6,-0.6 0.33,0 0.6,0.27 0.6,0.6 0,0.33 -0.27,0.6 -0.6,0.6 -0.33,0 -0.6,-0.27 -0.6,-0.6 z m 16.69173,-0.47796 c 0.10545,-0.72712 -0.11298,-1.32204 -0.485412,-1.32204 -0.372426,0 -0.51027,-0.27 -0.306318,-0.6 0.203952,-0.33 0.09351,-0.6 -0.24543,-0.6 -0.338934,0 -1.019058,0.7425 -1.511388,1.65 l -0.895134,1.65 -0.024,-1.65 c -0.03576,-2.45678 -1.51551,-2.04627 -1.568346,0.43509 -0.04404,2.06743 -0.02772,2.08047 2.4,1.92027 2.000682,-0.13201 2.479122,-0.40123 2.636052,-1.48332 z M 77.4,140.36458 c 0,-0.34948 0.27,-0.46854 0.6,-0.26459 0.33,0.20395 0.6,0.48989 0.6,0.63541 0,0.14553 -0.27,0.26459 -0.6,0.26459 -0.33,0 -0.6,-0.28593 -0.6,-0.63541 z m -48.557829,-7.31459 c 0.0232,-1.4025 0.260288,-3.09 0.526876,-3.75 0.454523,-1.12527 0.532617,-1.09725 1.254138,0.45 C 31.555229,131.7487 33,131.92103 33,130.0335 c 0,-1.84952 -1.615888,-4.03351 -2.984304,-4.03351 -0.845966,0 -1.264329,-0.69042 -1.727762,-2.85134 -0.336326,-1.56823 -0.771865,-3.26923 -0.967863,-3.78 -0.280348,-0.73057 0.09727,-0.92866 1.770355,-0.92866 2.521295,0 3.906833,-1.19421 4.082096,-3.51842 0.16345,-2.16755 -1.190573,-2.67826 -1.93182,-0.72863 -0.756835,1.99063 -1.441638,2.32907 -3.290352,1.62619 -2.124159,-0.8076 -2.037791,-2.41914 0.12965,-2.41914 2.332039,0 3.12,-1.01526 3.12,-4.02 0,-2.54061 -0.03155,-2.58 -2.066542,-2.58 -1.319736,0 -2.674909,0.52341 -3.75,1.44837 -1.412772,1.21547 -1.674205,1.89089 -1.62591,4.20059 0.03427,1.63885 0.455721,3.19221 1.041808,3.83983 0.623439,0.68889 0.774757,1.2971 0.412769,1.65909 -0.361987,0.36198 -0.268396,1.77769 0.255301,3.86181 0.454736,1.80967 1.009831,5.65281 1.233544,8.54031 0.304162,3.92585 0.620165,5.25 1.252891,5.25 0.588842,0 0.858963,-0.77541 0.88831,-2.55 z m -2.18363,-22.11708 c -0.435119,-0.70404 0.72503,-1.70821 1.991459,-1.72373 0.948814,-0.0116 0.962283,0.73853 0.03,1.67081 -0.897142,0.89715 -1.490106,0.91267 -2.021459,0.0529 z m 30.026403,22.28372 c 1.542679,-1.70464 0.998729,-7.01198 -0.874087,-8.5285 -1.782335,-1.44324 -2.781296,-1.37224 -4.471339,0.3178 l -1.405937,1.40594 -0.681232,-2.27375 c -1.274419,-4.25363 -6.62022,-6.40009 -8.665858,-3.47953 l -0.881553,1.25859 -0.670256,-1.25238 c -0.871563,-1.62853 -3.986464,-3.22446 -5.410993,-2.77233 -0.613985,0.19487 -1.554668,1.02329 -2.090406,1.84093 -0.896352,1.36801 -0.897171,1.71321 -0.01027,4.32661 0.530091,1.56199 1.391114,3.31248 1.913386,3.88998 1.090661,1.206 3.784098,1.38951 4.843599,0.33 0.56,-0.56 0.72,-0.42666 0.72,0.6 0,1.88904 2.081882,3.72 4.229796,3.72 2.41782,0 5.187646,-1.47959 5.681259,-3.03483 0.368261,-1.16028 0.449256,-1.17528 1.152552,-0.21347 0.579388,0.79236 1.277946,0.94989 2.984339,0.67298 1.883672,-0.30568 2.195385,-0.20419 2.017534,0.65689 -0.164468,0.79629 -0.761659,0.98334 -2.737914,0.85755 C 50.431932,131.41844 49.8,131.5985 49.8,132.25929 c 0,2.20042 5.116171,2.91181 6.884944,0.95734 z M 41.4,128.69999 c -0.313664,-0.825 -0.981982,-1.5 -1.485149,-1.5 C 39.4,127.19999 39,126.67532 39,125.99999 c 0,-1.45798 -1.101304,-1.56433 -2.09709,-0.20251 -0.851122,1.16398 -2.70291,0.69902 -2.70291,-0.67866 0,-0.6459 0.6092,-0.91883 2.050928,-0.91883 1.128009,0 2.442526,-0.15027 2.921147,-0.33393 0.535486,-0.20549 0.988193,0.11719 1.176921,0.83889 0.168685,0.64506 1.004397,1.62997 1.857138,2.18871 1.405299,0.92079 1.720968,0.93082 3.372151,0.1071 1.550048,-0.77327 1.821715,-0.78144 1.821715,-0.0548 0,1.3689 -2.26795,3.25401 -3.914851,3.25401 -1.063761,0 -1.684673,-0.44667 -2.085149,-1.5 z m 10.8,-1.5 c 0,-0.33 0.389065,-0.6 0.86459,-0.6 0.475524,0 1.031459,0.27 1.23541,0.6 0.203951,0.33 -0.185114,0.6 -0.86459,0.6 -0.679475,0 -1.23541,-0.27 -1.23541,-0.6 z m -9.210938,-2.69665 c -1.04518,-1.04518 -0.705356,-2.70335 0.554021,-2.70335 1.31098,0 2.187004,2.1451 1.207877,2.95771 -0.628609,0.5217 -1.046114,0.46142 -1.761898,-0.25436 z M 33.6,121.2354 c 0,-1.04563 1.015141,-1.20308 2.161607,-0.33527 1.078631,0.81646 1.051774,0.8627 -0.511607,0.88078 -0.9075,0.0105 -1.65,-0.23498 -1.65,-0.54551 z m 26.7,1.46459 c 0,-0.95192 -0.358507,-1.17426 -1.734137,-1.07552 l -1.734137,0.12448 0.397489,-4.76624 c 0.652597,-7.8252 0.873267,-8.49086 2.701763,-8.14999 0.86296,0.16088 3.091942,0.46006 4.953292,0.66485 l 3.384264,0.37235 0.36894,4.01503 c 0.899244,9.78627 1.01307,10.31504 2.220432,10.31504 0.90525,0 1.142094,-0.43549 1.142094,-2.1 0,-1.155 0.153012,-2.1 0.340032,-2.1 0.18702,0 1.254198,0.69727 2.371512,1.54948 2.213106,1.68802 3.698118,1.72491 4.71066,0.11703 0.866094,-1.37532 -0.36534,-2.79261 -1.562874,-1.79874 -0.600864,0.49868 -1.356192,0.18285 -3.135672,-1.31112 l -2.34414,-1.96802 2.527596,-0.40418 c 2.966994,-0.47444 4.487556,-2.60397 3.074796,-4.30624 -1.279944,-1.54224 -3.859362,-2.62943 -6.66693,-2.81001 -1.438236,-0.0925 -2.88498,-0.50241 -3.21498,-0.91089 -0.33,-0.40849 -2.49,-0.94972 -4.8,-1.20274 l -4.2,-0.46004 0,-2.04556 c 0,-2.66528 -1.336172,-3.09799 -2.171042,-0.70308 -0.555155,1.59251 -0.940564,1.85411 -2.731647,1.85411 -1.661857,0 -2.044866,0.21322 -1.886175,1.05 0.120098,0.63329 0.851925,1.12535 1.843995,1.23986 1.253593,0.14469 1.644869,0.5134 1.644869,1.55 0,1.92158 -0.629491,2.31944 -1.879685,1.18803 -0.592388,-0.53611 -2.358176,-1.21407 -3.923975,-1.50659 -1.565799,-0.29253 -3.128029,-0.8205 -3.471623,-1.17327 -0.442001,-0.45381 0.01326,-0.52425 1.55657,-0.24083 3.751548,0.68894 3.495053,-1.44496 -0.282312,-2.3487 -2.658601,-0.63607 -3.998975,0.0571 -3.998975,2.0681 0,2.10266 1.605867,3.28192 5.273303,3.87242 4.432521,0.71369 5.480996,4.39878 1.810445,6.3632 -1.062715,0.56875 -1.428624,0.49843 -2.086249,-0.40093 C 48.358874,116.66142 48,115.95224 48,115.68531 c 0,-0.26692 -0.405,-0.48532 -0.9,-0.48532 -1.102091,0 -1.235524,3.02448 -0.18,4.08 1.062866,1.06287 5.300853,0.88711 6.582755,-0.27299 1.042098,-0.94309 1.097245,-0.89269 1.097245,1.00275 0,2.67982 1.538117,4.29744 3.869341,4.06935 C 59.840295,123.94497 60.3,123.59865 60.3,122.69999 Z m 10.934742,-8.46525 c -0.49887,-0.49887 -0.596532,-3.23475 -0.11547,-3.23475 0.175596,0 1.255596,0.39123 2.4,0.86939 2.032824,0.84937 2.824932,2.12248 1.330728,2.1388 -0.4125,0.005 -1.296864,0.15514 -1.965258,0.33475 -0.668388,0.1796 -1.410888,0.13091 -1.65,-0.10819 z m -4.531986,7.17226 c 1.34265,-1.21509 1.493796,-4.40701 0.208674,-4.40701 -0.488712,0 -1.05798,0.675 -1.265046,1.5 -0.454506,1.8109 -1.48416,1.91574 -2.946384,0.3 -1.062708,-1.17428 -1.047978,-1.2 0.687006,-1.2 4.773162,0 3.896808,-5.59116 -0.999114,-6.37437 -1.95819,-0.31326 -2.186244,-0.18241 -3.129459,1.79553 -0.559544,1.17337 -0.79147,2.27301 -0.51539,2.44364 0.276079,0.17063 0.666467,1.13275 0.867528,2.13806 0.456173,2.28087 2.903081,4.79714 4.664909,4.79714 0.73152,0 1.82379,-0.44684 2.427276,-0.99299 z m -4.502754,-6.00701 c -0.670092,-0.67009 -0.447714,-1.4 0.426534,-1.4 0.45459,0 1.16265,0.405 1.573464,0.9 0.62064,0.74782 0.54852,0.9 -0.426534,0.9 -0.645408,0 -1.353468,-0.18 -1.573464,-0.4 z m -17.17491,1.55312 c 0.367022,-0.68579 0.519995,-1.63079 0.339941,-2.1 -0.45993,-1.19856 -2.032008,-1.06406 -2.30122,0.19688 C 42.652196,116.97793 40.8,112.46144 40.8,109.52979 c 0,-2.3635 -0.167216,-2.7298 -1.246154,-2.7298 -0.685385,0 -2.035385,0.78923 -3,1.75385 -2.285436,2.28544 -2.445231,5.56547 -0.338389,6.94593 0.778501,0.5101 1.808038,0.7768 2.287858,0.59267 0.47982,-0.18412 1.369711,0.21476 1.977535,0.88639 1.433594,1.5841 3.689523,1.57133 4.544242,-0.0257 z m -7.496431,-3.70312 c -0.251376,-0.5775 -0.251376,-1.5225 0,-2.1 0.435285,-1 0.469008,-1 0.708188,0 0.138127,0.5775 0.138127,1.5225 0,2.1 -0.23918,1 -0.272903,1 -0.708188,0 z M 45.6,96.899994 l 0,-5.7 -2.988569,0 c -3.420018,0 -3.306777,-0.20589 -3.877596,7.05 l -0.342213,4.349996 3.604189,0 3.604189,0 0,-5.699996 z m 6.896122,0.75 c -0.212492,-2.7225 -0.492573,-5.2875 -0.622404,-5.7 -0.137522,-0.436938 -1.245719,-0.75 -2.654887,-0.75 l -2.418831,0 0,5.7 0,5.699996 3.041234,0 3.041235,0 -0.386347,-4.949996 z M 26.057143,97.457136 C 26.71699,96.797292 27,95.366724 27,92.691162 c 0,-3.270534 -0.192742,-3.958127 -1.333504,-4.757147 -1.89112,-1.32459 -4.408017,-1.161288 -5.843123,0.379116 -1.525598,1.637537 -1.694504,6.747221 -0.289351,8.753357 1.135335,1.620918 5.057939,1.85583 6.523121,0.390648 z M 22,94.999992 C 21.430468,94.43046 21.521699,91.652628 22.142105,90.673122 23.019677,89.287608 24,90.534072 24,93.035406 c 0,2.228604 -0.875743,3.088842 -2,1.964586 z m 51.2,-0.499998 c 0,-0.825 -0.27,-1.5 -0.6,-1.5 -0.342858,0 -0.6,-1.8 -0.6,-4.2 l 0,-4.199999 -2.4,0 c -2.16,0 -2.4,0.15 -2.4,1.5 0,0.825 0.27,1.5 0.6,1.5 0.33,0 0.6,1.214999 0.6,2.699999 0,1.485 -0.27,2.7 -0.6,2.7 -0.33,0 -0.6,0.675 -0.6,1.5 0,1.399998 0.199998,1.5 3,1.5 2.800002,0 3,-0.100002 3,-1.5 z"
           id="path3340"
           inkscape:connector-curvature="0" />
        <rect
           style="fill:#000000;stroke:none;stroke-width:0.1;stroke-miterlimit:4;stroke-dasharray:none;stroke-opacity:1"
           id="rect3378"
           width="20.3125"
           height="11.5625"
           x="59.842003"
           y="132.66023" />
        <text
           xml:space="preserve"
           style="font-style:normal;font-weight:normal;font-size:29.64958572px;line-height:100%;font-family:sans-serif;letter-spacing:0px;word-spacing:0px;fill:#ffffff;fill-opacity:1;stroke:#ffffff;stroke-width:0.1;stroke-linecap:butt;stroke-linejoin:miter;stroke-miterlimit:4;stroke-dasharray:none;stroke-opacity:1"
           x="63.397797"
           y="136.4489"
           id="text3380"
           sodipodi:linespacing="100%"
           transform="scale(0.99193686,1.0081287)"><tspan
             sodipodi:role="line"
             id="tspan3382"
             x="63.397797"
             y="136.4489"
             style="font-style:normal;font-variant:normal;font-weight:bold;font-stretch:normal;font-size:3.70619822px;line-height:100%;font-family:Lato;-inkscape-font-specification:'Lato, Bold';text-align:start;writing-mode:lr-tb;text-anchor:start;stroke:#ffffff;stroke-width:0.1;stroke-miterlimit:4;stroke-dasharray:none;stroke-opacity:1">salz</tspan><tspan
             sodipodi:role="line"
             x="63.397797"
             y="140.15509"
             style="font-style:normal;font-variant:normal;font-weight:bold;font-stretch:normal;font-size:3.70619822px;line-height:100%;font-family:Lato;-inkscape-font-specification:'Lato, Bold';text-align:start;writing-mode:lr-tb;text-anchor:start;stroke:#ffffff;stroke-width:0.1;stroke-miterlimit:4;stroke-dasharray:none;stroke-opacity:1"
             id="tspan3384">burg 16</tspan></text>
      </g>
    </g>
  </g>
</svg>
