<?xml version="1.0" encoding="UTF-8" standalone="no"?>
<!-- Generator: Adobe Illustrator 15.0.2, SVG Export Plug-In . SVG Version: 6.00 Build 0)  -->

<svg
   xmlns:dc="http://purl.org/dc/elements/1.1/"
   xmlns:cc="http://creativecommons.org/ns#"
   xmlns:rdf="http://www.w3.org/1999/02/22-rdf-syntax-ns#"
   xmlns:svg="http://www.w3.org/2000/svg"
   xmlns="http://www.w3.org/2000/svg"
   xmlns:xlink="http://www.w3.org/1999/xlink"
   xmlns:sodipodi="http://sodipodi.sourceforge.net/DTD/sodipodi-0.dtd"
   xmlns:inkscape="http://www.inkscape.org/namespaces/inkscape"
   version="1.1"
   x="0px"
   y="0px"
   width="2834.646"
   height="1422.9919"
   viewBox="0 0 2834.646 1422.9919"
   enable-background="new 0 0 1417.323 1417.322"
   xml:space="preserve"
   id="svg2"
   inkscape:version="0.91 r13725"
   sodipodi:docname="gpn.svg"><metadata
     id="metadata430"><rdf:RDF><cc:Work
         rdf:about=""><dc:format>image/svg+xml</dc:format><dc:type
           rdf:resource="http://purl.org/dc/dcmitype/StillImage" /><dc:title></dc:title></cc:Work></rdf:RDF></metadata><defs
     id="defs428" /><sodipodi:namedview
     pagecolor="#ffffff"
     bordercolor="#666666"
     borderopacity="1"
     objecttolerance="10"
     gridtolerance="10"
     guidetolerance="10"
     inkscape:pageopacity="0"
     inkscape:pageshadow="2"
     inkscape:window-width="1680"
     inkscape:window-height="987"
     id="namedview426"
     showgrid="false"
     fit-margin-top="0"
     fit-margin-left="0"
     fit-margin-right="0"
     fit-margin-bottom="0"
     inkscape:zoom="0.1177412"
     inkscape:cx="1241.7108"
     inkscape:cy="307.59179"
     inkscape:window-x="-8"
     inkscape:window-y="-8"
     inkscape:window-maximized="1"
     inkscape:current-layer="svg2" /><symbol
     id="Code"
     viewBox="-228.844 -172.096 457.666 340.157"
     transform="translate(-265.15794,82.107831)"><g
       id="g5"><text
         transform="matrix(1,0,0,-1,-228.8438,-94.1162)"
         font-size="268.9023"
         id="text7"
         style="font-size:268.90231323px;font-family:ProstoSans-Bold;fill:#ffffff">&lt;/&gt;</text>
</g></symbol><symbol
     id="EAT"
     viewBox="-257.918 -141.747 515.826 283.464"
     transform="translate(-265.15794,82.107831)"><g
       id="g10"><g
         id="g12"><g
           id="g14"><g
             id="g16"><g
               id="g18"><path
                 d="m -257.918,69.037 c 0,19.059 14.072,38.346 40.969,38.346 l 258.72,-0.004 c 5.373,19.998 23.656,34.338 45.991,34.338 l 157.858,-0.002 c 6.787,0 12.288,-5.502 12.288,-12.287 0,-6.785 -5.501,-12.289 -12.288,-12.289 l -157.864,0.004 c -15.114,0 -23.023,-11.09 -23.023,-22.05 l -0.002,-12.29 -281.674,0.005 c -12.099,0 -16.391,-7.419 -16.391,-13.771 -0.001,-6.352 4.292,-13.775 16.391,-13.775 l 281.68,-0.005 0,-12.285 c 0,-11.681 11.353,-21.087 20.754,-21.087 l 160.128,-0.002 c 6.787,0 12.289,-5.502 12.289,-12.289 0,-6.784 -5.502,-12.287 -12.289,-12.287 L 85.49,-2.69 c -17.998,0 -37.725,13.216 -43.592,33.372 l -258.842,0.004 c -26.903,0.007 -40.974,19.294 -40.974,38.351 z"
                 id="path20"
                 inkscape:connector-curvature="0"
                 style="fill:#ffffff" /></g><g
               id="g22"><path
                 d="m -256.946,-103.484 c 0,18.684 14.065,38.551 40.129,38.551 l 153.709,-0.003 0,27.818 264.646,-0.003 c 36.996,-0.002 56.352,-26.321 56.352,-52.316 -0.002,-25.992 -19.358,-52.311 -56.354,-52.31 l -418.354,0.006 c -26.345,0 -40.13,19.243 -40.128,38.257 z m 218.413,41.793 -10e-4,-27.822 -178.28,0.004 c -11.479,0 -15.55,-7.526 -15.55,-13.975 0,-6.621 4.08,-13.682 15.55,-13.682 l 418.35,-0.006 c 21.953,-0.001 31.783,13.932 31.783,27.734 0,13.808 -9.83,27.742 -31.781,27.742 l -240.071,0.005 z"
                 id="path24"
                 inkscape:connector-curvature="0"
                 style="fill:#ffffff" /></g><path
               d="m 78.087,90.25 c 0,6.787 5.502,12.285 12.285,12.285 l 155.248,-0.002 c 6.787,0 12.288,-5.499 12.287,-12.285 0,-6.787 -5.5,-12.289 -12.289,-12.289 L 90.371,77.962 c -6.782,0 -12.284,5.501 -12.284,12.288 z"
               id="path26"
               inkscape:connector-curvature="0"
               style="fill:#ffffff" /><path
               d="m 78.087,48.113 c 0,6.783 5.502,12.287 12.284,12.287 l 155.247,-0.004 c 6.789,0 12.289,-5.502 12.289,-12.286 0,-6.787 -5.502,-12.288 -12.289,-12.288 L 90.371,35.824 c -6.782,0 -12.286,5.502 -12.284,12.289 z"
               id="path28"
               inkscape:connector-curvature="0"
               style="fill:#ffffff" /></g></g></g></g></symbol><symbol
     id="Repeat"
     viewBox="-302.771 -177.307 605.521 354.279"
     transform="translate(-265.15794,82.107831)"><g
       id="g31"><g
         id="g33"><g
           id="g35"><g
             id="g37"><path
               d="m 127.354,127.393 -353.434,0 c -31.336,0 -56.692,-25.357 -56.692,-56.693 l 0,-141.733 c 0,-31.336 25.357,-56.693 56.693,-56.693"
               id="path39"
               inkscape:connector-curvature="0"
               style="fill:none;stroke:#ffffff;stroke-width:40" /><g
               id="g41"><polygon
                 points="112.765,176.973 199.117,127.119 112.765,77.256 "
                 id="polygon43"
                 style="fill:#ffffff" /></g></g></g><g
           id="g45"><g
             id="g47"><path
               d="m -127.377,-127.727 353.434,0 c 31.336,0 56.691,25.357 56.691,56.693 0.002,0 0.002,141.732 0.002,141.732 0,31.336 -25.357,56.693 -56.693,56.693"
               id="path49"
               inkscape:connector-curvature="0"
               style="fill:none;stroke:#ffffff;stroke-width:40" /><g
               id="g51"><polygon
                 points="-112.787,-177.307 -199.14,-127.453 -112.787,-77.59 "
                 id="polygon53"
                 style="fill:#ffffff" /></g></g></g></g></g></symbol><symbol
     id="Sleep"
     viewBox="-283.441 -151.055 566.933 302.147"
     transform="translate(-265.15794,82.107831)"><g
       id="g56"><g
         id="g58"><polyline
           points="     264.811,-132.373 264.811,-42.348 -264.759,-42.348 -264.759,-132.373 -264.759,132.41    "
           id="polyline60"
           style="fill:none;stroke:#ffffff;stroke-width:37.36399841;stroke-linecap:round;stroke-linejoin:round" /><line
           x1="-114.909"
           y1="32.058998"
           x2="202.83299"
           y2="32.058998"
           id="line62"
           style="fill:none;stroke:#ffffff;stroke-width:50;stroke-linecap:round" /><path
           d="m -204.215,68.633 c 0,10.968 8.891,19.858 19.858,19.858 10.967,0 19.858,-8.891 19.858,-19.858 0,-10.967 -8.891,-19.858 -19.858,-19.858 -10.967,0 -19.858,8.89 -19.858,19.858 z"
           id="path64"
           inkscape:connector-curvature="0"
           style="fill:none;stroke:#ffffff;stroke-width:37.36399841;stroke-linecap:round" /></g></g></symbol><pattern
     x="441.858"
     y="-323"
     width="28.346"
     height="28.346"
     patternUnits="userSpaceOnUse"
     id="New_Pattern_Swatch_2"
     viewBox="0 -28.346 28.346 28.346"
     overflow="visible"><g
       id="g67"><polygon
         fill="none"
         points="0,0 28.346,0 28.346,-28.346 0,-28.346   "
         id="polygon69" /><line
         fill="none"
         stroke="#FFFFFF"
         stroke-width="2"
         x1="0"
         y1="-14.173"
         x2="28.346"
         y2="-14.173"
         id="line71" /><line
         fill="none"
         stroke="#FFFFFF"
         stroke-width="2"
         x1="14.173"
         y1="0"
         x2="14.173"
         y2="-28.346"
         id="line73" /></g></pattern><pattern
     x="441.858"
     y="-323"
     width="28.346"
     height="28.346"
     patternUnits="userSpaceOnUse"
     id="Unnamed_Pattern"
     viewBox="0 -28.346 28.346 28.346"
     overflow="visible"><g
       id="g76"><polygon
         fill="none"
         points="0,0 28.346,0 28.346,-28.346 0,-28.346   "
         id="polygon78" /><line
         fill="none"
         stroke="#FFFFFF"
         stroke-width="2"
         x1="0"
         y1="-14.173"
         x2="28.346"
         y2="-14.173"
         id="line80" /><line
         fill="none"
         stroke="#FFFFFF"
         stroke-width="2"
         x1="14.173"
         y1="0"
         x2="14.173"
         y2="-28.346"
         id="line82" /></g></pattern><g
     id="Layer_4"
     transform="translate(-1479.686,5.6690001)"><radialGradient
       id="SVGID_2_"
       cx="2191.3208"
       cy="705.82617"
       r="711.50153"
       gradientTransform="matrix(1.992,0,0,1,-1468.1014,0)"
       gradientUnits="userSpaceOnUse"><stop
         offset="0"
         style="stop-color:#1486CC"
         id="stop406" /><stop
         offset="0.7362"
         style="stop-color:#1486CC"
         id="stop408" /></radialGradient><rect
       x="1479.686"
       y="-5.6690001"
       width="2834.646"
       height="1422.9919"
       id="rect410"
       style="fill:url(#SVGID_2_)" /><rect
       x="1479.686"
       y="-5.6690001"
       width="2834.646"
       height="1422.9919"
       id="rect412"
       style="fill:url(#New_Pattern_Swatch_2);fill-opacity:0.2" /><g
       id="g414"><g
         id="g416"><use
           xlink:href="#EAT"
           width="515.82599"
           height="283.46399"
           x="-257.918"
           y="-141.74699"
           transform="matrix(1,0,0,-1,2230.5803,790.75383)"
           overflow="visible"
           id="use418"
           style="overflow:visible" /><use
           xlink:href="#Sleep"
           width="566.93298"
           height="302.147"
           x="-283.44101"
           y="-151.05499"
           transform="matrix(0.9382,0,0,-0.9382,2849.1408,785.71227)"
           overflow="visible"
           id="use420"
           style="overflow:visible" /><use
           xlink:href="#Code"
           width="457.66599"
           height="340.15701"
           x="-228.84399"
           y="-172.09599"
           transform="matrix(1.3047,0,0,-1.3047,3566.5058,813.15539)"
           overflow="visible"
           id="use422"
           style="overflow:visible" /><use
           xlink:href="#Repeat"
           width="605.521"
           height="354.27899"
           x="-302.771"
           y="-177.30701"
           transform="matrix(0.8001,0,0,-0.8001,4056.4307,774.22178)"
           overflow="visible"
           id="use424"
           style="overflow:visible" /></g></g></g></svg>